<!-- Generated by IcoMoon.io -->
<svg version="1.1" style="fill: white" xmlns="http://www.w3.org/2000/svg" width="24" height="24" viewBox="0 0 28 32">
<title>rewind</title>
<path d="M10.645 15.847v5.974h1.74v-8.642h-1.421c0 0.087-0.029 0.203-0.058 0.348-0.087 0.261-0.174 0.464-0.319 0.609-0.203 0.232-0.493 0.377-0.841 0.464-0.203 0.058-0.58 0.087-1.131 0.116v1.16h2.030z"></path>
<path d="M3.502 11.248c-1.073 1.856-1.711 4.002-1.711 6.293 0 6.873 5.481 12.441 12.209 12.441 6.757 0 12.209-5.568 12.209-12.441s-5.481-12.441-12.209-12.441v-4.118l-10.179 5.626 10.179 5.771v-4.147c5.046 0 9.164 4.176 9.164 9.309 0 5.162-4.089 9.309-9.164 9.309s-9.164-4.147-9.164-9.309c0-1.769 0.493-3.393 1.305-4.785l-2.639-1.508z"></path>
<path d="M18.218 17.5c0-1.044-0.087-1.827-0.232-2.32-0.174-0.493-0.493-0.754-1.015-0.754s-0.841 0.261-0.986 0.754c-0.145 0.493-0.232 1.276-0.232 2.32 0 0.986 0.087 1.74 0.232 2.291 0.145 0.522 0.493 0.783 0.986 0.783s0.841-0.261 1.015-0.783c0.174-0.551 0.232-1.305 0.232-2.291v0zM17 13.034c1.102 0 1.885 0.377 2.32 1.16s0.667 1.885 0.667 3.306-0.232 2.523-0.667 3.306c-0.435 0.783-1.218 1.16-2.32 1.16s-1.885-0.377-2.32-1.16c-0.435-0.783-0.667-1.856-0.667-3.306s0.203-2.523 0.667-3.306c0.435-0.783 1.218-1.16 2.32-1.16v0z"></path>
</svg>
