<svg id="svg" version="1.1" width="400" height="400" viewBox="0 0 400 400" xmlns="http://www.w3.org/2000/svg" xmlns:xlink="http://www.w3.org/1999/xlink" ><g id="svgg"><path id="path0" d="M174.400 1.200 C 174.400 2.390,174.380 2.400,172.100 2.440 C 168.562 2.501,167.899 2.796,167.010 4.704 C 166.297 6.235,166.082 6.400,164.790 6.400 C 162.964 6.400,162.400 6.985,162.400 8.880 C 162.400 10.344,162.349 10.400,161.033 10.400 C 158.767 10.400,158.400 10.705,158.400 12.592 C 158.400 14.260,158.366 14.303,156.867 14.543 C 154.912 14.856,154.400 15.909,154.400 19.619 L 154.400 22.400 153.029 22.400 C 150.521 22.400,150.400 22.797,150.400 31.017 L 150.400 38.377 149.100 38.706 C 146.225 39.434,146.401 35.997,146.401 91.238 C 146.400 146.214,146.172 141.752,149.000 142.067 L 150.200 142.200 150.309 149.782 C 150.429 158.084,150.397 157.984,152.900 157.994 L 154.400 158.000 154.400 161.757 C 154.400 165.889,154.468 166.000,157.011 166.000 C 158.332 166.000,158.358 166.034,158.478 167.900 L 158.600 169.800 160.479 169.921 L 162.358 170.042 162.479 171.921 L 162.600 173.800 164.500 173.922 L 166.400 174.044 166.400 175.779 C 166.400 177.692,166.761 178.000,169.000 178.000 C 170.145 178.000,170.438 178.213,171.067 179.500 C 172.022 181.454,173.501 181.948,178.476 181.977 L 182.352 182.000 182.476 183.491 C 182.697 186.141,179.443 185.988,235.500 185.994 L 286.400 186.000 286.400 187.167 C 286.400 189.108,286.768 189.546,288.635 189.826 C 290.239 190.067,290.400 190.193,290.400 191.213 C 290.400 193.105,290.778 193.548,292.635 193.826 C 294.239 194.067,294.400 194.193,294.400 195.213 C 294.400 197.105,294.778 197.548,296.635 197.826 C 298.239 198.067,298.400 198.193,298.400 199.213 C 298.400 201.105,298.778 201.548,300.635 201.826 C 302.239 202.067,302.400 202.193,302.400 203.213 C 302.400 205.105,302.778 205.548,304.635 205.826 C 306.239 206.067,306.400 206.193,306.400 207.213 C 306.400 209.105,306.778 209.548,308.635 209.826 C 310.239 210.067,310.400 210.193,310.400 211.213 C 310.400 213.105,310.778 213.548,312.635 213.826 C 314.239 214.067,314.400 214.193,314.400 215.213 C 314.400 217.105,314.778 217.548,316.635 217.826 C 318.239 218.067,318.400 218.193,318.400 219.213 C 318.400 221.105,318.778 221.548,320.635 221.826 C 322.239 222.067,322.400 222.193,322.400 223.213 C 322.400 225.105,322.778 225.548,324.635 225.826 C 326.239 226.067,326.400 226.193,326.400 227.213 C 326.400 229.105,326.778 229.548,328.635 229.826 C 330.239 230.067,330.400 230.193,330.400 231.213 C 330.400 233.105,330.778 233.548,332.635 233.826 C 334.239 234.067,334.400 234.193,334.400 235.213 C 334.400 237.105,334.778 237.548,336.635 237.826 C 338.239 238.067,338.400 238.193,338.400 239.213 C 338.400 241.105,338.778 241.548,340.635 241.826 C 342.288 242.074,342.400 242.170,342.406 243.345 C 342.417 245.666,342.712 245.800,347.776 245.796 C 354.542 245.790,353.779 249.592,353.915 215.186 L 354.030 186.000 357.606 186.000 C 361.062 186.000,361.205 185.963,361.891 184.907 C 363.549 182.351,363.865 182.215,368.665 182.000 C 373.727 181.773,373.591 181.835,373.886 179.633 C 374.098 178.055,374.155 178.000,375.591 178.000 C 378.026 178.000,381.200 176.162,381.200 174.752 C 381.200 174.185,381.633 173.970,383.189 173.764 C 385.253 173.490,385.289 173.450,385.798 170.920 C 385.987 169.979,386.433 169.449,387.481 168.920 C 389.055 168.126,389.983 166.143,389.994 163.553 C 390.000 162.163,390.065 162.097,391.633 161.886 C 393.832 161.591,393.782 161.700,393.937 156.941 C 394.050 153.485,394.191 152.702,394.737 152.496 C 395.545 152.190,396.400 151.379,396.400 150.917 C 396.400 150.731,396.760 150.270,397.200 149.893 C 398.016 149.194,398.447 34.508,397.644 31.600 C 397.414 30.765,397.090 30.580,395.684 30.477 L 394.000 30.354 394.000 26.377 C 394.000 23.992,393.840 22.400,393.600 22.400 C 393.380 22.400,393.200 22.065,393.200 21.655 C 393.200 20.791,391.349 18.800,390.545 18.800 C 390.178 18.800,390.000 18.290,390.000 17.233 C 390.000 14.745,389.730 14.400,387.779 14.400 L 386.044 14.400 385.922 12.500 L 385.800 10.600 383.921 10.479 L 382.042 10.358 381.921 8.479 L 381.800 6.600 379.900 6.478 C 378.200 6.369,378.000 6.256,378.000 5.404 C 378.000 2.716,377.538 2.400,373.610 2.400 L 370.000 2.400 370.000 1.200 L 370.000 0.000 272.200 0.000 L 174.400 0.000 174.400 1.200 M282.413 51.100 C 282.429 52.507,283.259 53.600,284.311 53.600 C 286.368 53.600,286.400 53.696,286.400 59.823 C 286.400 64.036,286.535 65.645,286.910 65.880 C 287.190 66.056,287.725 66.681,288.099 67.270 C 288.473 67.858,289.143 68.455,289.589 68.597 C 290.355 68.840,290.400 69.179,290.400 74.778 C 290.400 81.327,290.449 81.464,292.964 81.872 L 294.400 82.105 294.400 88.052 C 294.400 91.324,294.558 94.000,294.750 94.000 C 294.943 94.000,295.205 94.526,295.334 95.168 C 295.510 96.050,295.915 96.462,296.984 96.849 L 298.400 97.361 298.400 103.290 L 298.400 109.220 299.426 109.610 C 299.990 109.824,300.890 110.000,301.426 110.000 L 302.400 110.000 302.400 115.940 C 302.400 123.533,303.049 125.553,305.500 125.587 C 306.378 125.600,306.400 125.707,306.400 130.000 L 306.400 134.400 300.200 134.400 L 294.000 134.400 294.000 133.174 C 294.000 131.135,293.371 130.400,291.623 130.400 L 290.075 130.400 289.937 122.785 C 289.787 114.427,289.784 114.418,287.300 114.406 C 286.007 114.400,286.000 114.388,286.000 112.400 L 286.000 110.400 272.222 110.400 L 258.444 110.400 258.322 112.300 L 258.200 114.200 256.400 114.400 L 254.600 114.600 254.400 122.400 L 254.200 130.200 252.400 130.400 L 250.600 130.600 250.478 132.500 L 250.356 134.400 244.078 134.356 C 239.376 134.323,238.241 134.226,239.555 133.968 C 241.914 133.504,241.784 133.868,241.930 127.368 C 242.032 122.795,242.173 121.600,242.611 121.600 C 245.294 121.600,246.000 119.482,246.000 111.433 L 246.000 106.105 247.633 105.886 C 249.870 105.586,249.784 105.833,249.932 99.268 L 250.064 93.400 251.306 92.800 C 251.989 92.470,252.666 91.930,252.812 91.600 C 252.957 91.270,253.284 90.597,253.538 90.105 C 253.822 89.555,254.000 87.076,254.000 83.662 L 254.000 78.114 255.682 77.757 C 257.807 77.306,257.909 76.965,257.960 70.087 C 257.995 65.418,258.085 64.743,258.700 64.510 C 259.541 64.191,260.400 63.387,260.400 62.917 C 260.400 62.731,260.760 62.270,261.200 61.893 C 261.929 61.268,262.000 60.713,262.000 55.604 L 262.000 50.000 272.200 50.000 L 282.400 50.000 282.413 51.100 M270.930 58.711 C 270.671 58.876,270.401 59.728,270.330 60.605 C 270.202 62.175,270.172 62.203,268.400 62.400 L 266.600 62.600 266.490 69.100 C 266.405 74.113,266.261 75.600,265.860 75.600 C 265.224 75.600,263.600 77.271,263.600 77.926 C 263.600 78.187,263.330 78.400,263.000 78.400 C 262.485 78.400,262.400 79.627,262.400 87.040 L 262.400 95.679 261.139 96.857 L 259.877 98.035 261.139 99.337 C 261.832 100.052,262.400 100.945,262.400 101.319 C 262.400 102.444,284.983 102.354,285.586 101.226 C 287.232 98.150,285.632 88.900,283.205 87.467 L 282.021 86.767 281.910 80.683 L 281.800 74.600 279.900 74.478 L 278.000 74.356 278.000 67.404 C 278.000 58.327,278.029 58.398,274.310 58.406 C 272.709 58.409,271.188 58.547,270.930 58.711 M40.530 146.678 C 39.948 146.792,39.417 147.437,38.930 148.622 L 38.200 150.397 30.929 150.399 C 22.827 150.400,22.400 150.530,22.400 152.986 L 22.400 154.315 19.164 154.462 C 15.652 154.622,14.991 155.027,14.525 157.300 C 14.334 158.232,14.099 158.400,12.983 158.400 C 10.756 158.400,10.400 158.709,10.400 160.643 L 10.400 162.400 8.880 162.400 C 6.967 162.400,6.400 162.964,6.400 164.869 C 6.400 166.236,6.279 166.408,5.100 166.706 C 3.361 167.146,2.401 169.064,2.401 172.100 C 2.400 174.389,2.394 174.400,1.200 174.400 L 0.000 174.400 0.000 242.200 L 0.000 310.000 1.200 310.000 L 2.400 310.000 2.400 313.351 C 2.400 317.062,2.560 317.344,4.900 317.766 C 6.362 318.029,6.400 318.080,6.400 319.775 C 6.400 321.698,6.758 322.000,9.033 322.000 C 10.382 322.000,10.400 322.024,10.400 323.757 C 10.400 325.699,10.753 326.000,13.033 326.000 C 14.363 326.000,14.400 326.044,14.400 327.610 C 14.400 329.622,15.195 330.000,19.426 330.000 L 22.400 330.000 22.400 331.757 C 22.400 333.926,22.565 334.000,27.384 334.000 C 31.091 334.000,31.104 334.004,31.573 335.134 C 32.302 336.894,35.246 338.000,39.204 338.000 L 42.400 338.000 42.406 367.300 C 42.413 398.914,42.308 397.396,44.504 397.808 C 47.801 398.427,49.525 397.776,49.821 395.799 L 50.085 394.040 51.942 393.920 L 53.800 393.800 53.921 391.921 L 54.042 390.042 55.921 389.921 L 57.800 389.800 57.921 387.921 L 58.042 386.042 59.921 385.921 L 61.800 385.800 61.921 383.921 L 62.042 382.042 63.921 381.921 L 65.800 381.800 65.921 379.921 L 66.042 378.042 67.921 377.921 L 69.800 377.800 69.921 375.921 L 70.042 374.042 71.921 373.921 L 73.800 373.800 73.921 371.921 L 74.042 370.042 75.921 369.921 L 77.800 369.800 77.921 367.921 L 78.042 366.042 79.921 365.921 L 81.800 365.800 81.921 363.921 L 82.042 362.042 83.921 361.921 L 85.800 361.800 85.921 359.921 L 86.042 358.042 87.921 357.921 L 89.800 357.800 89.921 355.921 L 90.042 354.042 91.921 353.921 L 93.800 353.800 93.921 351.921 L 94.042 350.042 95.921 349.921 L 97.800 349.800 97.921 347.921 L 98.042 346.042 99.921 345.921 L 101.800 345.800 101.921 343.921 L 102.042 342.042 103.921 341.921 L 105.800 341.800 105.922 339.900 L 106.044 338.000 156.722 337.960 C 212.566 337.916,209.253 338.058,209.757 335.682 L 210.114 334.000 214.757 333.960 C 220.919 333.907,221.312 333.779,221.757 331.682 C 222.109 330.020,222.135 330.000,223.843 330.000 C 225.162 330.000,225.673 329.811,226.000 329.200 C 226.235 328.760,226.615 328.400,226.843 328.400 C 227.365 328.400,228.171 327.596,228.488 326.757 C 228.729 326.121,230.418 325.600,232.242 325.600 C 232.926 325.600,233.242 325.325,233.392 324.600 C 233.507 324.050,233.690 323.165,233.799 322.633 C 233.924 322.031,234.546 321.391,235.453 320.933 C 237.067 320.120,237.983 318.160,237.994 315.500 C 238.000 314.060,238.054 314.000,239.371 314.000 C 241.593 314.000,242.000 313.253,242.000 309.171 L 242.000 305.600 243.138 305.600 C 246.022 305.600,245.800 310.297,245.800 249.258 L 245.800 194.600 217.700 194.497 L 189.600 194.395 189.600 193.442 C 189.600 191.075,188.551 190.612,182.861 190.469 L 177.650 190.337 177.390 189.155 C 177.021 187.475,175.607 186.722,172.387 186.492 L 169.600 186.293 169.594 185.046 C 169.583 182.929,169.176 182.676,165.453 182.481 L 162.040 182.302 161.920 180.451 L 161.800 178.600 159.921 178.479 L 158.042 178.358 157.921 176.479 L 157.800 174.600 155.921 174.479 L 154.042 174.358 153.921 172.479 L 153.800 170.600 151.954 170.480 L 150.109 170.361 149.902 166.733 C 149.677 162.796,149.454 162.416,147.356 162.406 L 146.113 162.400 145.896 158.924 C 145.658 155.110,145.223 154.400,143.124 154.400 C 142.052 154.400,141.999 154.312,141.983 152.500 C 141.958 149.819,141.386 147.163,140.745 146.757 C 140.213 146.420,42.252 146.343,40.530 146.678 M118.400 199.138 C 118.400 201.289,119.431 201.710,125.204 201.919 L 130.400 202.106 130.400 203.806 C 130.400 205.635,130.860 205.982,133.300 205.995 C 134.024 205.998,134.400 206.212,134.400 206.620 C 134.400 208.235,135.596 209.600,137.010 209.600 C 138.309 209.600,138.401 209.685,138.413 210.900 C 138.429 212.548,139.218 213.598,140.444 213.606 C 141.943 213.616,142.335 214.080,142.472 216.007 L 142.600 217.800 144.400 218.000 L 146.200 218.200 146.417 224.600 C 146.677 232.292,147.110 233.553,149.500 233.587 L 150.400 233.600 150.400 241.949 L 150.400 250.298 148.867 250.543 C 146.735 250.884,146.400 251.844,146.400 257.607 L 146.400 262.377 145.100 262.706 C 143.366 263.145,142.401 265.065,142.401 268.078 L 142.400 270.356 140.500 270.478 L 138.600 270.600 138.478 272.500 L 138.356 274.400 136.378 274.400 L 134.400 274.400 134.400 276.378 L 134.400 278.356 132.500 278.478 L 130.600 278.600 130.485 282.049 C 130.350 286.095,130.216 285.986,135.300 285.995 L 138.400 286.000 138.400 287.757 C 138.400 289.989,138.396 289.988,145.133 290.051 C 149.598 290.092,150.333 290.176,149.146 290.510 C 147.266 291.038,146.400 292.774,146.400 296.014 L 146.400 298.400 144.200 298.400 C 142.068 298.400,142.000 298.366,141.995 297.300 C 141.980 294.444,141.912 294.400,137.451 294.400 C 133.413 294.400,133.393 294.395,132.900 293.300 C 131.939 291.167,130.064 290.400,125.806 290.400 L 122.000 290.400 122.000 289.174 C 122.000 286.398,122.006 286.400,113.586 286.400 L 106.000 286.400 105.995 285.300 C 105.980 282.473,105.874 282.400,101.753 282.400 L 98.000 282.400 98.000 281.033 C 98.000 278.771,97.693 278.400,95.824 278.400 L 94.134 278.400 93.767 276.500 C 93.403 274.617,93.384 274.599,91.700 274.477 C 90.153 274.365,90.000 274.257,89.995 273.277 C 89.982 270.862,89.631 270.400,87.809 270.400 L 86.111 270.400 85.903 266.753 C 85.677 262.790,85.457 262.416,83.344 262.406 L 82.088 262.400 81.942 255.060 C 81.783 247.015,81.647 246.534,79.470 246.323 C 78.046 246.185,77.128 241.200,78.527 241.200 C 81.035 241.200,81.652 239.119,81.960 229.600 L 82.200 222.200 83.598 222.067 C 85.623 221.875,86.000 221.384,86.000 218.938 C 86.000 217.246,86.152 216.717,86.700 216.510 C 87.590 216.173,88.400 215.378,88.400 214.843 C 88.400 214.615,88.760 214.235,89.200 214.000 C 89.814 213.671,90.000 213.162,90.000 211.808 L 90.000 210.044 91.900 209.922 L 93.800 209.800 93.920 207.957 L 94.039 206.114 97.089 205.856 C 100.496 205.568,101.600 204.915,101.600 203.188 L 101.600 202.101 106.100 201.912 C 111.224 201.696,112.976 201.020,113.358 199.111 C 113.710 197.352,118.400 197.377,118.400 199.138 M102.667 210.667 C 102.520 210.813,102.400 211.713,102.400 212.667 C 102.400 214.373,102.379 214.400,101.033 214.400 C 98.465 214.400,98.400 214.506,98.400 218.643 L 98.400 222.400 97.033 222.400 C 94.190 222.400,94.400 220.843,94.399 241.943 C 94.398 263.191,94.473 263.789,97.276 264.766 C 98.263 265.111,98.369 265.348,98.479 267.472 L 98.600 269.800 100.479 269.921 L 102.358 270.042 102.479 271.921 L 102.600 273.800 104.854 273.919 C 106.978 274.030,107.121 274.103,107.337 275.183 C 107.732 277.162,111.094 278.144,116.541 277.870 C 121.462 277.622,121.242 277.717,121.568 275.704 L 121.812 274.200 125.381 273.902 C 129.215 273.583,129.390 273.474,129.757 271.178 C 129.954 269.948,130.270 269.530,131.453 268.933 C 133.345 267.979,133.986 266.106,133.994 261.505 L 134.000 258.009 135.605 257.753 C 137.814 257.400,137.800 257.500,137.800 242.000 C 137.800 227.202,137.772 227.019,135.409 226.575 L 134.028 226.316 133.914 222.458 L 133.800 218.600 131.900 218.478 L 130.000 218.356 130.000 216.378 C 130.000 215.290,129.864 214.400,129.698 214.400 C 129.531 214.400,129.172 213.905,128.900 213.300 C 127.667 210.563,126.846 210.400,114.272 210.400 C 108.036 210.400,102.813 210.520,102.667 210.667 " stroke="none" fill="#000000" fill-rule="evenodd"></path><path id="path1" d="M174.400 1.200 C 174.400 2.390,174.380 2.400,172.100 2.440 C 168.562 2.501,167.899 2.796,167.010 4.704 C 166.297 6.235,166.082 6.400,164.790 6.400 C 162.964 6.400,162.400 6.985,162.400 8.880 C 162.400 10.344,162.349 10.400,161.033 10.400 C 158.767 10.400,158.400 10.705,158.400 12.592 C 158.400 14.260,158.366 14.303,156.867 14.543 C 154.912 14.856,154.400 15.909,154.400 19.619 L 154.400 22.400 153.029 22.400 C 150.521 22.400,150.400 22.797,150.400 31.017 L 150.400 38.377 149.100 38.706 C 146.225 39.434,146.401 35.997,146.401 91.238 C 146.400 146.214,146.172 141.752,149.000 142.067 L 150.200 142.200 150.309 149.782 C 150.429 158.084,150.397 157.984,152.900 157.994 L 154.400 158.000 154.400 161.757 C 154.400 165.889,154.468 166.000,157.011 166.000 C 158.332 166.000,158.358 166.034,158.478 167.900 L 158.600 169.800 160.479 169.921 L 162.358 170.042 162.479 171.921 L 162.600 173.800 164.500 173.922 L 166.400 174.044 166.400 175.779 C 166.400 177.692,166.761 178.000,169.000 178.000 C 170.145 178.000,170.438 178.213,171.067 179.500 C 172.022 181.454,173.501 181.948,178.476 181.977 L 182.352 182.000 182.476 183.491 C 182.697 186.141,179.443 185.988,235.500 185.994 L 286.400 186.000 286.400 187.167 C 286.400 189.108,286.768 189.546,288.635 189.826 C 290.239 190.067,290.400 190.193,290.400 191.213 C 290.400 193.105,290.778 193.548,292.635 193.826 C 294.239 194.067,294.400 194.193,294.400 195.213 C 294.400 197.105,294.778 197.548,296.635 197.826 C 298.239 198.067,298.400 198.193,298.400 199.213 C 298.400 201.105,298.778 201.548,300.635 201.826 C 302.239 202.067,302.400 202.193,302.400 203.213 C 302.400 205.105,302.778 205.548,304.635 205.826 C 306.239 206.067,306.400 206.193,306.400 207.213 C 306.400 209.105,306.778 209.548,308.635 209.826 C 310.239 210.067,310.400 210.193,310.400 211.213 C 310.400 213.105,310.778 213.548,312.635 213.826 C 314.239 214.067,314.400 214.193,314.400 215.213 C 314.400 217.105,314.778 217.548,316.635 217.826 C 318.239 218.067,318.400 218.193,318.400 219.213 C 318.400 221.105,318.778 221.548,320.635 221.826 C 322.239 222.067,322.400 222.193,322.400 223.213 C 322.400 225.105,322.778 225.548,324.635 225.826 C 326.239 226.067,326.400 226.193,326.400 227.213 C 326.400 229.105,326.778 229.548,328.635 229.826 C 330.239 230.067,330.400 230.193,330.400 231.213 C 330.400 233.105,330.778 233.548,332.635 233.826 C 334.239 234.067,334.400 234.193,334.400 235.213 C 334.400 237.105,334.778 237.548,336.635 237.826 C 338.239 238.067,338.400 238.193,338.400 239.213 C 338.400 241.105,338.778 241.548,340.635 241.826 C 342.288 242.074,342.400 242.170,342.406 243.345 C 342.417 245.666,342.712 245.800,347.776 245.796 C 354.542 245.790,353.779 249.592,353.915 215.186 L 354.030 186.000 357.606 186.000 C 361.062 186.000,361.205 185.963,361.891 184.907 C 363.549 182.351,363.865 182.215,368.665 182.000 C 373.727 181.773,373.591 181.835,373.886 179.633 C 374.098 178.055,374.155 178.000,375.591 178.000 C 378.026 178.000,381.200 176.162,381.200 174.752 C 381.200 174.185,381.633 173.970,383.189 173.764 C 385.253 173.490,385.289 173.450,385.798 170.920 C 385.987 169.979,386.433 169.449,387.481 168.920 C 389.055 168.126,389.983 166.143,389.994 163.553 C 390.000 162.163,390.065 162.097,391.633 161.886 C 393.832 161.591,393.782 161.700,393.937 156.941 C 394.050 153.485,394.191 152.702,394.737 152.496 C 395.545 152.190,396.400 151.379,396.400 150.917 C 396.400 150.731,396.760 150.270,397.200 149.893 C 398.016 149.194,398.447 34.508,397.644 31.600 C 397.414 30.765,397.090 30.580,395.684 30.477 L 394.000 30.354 394.000 26.377 C 394.000 23.992,393.840 22.400,393.600 22.400 C 393.380 22.400,393.200 22.065,393.200 21.655 C 393.200 20.791,391.349 18.800,390.545 18.800 C 390.178 18.800,390.000 18.290,390.000 17.233 C 390.000 14.745,389.730 14.400,387.779 14.400 L 386.044 14.400 385.922 12.500 L 385.800 10.600 383.921 10.479 L 382.042 10.358 381.921 8.479 L 381.800 6.600 379.900 6.478 C 378.200 6.369,378.000 6.256,378.000 5.404 C 378.000 2.716,377.538 2.400,373.610 2.400 L 370.000 2.400 370.000 1.200 L 370.000 0.000 272.200 0.000 L 174.400 0.000 174.400 1.200 M282.413 51.100 C 282.429 52.507,283.259 53.600,284.311 53.600 C 286.368 53.600,286.400 53.696,286.400 59.823 C 286.400 64.036,286.535 65.645,286.910 65.880 C 287.190 66.056,287.725 66.681,288.099 67.270 C 288.473 67.858,289.143 68.455,289.589 68.597 C 290.355 68.840,290.400 69.179,290.400 74.778 C 290.400 81.327,290.449 81.464,292.964 81.872 L 294.400 82.105 294.400 88.052 C 294.400 91.324,294.558 94.000,294.750 94.000 C 294.943 94.000,295.205 94.526,295.334 95.168 C 295.510 96.050,295.915 96.462,296.984 96.849 L 298.400 97.361 298.400 103.290 L 298.400 109.220 299.426 109.610 C 299.990 109.824,300.890 110.000,301.426 110.000 L 302.400 110.000 302.400 115.940 C 302.400 123.533,303.049 125.553,305.500 125.587 C 306.378 125.600,306.400 125.707,306.400 130.000 L 306.400 134.400 300.200 134.400 L 294.000 134.400 294.000 133.174 C 294.000 131.135,293.371 130.400,291.623 130.400 L 290.075 130.400 289.937 122.785 C 289.787 114.427,289.784 114.418,287.300 114.406 C 286.007 114.400,286.000 114.388,286.000 112.400 L 286.000 110.400 272.222 110.400 L 258.444 110.400 258.322 112.300 L 258.200 114.200 256.400 114.400 L 254.600 114.600 254.400 122.400 L 254.200 130.200 252.400 130.400 L 250.600 130.600 250.478 132.500 L 250.356 134.400 244.078 134.356 C 239.376 134.323,238.241 134.226,239.555 133.968 C 241.914 133.504,241.784 133.868,241.930 127.368 C 242.032 122.795,242.173 121.600,242.611 121.600 C 245.294 121.600,246.000 119.482,246.000 111.433 L 246.000 106.105 247.633 105.886 C 249.870 105.586,249.784 105.833,249.932 99.268 L 250.064 93.400 251.306 92.800 C 251.989 92.470,252.666 91.930,252.812 91.600 C 252.957 91.270,253.284 90.597,253.538 90.105 C 253.822 89.555,254.000 87.076,254.000 83.662 L 254.000 78.114 255.682 77.757 C 257.807 77.306,257.909 76.965,257.960 70.087 C 257.995 65.418,258.085 64.743,258.700 64.510 C 259.541 64.191,260.400 63.387,260.400 62.917 C 260.400 62.731,260.760 62.270,261.200 61.893 C 261.929 61.268,262.000 60.713,262.000 55.604 L 262.000 50.000 272.200 50.000 L 282.400 50.000 282.413 51.100 M270.930 58.711 C 270.671 58.876,270.401 59.728,270.330 60.605 C 270.202 62.175,270.172 62.203,268.400 62.400 L 266.600 62.600 266.490 69.100 C 266.405 74.113,266.261 75.600,265.860 75.600 C 265.224 75.600,263.600 77.271,263.600 77.926 C 263.600 78.187,263.330 78.400,263.000 78.400 C 262.485 78.400,262.400 79.627,262.400 87.040 L 262.400 95.679 261.139 96.857 L 259.877 98.035 261.139 99.337 C 261.832 100.052,262.400 100.945,262.400 101.319 C 262.400 102.444,284.983 102.354,285.586 101.226 C 287.232 98.150,285.632 88.900,283.205 87.467 L 282.021 86.767 281.910 80.683 L 281.800 74.600 279.900 74.478 L 278.000 74.356 278.000 67.404 C 278.000 58.327,278.029 58.398,274.310 58.406 C 272.709 58.409,271.188 58.547,270.930 58.711 M40.530 146.678 C 39.948 146.792,39.417 147.437,38.930 148.622 L 38.200 150.397 30.929 150.399 C 22.827 150.400,22.400 150.530,22.400 152.986 L 22.400 154.315 19.164 154.462 C 15.652 154.622,14.991 155.027,14.525 157.300 C 14.334 158.232,14.099 158.400,12.983 158.400 C 10.756 158.400,10.400 158.709,10.400 160.643 L 10.400 162.400 8.880 162.400 C 6.967 162.400,6.400 162.964,6.400 164.869 C 6.400 166.236,6.279 166.408,5.100 166.706 C 3.361 167.146,2.401 169.064,2.401 172.100 C 2.400 174.389,2.394 174.400,1.200 174.400 L 0.000 174.400 0.000 242.200 L 0.000 310.000 1.200 310.000 L 2.400 310.000 2.400 313.351 C 2.400 317.062,2.560 317.344,4.900 317.766 C 6.362 318.029,6.400 318.080,6.400 319.775 C 6.400 321.698,6.758 322.000,9.033 322.000 C 10.382 322.000,10.400 322.024,10.400 323.757 C 10.400 325.699,10.753 326.000,13.033 326.000 C 14.363 326.000,14.400 326.044,14.400 327.610 C 14.400 329.622,15.195 330.000,19.426 330.000 L 22.400 330.000 22.400 331.757 C 22.400 333.926,22.565 334.000,27.384 334.000 C 31.091 334.000,31.104 334.004,31.573 335.134 C 32.302 336.894,35.246 338.000,39.204 338.000 L 42.400 338.000 42.406 367.300 C 42.413 398.914,42.308 397.396,44.504 397.808 C 47.801 398.427,49.525 397.776,49.821 395.799 L 50.085 394.040 51.942 393.920 L 53.800 393.800 53.921 391.921 L 54.042 390.042 55.921 389.921 L 57.800 389.800 57.921 387.921 L 58.042 386.042 59.921 385.921 L 61.800 385.800 61.921 383.921 L 62.042 382.042 63.921 381.921 L 65.800 381.800 65.921 379.921 L 66.042 378.042 67.921 377.921 L 69.800 377.800 69.921 375.921 L 70.042 374.042 71.921 373.921 L 73.800 373.800 73.921 371.921 L 74.042 370.042 75.921 369.921 L 77.800 369.800 77.921 367.921 L 78.042 366.042 79.921 365.921 L 81.800 365.800 81.921 363.921 L 82.042 362.042 83.921 361.921 L 85.800 361.800 85.921 359.921 L 86.042 358.042 87.921 357.921 L 89.800 357.800 89.921 355.921 L 90.042 354.042 91.921 353.921 L 93.800 353.800 93.921 351.921 L 94.042 350.042 95.921 349.921 L 97.800 349.800 97.921 347.921 L 98.042 346.042 99.921 345.921 L 101.800 345.800 101.921 343.921 L 102.042 342.042 103.921 341.921 L 105.800 341.800 105.922 339.900 L 106.044 338.000 156.722 337.960 C 212.566 337.916,209.253 338.058,209.757 335.682 L 210.114 334.000 214.757 333.960 C 220.919 333.907,221.312 333.779,221.757 331.682 C 222.109 330.020,222.135 330.000,223.843 330.000 C 225.162 330.000,225.673 329.811,226.000 329.200 C 226.235 328.760,226.615 328.400,226.843 328.400 C 227.365 328.400,228.171 327.596,228.488 326.757 C 228.729 326.121,230.418 325.600,232.242 325.600 C 232.926 325.600,233.242 325.325,233.392 324.600 C 233.507 324.050,233.690 323.165,233.799 322.633 C 233.924 322.031,234.546 321.391,235.453 320.933 C 237.067 320.120,237.983 318.160,237.994 315.500 C 238.000 314.060,238.054 314.000,239.371 314.000 C 241.593 314.000,242.000 313.253,242.000 309.171 L 242.000 305.600 243.138 305.600 C 246.022 305.600,245.800 310.297,245.800 249.258 L 245.800 194.600 217.700 194.497 L 189.600 194.395 189.600 193.442 C 189.600 191.075,188.551 190.612,182.861 190.469 L 177.650 190.337 177.390 189.155 C 177.021 187.475,175.607 186.722,172.387 186.492 L 169.600 186.293 169.594 185.046 C 169.583 182.929,169.176 182.676,165.453 182.481 L 162.040 182.302 161.920 180.451 L 161.800 178.600 159.921 178.479 L 158.042 178.358 157.921 176.479 L 157.800 174.600 155.921 174.479 L 154.042 174.358 153.921 172.479 L 153.800 170.600 151.954 170.480 L 150.109 170.361 149.902 166.733 C 149.677 162.796,149.454 162.416,147.356 162.406 L 146.113 162.400 145.896 158.924 C 145.658 155.110,145.223 154.400,143.124 154.400 C 142.052 154.400,141.999 154.312,141.983 152.500 C 141.958 149.819,141.386 147.163,140.745 146.757 C 140.213 146.420,42.252 146.343,40.530 146.678 M118.400 199.138 C 118.400 201.289,119.431 201.710,125.204 201.919 L 130.400 202.106 130.400 203.806 C 130.400 205.635,130.860 205.982,133.300 205.995 C 134.024 205.998,134.400 206.212,134.400 206.620 C 134.400 208.235,135.596 209.600,137.010 209.600 C 138.309 209.600,138.401 209.685,138.413 210.900 C 138.429 212.548,139.218 213.598,140.444 213.606 C 141.943 213.616,142.335 214.080,142.472 216.007 L 142.600 217.800 144.400 218.000 L 146.200 218.200 146.417 224.600 C 146.677 232.292,147.110 233.553,149.500 233.587 L 150.400 233.600 150.400 241.949 L 150.400 250.298 148.867 250.543 C 146.735 250.884,146.400 251.844,146.400 257.607 L 146.400 262.377 145.100 262.706 C 143.366 263.145,142.401 265.065,142.401 268.078 L 142.400 270.356 140.500 270.478 L 138.600 270.600 138.478 272.500 L 138.356 274.400 136.378 274.400 L 134.400 274.400 134.400 276.378 L 134.400 278.356 132.500 278.478 L 130.600 278.600 130.485 282.049 C 130.350 286.095,130.216 285.986,135.300 285.995 L 138.400 286.000 138.400 287.757 C 138.400 289.989,138.396 289.988,145.133 290.051 C 149.598 290.092,150.333 290.176,149.146 290.510 C 147.266 291.038,146.400 292.774,146.400 296.014 L 146.400 298.400 144.200 298.400 C 142.068 298.400,142.000 298.366,141.995 297.300 C 141.980 294.444,141.912 294.400,137.451 294.400 C 133.413 294.400,133.393 294.395,132.900 293.300 C 131.939 291.167,130.064 290.400,125.806 290.400 L 122.000 290.400 122.000 289.174 C 122.000 286.398,122.006 286.400,113.586 286.400 L 106.000 286.400 105.995 285.300 C 105.980 282.473,105.874 282.400,101.753 282.400 L 98.000 282.400 98.000 281.033 C 98.000 278.771,97.693 278.400,95.824 278.400 L 94.134 278.400 93.767 276.500 C 93.403 274.617,93.384 274.599,91.700 274.477 C 90.153 274.365,90.000 274.257,89.995 273.277 C 89.982 270.862,89.631 270.400,87.809 270.400 L 86.111 270.400 85.903 266.753 C 85.677 262.790,85.457 262.416,83.344 262.406 L 82.088 262.400 81.942 255.060 C 81.783 247.015,81.647 246.534,79.470 246.323 C 78.046 246.185,77.128 241.200,78.527 241.200 C 81.035 241.200,81.652 239.119,81.960 229.600 L 82.200 222.200 83.598 222.067 C 85.623 221.875,86.000 221.384,86.000 218.938 C 86.000 217.246,86.152 216.717,86.700 216.510 C 87.590 216.173,88.400 215.378,88.400 214.843 C 88.400 214.615,88.760 214.235,89.200 214.000 C 89.814 213.671,90.000 213.162,90.000 211.808 L 90.000 210.044 91.900 209.922 L 93.800 209.800 93.920 207.957 L 94.039 206.114 97.089 205.856 C 100.496 205.568,101.600 204.915,101.600 203.188 L 101.600 202.101 106.100 201.912 C 111.224 201.696,112.976 201.020,113.358 199.111 C 113.710 197.352,118.400 197.377,118.400 199.138 M102.667 210.667 C 102.520 210.813,102.400 211.713,102.400 212.667 C 102.400 214.373,102.379 214.400,101.033 214.400 C 98.465 214.400,98.400 214.506,98.400 218.643 L 98.400 222.400 97.033 222.400 C 94.190 222.400,94.400 220.843,94.399 241.943 C 94.398 263.191,94.473 263.789,97.276 264.766 C 98.263 265.111,98.369 265.348,98.479 267.472 L 98.600 269.800 100.479 269.921 L 102.358 270.042 102.479 271.921 L 102.600 273.800 104.854 273.919 C 106.978 274.030,107.121 274.103,107.337 275.183 C 107.732 277.162,111.094 278.144,116.541 277.870 C 121.462 277.622,121.242 277.717,121.568 275.704 L 121.812 274.200 125.381 273.902 C 129.215 273.583,129.390 273.474,129.757 271.178 C 129.954 269.948,130.270 269.530,131.453 268.933 C 133.345 267.979,133.986 266.106,133.994 261.505 L 134.000 258.009 135.605 257.753 C 137.814 257.400,137.800 257.500,137.800 242.000 C 137.800 227.202,137.772 227.019,135.409 226.575 L 134.028 226.316 133.914 222.458 L 133.800 218.600 131.900 218.478 L 130.000 218.356 130.000 216.378 C 130.000 215.290,129.864 214.400,129.698 214.400 C 129.531 214.400,129.172 213.905,128.900 213.300 C 127.667 210.563,126.846 210.400,114.272 210.400 C 108.036 210.400,102.813 210.520,102.667 210.667 " stroke="none" fill="#000000" fill-rule="evenodd"></path><path id="path2" d="M174.400 1.200 C 174.400 2.390,174.380 2.400,172.100 2.440 C 168.562 2.501,167.899 2.796,167.010 4.704 C 166.297 6.235,166.082 6.400,164.790 6.400 C 162.964 6.400,162.400 6.985,162.400 8.880 C 162.400 10.344,162.349 10.400,161.033 10.400 C 158.767 10.400,158.400 10.705,158.400 12.592 C 158.400 14.260,158.366 14.303,156.867 14.543 C 154.912 14.856,154.400 15.909,154.400 19.619 L 154.400 22.400 153.029 22.400 C 150.521 22.400,150.400 22.797,150.400 31.017 L 150.400 38.377 149.100 38.706 C 146.225 39.434,146.401 35.997,146.401 91.238 C 146.400 146.214,146.172 141.752,149.000 142.067 L 150.200 142.200 150.309 149.782 C 150.429 158.084,150.397 157.984,152.900 157.994 L 154.400 158.000 154.400 161.757 C 154.400 165.889,154.468 166.000,157.011 166.000 C 158.332 166.000,158.358 166.034,158.478 167.900 L 158.600 169.800 160.479 169.921 L 162.358 170.042 162.479 171.921 L 162.600 173.800 164.500 173.922 L 166.400 174.044 166.400 175.779 C 166.400 177.692,166.761 178.000,169.000 178.000 C 170.145 178.000,170.438 178.213,171.067 179.500 C 172.022 181.454,173.501 181.948,178.476 181.977 L 182.352 182.000 182.476 183.491 C 182.697 186.141,179.443 185.988,235.500 185.994 L 286.400 186.000 286.400 187.167 C 286.400 189.108,286.768 189.546,288.635 189.826 C 290.239 190.067,290.400 190.193,290.400 191.213 C 290.400 193.105,290.778 193.548,292.635 193.826 C 294.239 194.067,294.400 194.193,294.400 195.213 C 294.400 197.105,294.778 197.548,296.635 197.826 C 298.239 198.067,298.400 198.193,298.400 199.213 C 298.400 201.105,298.778 201.548,300.635 201.826 C 302.239 202.067,302.400 202.193,302.400 203.213 C 302.400 205.105,302.778 205.548,304.635 205.826 C 306.239 206.067,306.400 206.193,306.400 207.213 C 306.400 209.105,306.778 209.548,308.635 209.826 C 310.239 210.067,310.400 210.193,310.400 211.213 C 310.400 213.105,310.778 213.548,312.635 213.826 C 314.239 214.067,314.400 214.193,314.400 215.213 C 314.400 217.105,314.778 217.548,316.635 217.826 C 318.239 218.067,318.400 218.193,318.400 219.213 C 318.400 221.105,318.778 221.548,320.635 221.826 C 322.239 222.067,322.400 222.193,322.400 223.213 C 322.400 225.105,322.778 225.548,324.635 225.826 C 326.239 226.067,326.400 226.193,326.400 227.213 C 326.400 229.105,326.778 229.548,328.635 229.826 C 330.239 230.067,330.400 230.193,330.400 231.213 C 330.400 233.105,330.778 233.548,332.635 233.826 C 334.239 234.067,334.400 234.193,334.400 235.213 C 334.400 237.105,334.778 237.548,336.635 237.826 C 338.239 238.067,338.400 238.193,338.400 239.213 C 338.400 241.105,338.778 241.548,340.635 241.826 C 342.288 242.074,342.400 242.170,342.406 243.345 C 342.417 245.666,342.712 245.800,347.776 245.796 C 354.542 245.790,353.779 249.592,353.915 215.186 L 354.030 186.000 357.606 186.000 C 361.062 186.000,361.205 185.963,361.891 184.907 C 363.549 182.351,363.865 182.215,368.665 182.000 C 373.727 181.773,373.591 181.835,373.886 179.633 C 374.098 178.055,374.155 178.000,375.591 178.000 C 378.026 178.000,381.200 176.162,381.200 174.752 C 381.200 174.185,381.633 173.970,383.189 173.764 C 385.253 173.490,385.289 173.450,385.798 170.920 C 385.987 169.979,386.433 169.449,387.481 168.920 C 389.055 168.126,389.983 166.143,389.994 163.553 C 390.000 162.163,390.065 162.097,391.633 161.886 C 393.832 161.591,393.782 161.700,393.937 156.941 C 394.050 153.485,394.191 152.702,394.737 152.496 C 395.545 152.190,396.400 151.379,396.400 150.917 C 396.400 150.731,396.760 150.270,397.200 149.893 C 398.016 149.194,398.447 34.508,397.644 31.600 C 397.414 30.765,397.090 30.580,395.684 30.477 L 394.000 30.354 394.000 26.377 C 394.000 23.992,393.840 22.400,393.600 22.400 C 393.380 22.400,393.200 22.065,393.200 21.655 C 393.200 20.791,391.349 18.800,390.545 18.800 C 390.178 18.800,390.000 18.290,390.000 17.233 C 390.000 14.745,389.730 14.400,387.779 14.400 L 386.044 14.400 385.922 12.500 L 385.800 10.600 383.921 10.479 L 382.042 10.358 381.921 8.479 L 381.800 6.600 379.900 6.478 C 378.200 6.369,378.000 6.256,378.000 5.404 C 378.000 2.716,377.538 2.400,373.610 2.400 L 370.000 2.400 370.000 1.200 L 370.000 0.000 272.200 0.000 L 174.400 0.000 174.400 1.200 M282.413 51.100 C 282.429 52.507,283.259 53.600,284.311 53.600 C 286.368 53.600,286.400 53.696,286.400 59.823 C 286.400 64.036,286.535 65.645,286.910 65.880 C 287.190 66.056,287.725 66.681,288.099 67.270 C 288.473 67.858,289.143 68.455,289.589 68.597 C 290.355 68.840,290.400 69.179,290.400 74.778 C 290.400 81.327,290.449 81.464,292.964 81.872 L 294.400 82.105 294.400 88.052 C 294.400 91.324,294.558 94.000,294.750 94.000 C 294.943 94.000,295.205 94.526,295.334 95.168 C 295.510 96.050,295.915 96.462,296.984 96.849 L 298.400 97.361 298.400 103.290 L 298.400 109.220 299.426 109.610 C 299.990 109.824,300.890 110.000,301.426 110.000 L 302.400 110.000 302.400 115.940 C 302.400 123.533,303.049 125.553,305.500 125.587 C 306.378 125.600,306.400 125.707,306.400 130.000 L 306.400 134.400 300.200 134.400 L 294.000 134.400 294.000 133.174 C 294.000 131.135,293.371 130.400,291.623 130.400 L 290.075 130.400 289.937 122.785 C 289.787 114.427,289.784 114.418,287.300 114.406 C 286.007 114.400,286.000 114.388,286.000 112.400 L 286.000 110.400 272.222 110.400 L 258.444 110.400 258.322 112.300 L 258.200 114.200 256.400 114.400 L 254.600 114.600 254.400 122.400 L 254.200 130.200 252.400 130.400 L 250.600 130.600 250.478 132.500 L 250.356 134.400 244.078 134.356 C 239.376 134.323,238.241 134.226,239.555 133.968 C 241.914 133.504,241.784 133.868,241.930 127.368 C 242.032 122.795,242.173 121.600,242.611 121.600 C 245.294 121.600,246.000 119.482,246.000 111.433 L 246.000 106.105 247.633 105.886 C 249.870 105.586,249.784 105.833,249.932 99.268 L 250.064 93.400 251.306 92.800 C 251.989 92.470,252.666 91.930,252.812 91.600 C 252.957 91.270,253.284 90.597,253.538 90.105 C 253.822 89.555,254.000 87.076,254.000 83.662 L 254.000 78.114 255.682 77.757 C 257.807 77.306,257.909 76.965,257.960 70.087 C 257.995 65.418,258.085 64.743,258.700 64.510 C 259.541 64.191,260.400 63.387,260.400 62.917 C 260.400 62.731,260.760 62.270,261.200 61.893 C 261.929 61.268,262.000 60.713,262.000 55.604 L 262.000 50.000 272.200 50.000 L 282.400 50.000 282.413 51.100 M270.930 58.711 C 270.671 58.876,270.401 59.728,270.330 60.605 C 270.202 62.175,270.172 62.203,268.400 62.400 L 266.600 62.600 266.490 69.100 C 266.405 74.113,266.261 75.600,265.860 75.600 C 265.224 75.600,263.600 77.271,263.600 77.926 C 263.600 78.187,263.330 78.400,263.000 78.400 C 262.485 78.400,262.400 79.627,262.400 87.040 L 262.400 95.679 261.139 96.857 L 259.877 98.035 261.139 99.337 C 261.832 100.052,262.400 100.945,262.400 101.319 C 262.400 102.444,284.983 102.354,285.586 101.226 C 287.232 98.150,285.632 88.900,283.205 87.467 L 282.021 86.767 281.910 80.683 L 281.800 74.600 279.900 74.478 L 278.000 74.356 278.000 67.404 C 278.000 58.327,278.029 58.398,274.310 58.406 C 272.709 58.409,271.188 58.547,270.930 58.711 M40.530 146.678 C 39.948 146.792,39.417 147.437,38.930 148.622 L 38.200 150.397 30.929 150.399 C 22.827 150.400,22.400 150.530,22.400 152.986 L 22.400 154.315 19.164 154.462 C 15.652 154.622,14.991 155.027,14.525 157.300 C 14.334 158.232,14.099 158.400,12.983 158.400 C 10.756 158.400,10.400 158.709,10.400 160.643 L 10.400 162.400 8.880 162.400 C 6.967 162.400,6.400 162.964,6.400 164.869 C 6.400 166.236,6.279 166.408,5.100 166.706 C 3.361 167.146,2.401 169.064,2.401 172.100 C 2.400 174.389,2.394 174.400,1.200 174.400 L 0.000 174.400 0.000 242.200 L 0.000 310.000 1.200 310.000 L 2.400 310.000 2.400 313.351 C 2.400 317.062,2.560 317.344,4.900 317.766 C 6.362 318.029,6.400 318.080,6.400 319.775 C 6.400 321.698,6.758 322.000,9.033 322.000 C 10.382 322.000,10.400 322.024,10.400 323.757 C 10.400 325.699,10.753 326.000,13.033 326.000 C 14.363 326.000,14.400 326.044,14.400 327.610 C 14.400 329.622,15.195 330.000,19.426 330.000 L 22.400 330.000 22.400 331.757 C 22.400 333.926,22.565 334.000,27.384 334.000 C 31.091 334.000,31.104 334.004,31.573 335.134 C 32.302 336.894,35.246 338.000,39.204 338.000 L 42.400 338.000 42.406 367.300 C 42.413 398.914,42.308 397.396,44.504 397.808 C 47.801 398.427,49.525 397.776,49.821 395.799 L 50.085 394.040 51.942 393.920 L 53.800 393.800 53.921 391.921 L 54.042 390.042 55.921 389.921 L 57.800 389.800 57.921 387.921 L 58.042 386.042 59.921 385.921 L 61.800 385.800 61.921 383.921 L 62.042 382.042 63.921 381.921 L 65.800 381.800 65.921 379.921 L 66.042 378.042 67.921 377.921 L 69.800 377.800 69.921 375.921 L 70.042 374.042 71.921 373.921 L 73.800 373.800 73.921 371.921 L 74.042 370.042 75.921 369.921 L 77.800 369.800 77.921 367.921 L 78.042 366.042 79.921 365.921 L 81.800 365.800 81.921 363.921 L 82.042 362.042 83.921 361.921 L 85.800 361.800 85.921 359.921 L 86.042 358.042 87.921 357.921 L 89.800 357.800 89.921 355.921 L 90.042 354.042 91.921 353.921 L 93.800 353.800 93.921 351.921 L 94.042 350.042 95.921 349.921 L 97.800 349.800 97.921 347.921 L 98.042 346.042 99.921 345.921 L 101.800 345.800 101.921 343.921 L 102.042 342.042 103.921 341.921 L 105.800 341.800 105.922 339.900 L 106.044 338.000 156.722 337.960 C 212.566 337.916,209.253 338.058,209.757 335.682 L 210.114 334.000 214.757 333.960 C 220.919 333.907,221.312 333.779,221.757 331.682 C 222.109 330.020,222.135 330.000,223.843 330.000 C 225.162 330.000,225.673 329.811,226.000 329.200 C 226.235 328.760,226.615 328.400,226.843 328.400 C 227.365 328.400,228.171 327.596,228.488 326.757 C 228.729 326.121,230.418 325.600,232.242 325.600 C 232.926 325.600,233.242 325.325,233.392 324.600 C 233.507 324.050,233.690 323.165,233.799 322.633 C 233.924 322.031,234.546 321.391,235.453 320.933 C 237.067 320.120,237.983 318.160,237.994 315.500 C 238.000 314.060,238.054 314.000,239.371 314.000 C 241.593 314.000,242.000 313.253,242.000 309.171 L 242.000 305.600 243.138 305.600 C 246.022 305.600,245.800 310.297,245.800 249.258 L 245.800 194.600 217.700 194.497 L 189.600 194.395 189.600 193.442 C 189.600 191.075,188.551 190.612,182.861 190.469 L 177.650 190.337 177.390 189.155 C 177.021 187.475,175.607 186.722,172.387 186.492 L 169.600 186.293 169.594 185.046 C 169.583 182.929,169.176 182.676,165.453 182.481 L 162.040 182.302 161.920 180.451 L 161.800 178.600 159.921 178.479 L 158.042 178.358 157.921 176.479 L 157.800 174.600 155.921 174.479 L 154.042 174.358 153.921 172.479 L 153.800 170.600 151.954 170.480 L 150.109 170.361 149.902 166.733 C 149.677 162.796,149.454 162.416,147.356 162.406 L 146.113 162.400 145.896 158.924 C 145.658 155.110,145.223 154.400,143.124 154.400 C 142.052 154.400,141.999 154.312,141.983 152.500 C 141.958 149.819,141.386 147.163,140.745 146.757 C 140.213 146.420,42.252 146.343,40.530 146.678 M118.400 199.138 C 118.400 201.289,119.431 201.710,125.204 201.919 L 130.400 202.106 130.400 203.806 C 130.400 205.635,130.860 205.982,133.300 205.995 C 134.024 205.998,134.400 206.212,134.400 206.620 C 134.400 208.235,135.596 209.600,137.010 209.600 C 138.309 209.600,138.401 209.685,138.413 210.900 C 138.429 212.548,139.218 213.598,140.444 213.606 C 141.943 213.616,142.335 214.080,142.472 216.007 L 142.600 217.800 144.400 218.000 L 146.200 218.200 146.417 224.600 C 146.677 232.292,147.110 233.553,149.500 233.587 L 150.400 233.600 150.400 241.949 L 150.400 250.298 148.867 250.543 C 146.735 250.884,146.400 251.844,146.400 257.607 L 146.400 262.377 145.100 262.706 C 143.366 263.145,142.401 265.065,142.401 268.078 L 142.400 270.356 140.500 270.478 L 138.600 270.600 138.478 272.500 L 138.356 274.400 136.378 274.400 L 134.400 274.400 134.400 276.378 L 134.400 278.356 132.500 278.478 L 130.600 278.600 130.485 282.049 C 130.350 286.095,130.216 285.986,135.300 285.995 L 138.400 286.000 138.400 287.757 C 138.400 289.989,138.396 289.988,145.133 290.051 C 149.598 290.092,150.333 290.176,149.146 290.510 C 147.266 291.038,146.400 292.774,146.400 296.014 L 146.400 298.400 144.200 298.400 C 142.068 298.400,142.000 298.366,141.995 297.300 C 141.980 294.444,141.912 294.400,137.451 294.400 C 133.413 294.400,133.393 294.395,132.900 293.300 C 131.939 291.167,130.064 290.400,125.806 290.400 L 122.000 290.400 122.000 289.174 C 122.000 286.398,122.006 286.400,113.586 286.400 L 106.000 286.400 105.995 285.300 C 105.980 282.473,105.874 282.400,101.753 282.400 L 98.000 282.400 98.000 281.033 C 98.000 278.771,97.693 278.400,95.824 278.400 L 94.134 278.400 93.767 276.500 C 93.403 274.617,93.384 274.599,91.700 274.477 C 90.153 274.365,90.000 274.257,89.995 273.277 C 89.982 270.862,89.631 270.400,87.809 270.400 L 86.111 270.400 85.903 266.753 C 85.677 262.790,85.457 262.416,83.344 262.406 L 82.088 262.400 81.942 255.060 C 81.783 247.015,81.647 246.534,79.470 246.323 C 78.046 246.185,77.128 241.200,78.527 241.200 C 81.035 241.200,81.652 239.119,81.960 229.600 L 82.200 222.200 83.598 222.067 C 85.623 221.875,86.000 221.384,86.000 218.938 C 86.000 217.246,86.152 216.717,86.700 216.510 C 87.590 216.173,88.400 215.378,88.400 214.843 C 88.400 214.615,88.760 214.235,89.200 214.000 C 89.814 213.671,90.000 213.162,90.000 211.808 L 90.000 210.044 91.900 209.922 L 93.800 209.800 93.920 207.957 L 94.039 206.114 97.089 205.856 C 100.496 205.568,101.600 204.915,101.600 203.188 L 101.600 202.101 106.100 201.912 C 111.224 201.696,112.976 201.020,113.358 199.111 C 113.710 197.352,118.400 197.377,118.400 199.138 M102.667 210.667 C 102.520 210.813,102.400 211.713,102.400 212.667 C 102.400 214.373,102.379 214.400,101.033 214.400 C 98.465 214.400,98.400 214.506,98.400 218.643 L 98.400 222.400 97.033 222.400 C 94.190 222.400,94.400 220.843,94.399 241.943 C 94.398 263.191,94.473 263.789,97.276 264.766 C 98.263 265.111,98.369 265.348,98.479 267.472 L 98.600 269.800 100.479 269.921 L 102.358 270.042 102.479 271.921 L 102.600 273.800 104.854 273.919 C 106.978 274.030,107.121 274.103,107.337 275.183 C 107.732 277.162,111.094 278.144,116.541 277.870 C 121.462 277.622,121.242 277.717,121.568 275.704 L 121.812 274.200 125.381 273.902 C 129.215 273.583,129.390 273.474,129.757 271.178 C 129.954 269.948,130.270 269.530,131.453 268.933 C 133.345 267.979,133.986 266.106,133.994 261.505 L 134.000 258.009 135.605 257.753 C 137.814 257.400,137.800 257.500,137.800 242.000 C 137.800 227.202,137.772 227.019,135.409 226.575 L 134.028 226.316 133.914 222.458 L 133.800 218.600 131.900 218.478 L 130.000 218.356 130.000 216.378 C 130.000 215.290,129.864 214.400,129.698 214.400 C 129.531 214.400,129.172 213.905,128.900 213.300 C 127.667 210.563,126.846 210.400,114.272 210.400 C 108.036 210.400,102.813 210.520,102.667 210.667 " stroke="none" fill="#000000" fill-rule="evenodd"></path><path id="path3" d="M174.400 1.200 C 174.400 2.390,174.380 2.400,172.100 2.440 C 168.562 2.501,167.899 2.796,167.010 4.704 C 166.297 6.235,166.082 6.400,164.790 6.400 C 162.964 6.400,162.400 6.985,162.400 8.880 C 162.400 10.344,162.349 10.400,161.033 10.400 C 158.767 10.400,158.400 10.705,158.400 12.592 C 158.400 14.260,158.366 14.303,156.867 14.543 C 154.912 14.856,154.400 15.909,154.400 19.619 L 154.400 22.400 153.029 22.400 C 150.521 22.400,150.400 22.797,150.400 31.017 L 150.400 38.377 149.100 38.706 C 146.225 39.434,146.401 35.997,146.401 91.238 C 146.400 146.214,146.172 141.752,149.000 142.067 L 150.200 142.200 150.309 149.782 C 150.429 158.084,150.397 157.984,152.900 157.994 L 154.400 158.000 154.400 161.757 C 154.400 165.889,154.468 166.000,157.011 166.000 C 158.332 166.000,158.358 166.034,158.478 167.900 L 158.600 169.800 160.479 169.921 L 162.358 170.042 162.479 171.921 L 162.600 173.800 164.500 173.922 L 166.400 174.044 166.400 175.779 C 166.400 177.692,166.761 178.000,169.000 178.000 C 170.145 178.000,170.438 178.213,171.067 179.500 C 172.022 181.454,173.501 181.948,178.476 181.977 L 182.352 182.000 182.476 183.491 C 182.697 186.141,179.443 185.988,235.500 185.994 L 286.400 186.000 286.400 187.167 C 286.400 189.108,286.768 189.546,288.635 189.826 C 290.239 190.067,290.400 190.193,290.400 191.213 C 290.400 193.105,290.778 193.548,292.635 193.826 C 294.239 194.067,294.400 194.193,294.400 195.213 C 294.400 197.105,294.778 197.548,296.635 197.826 C 298.239 198.067,298.400 198.193,298.400 199.213 C 298.400 201.105,298.778 201.548,300.635 201.826 C 302.239 202.067,302.400 202.193,302.400 203.213 C 302.400 205.105,302.778 205.548,304.635 205.826 C 306.239 206.067,306.400 206.193,306.400 207.213 C 306.400 209.105,306.778 209.548,308.635 209.826 C 310.239 210.067,310.400 210.193,310.400 211.213 C 310.400 213.105,310.778 213.548,312.635 213.826 C 314.239 214.067,314.400 214.193,314.400 215.213 C 314.400 217.105,314.778 217.548,316.635 217.826 C 318.239 218.067,318.400 218.193,318.400 219.213 C 318.400 221.105,318.778 221.548,320.635 221.826 C 322.239 222.067,322.400 222.193,322.400 223.213 C 322.400 225.105,322.778 225.548,324.635 225.826 C 326.239 226.067,326.400 226.193,326.400 227.213 C 326.400 229.105,326.778 229.548,328.635 229.826 C 330.239 230.067,330.400 230.193,330.400 231.213 C 330.400 233.105,330.778 233.548,332.635 233.826 C 334.239 234.067,334.400 234.193,334.400 235.213 C 334.400 237.105,334.778 237.548,336.635 237.826 C 338.239 238.067,338.400 238.193,338.400 239.213 C 338.400 241.105,338.778 241.548,340.635 241.826 C 342.288 242.074,342.400 242.170,342.406 243.345 C 342.417 245.666,342.712 245.800,347.776 245.796 C 354.542 245.790,353.779 249.592,353.915 215.186 L 354.030 186.000 357.606 186.000 C 361.062 186.000,361.205 185.963,361.891 184.907 C 363.549 182.351,363.865 182.215,368.665 182.000 C 373.727 181.773,373.591 181.835,373.886 179.633 C 374.098 178.055,374.155 178.000,375.591 178.000 C 378.026 178.000,381.200 176.162,381.200 174.752 C 381.200 174.185,381.633 173.970,383.189 173.764 C 385.253 173.490,385.289 173.450,385.798 170.920 C 385.987 169.979,386.433 169.449,387.481 168.920 C 389.055 168.126,389.983 166.143,389.994 163.553 C 390.000 162.163,390.065 162.097,391.633 161.886 C 393.832 161.591,393.782 161.700,393.937 156.941 C 394.050 153.485,394.191 152.702,394.737 152.496 C 395.545 152.190,396.400 151.379,396.400 150.917 C 396.400 150.731,396.760 150.270,397.200 149.893 C 398.016 149.194,398.447 34.508,397.644 31.600 C 397.414 30.765,397.090 30.580,395.684 30.477 L 394.000 30.354 394.000 26.377 C 394.000 23.992,393.840 22.400,393.600 22.400 C 393.380 22.400,393.200 22.065,393.200 21.655 C 393.200 20.791,391.349 18.800,390.545 18.800 C 390.178 18.800,390.000 18.290,390.000 17.233 C 390.000 14.745,389.730 14.400,387.779 14.400 L 386.044 14.400 385.922 12.500 L 385.800 10.600 383.921 10.479 L 382.042 10.358 381.921 8.479 L 381.800 6.600 379.900 6.478 C 378.200 6.369,378.000 6.256,378.000 5.404 C 378.000 2.716,377.538 2.400,373.610 2.400 L 370.000 2.400 370.000 1.200 L 370.000 0.000 272.200 0.000 L 174.400 0.000 174.400 1.200 M282.413 51.100 C 282.429 52.507,283.259 53.600,284.311 53.600 C 286.368 53.600,286.400 53.696,286.400 59.823 C 286.400 64.036,286.535 65.645,286.910 65.880 C 287.190 66.056,287.725 66.681,288.099 67.270 C 288.473 67.858,289.143 68.455,289.589 68.597 C 290.355 68.840,290.400 69.179,290.400 74.778 C 290.400 81.327,290.449 81.464,292.964 81.872 L 294.400 82.105 294.400 88.052 C 294.400 91.324,294.558 94.000,294.750 94.000 C 294.943 94.000,295.205 94.526,295.334 95.168 C 295.510 96.050,295.915 96.462,296.984 96.849 L 298.400 97.361 298.400 103.290 L 298.400 109.220 299.426 109.610 C 299.990 109.824,300.890 110.000,301.426 110.000 L 302.400 110.000 302.400 115.940 C 302.400 123.533,303.049 125.553,305.500 125.587 C 306.378 125.600,306.400 125.707,306.400 130.000 L 306.400 134.400 300.200 134.400 L 294.000 134.400 294.000 133.174 C 294.000 131.135,293.371 130.400,291.623 130.400 L 290.075 130.400 289.937 122.785 C 289.787 114.427,289.784 114.418,287.300 114.406 C 286.007 114.400,286.000 114.388,286.000 112.400 L 286.000 110.400 272.222 110.400 L 258.444 110.400 258.322 112.300 L 258.200 114.200 256.400 114.400 L 254.600 114.600 254.400 122.400 L 254.200 130.200 252.400 130.400 L 250.600 130.600 250.478 132.500 L 250.356 134.400 244.078 134.356 C 239.376 134.323,238.241 134.226,239.555 133.968 C 241.914 133.504,241.784 133.868,241.930 127.368 C 242.032 122.795,242.173 121.600,242.611 121.600 C 245.294 121.600,246.000 119.482,246.000 111.433 L 246.000 106.105 247.633 105.886 C 249.870 105.586,249.784 105.833,249.932 99.268 L 250.064 93.400 251.306 92.800 C 251.989 92.470,252.666 91.930,252.812 91.600 C 252.957 91.270,253.284 90.597,253.538 90.105 C 253.822 89.555,254.000 87.076,254.000 83.662 L 254.000 78.114 255.682 77.757 C 257.807 77.306,257.909 76.965,257.960 70.087 C 257.995 65.418,258.085 64.743,258.700 64.510 C 259.541 64.191,260.400 63.387,260.400 62.917 C 260.400 62.731,260.760 62.270,261.200 61.893 C 261.929 61.268,262.000 60.713,262.000 55.604 L 262.000 50.000 272.200 50.000 L 282.400 50.000 282.413 51.100 M270.930 58.711 C 270.671 58.876,270.401 59.728,270.330 60.605 C 270.202 62.175,270.172 62.203,268.400 62.400 L 266.600 62.600 266.490 69.100 C 266.405 74.113,266.261 75.600,265.860 75.600 C 265.224 75.600,263.600 77.271,263.600 77.926 C 263.600 78.187,263.330 78.400,263.000 78.400 C 262.485 78.400,262.400 79.627,262.400 87.040 L 262.400 95.679 261.139 96.857 L 259.877 98.035 261.139 99.337 C 261.832 100.052,262.400 100.945,262.400 101.319 C 262.400 102.444,284.983 102.354,285.586 101.226 C 287.232 98.150,285.632 88.900,283.205 87.467 L 282.021 86.767 281.910 80.683 L 281.800 74.600 279.900 74.478 L 278.000 74.356 278.000 67.404 C 278.000 58.327,278.029 58.398,274.310 58.406 C 272.709 58.409,271.188 58.547,270.930 58.711 M40.530 146.678 C 39.948 146.792,39.417 147.437,38.930 148.622 L 38.200 150.397 30.929 150.399 C 22.827 150.400,22.400 150.530,22.400 152.986 L 22.400 154.315 19.164 154.462 C 15.652 154.622,14.991 155.027,14.525 157.300 C 14.334 158.232,14.099 158.400,12.983 158.400 C 10.756 158.400,10.400 158.709,10.400 160.643 L 10.400 162.400 8.880 162.400 C 6.967 162.400,6.400 162.964,6.400 164.869 C 6.400 166.236,6.279 166.408,5.100 166.706 C 3.361 167.146,2.401 169.064,2.401 172.100 C 2.400 174.389,2.394 174.400,1.200 174.400 L 0.000 174.400 0.000 242.200 L 0.000 310.000 1.200 310.000 L 2.400 310.000 2.400 313.351 C 2.400 317.062,2.560 317.344,4.900 317.766 C 6.362 318.029,6.400 318.080,6.400 319.775 C 6.400 321.698,6.758 322.000,9.033 322.000 C 10.382 322.000,10.400 322.024,10.400 323.757 C 10.400 325.699,10.753 326.000,13.033 326.000 C 14.363 326.000,14.400 326.044,14.400 327.610 C 14.400 329.622,15.195 330.000,19.426 330.000 L 22.400 330.000 22.400 331.757 C 22.400 333.926,22.565 334.000,27.384 334.000 C 31.091 334.000,31.104 334.004,31.573 335.134 C 32.302 336.894,35.246 338.000,39.204 338.000 L 42.400 338.000 42.406 367.300 C 42.413 398.914,42.308 397.396,44.504 397.808 C 47.801 398.427,49.525 397.776,49.821 395.799 L 50.085 394.040 51.942 393.920 L 53.800 393.800 53.921 391.921 L 54.042 390.042 55.921 389.921 L 57.800 389.800 57.921 387.921 L 58.042 386.042 59.921 385.921 L 61.800 385.800 61.921 383.921 L 62.042 382.042 63.921 381.921 L 65.800 381.800 65.921 379.921 L 66.042 378.042 67.921 377.921 L 69.800 377.800 69.921 375.921 L 70.042 374.042 71.921 373.921 L 73.800 373.800 73.921 371.921 L 74.042 370.042 75.921 369.921 L 77.800 369.800 77.921 367.921 L 78.042 366.042 79.921 365.921 L 81.800 365.800 81.921 363.921 L 82.042 362.042 83.921 361.921 L 85.800 361.800 85.921 359.921 L 86.042 358.042 87.921 357.921 L 89.800 357.800 89.921 355.921 L 90.042 354.042 91.921 353.921 L 93.800 353.800 93.921 351.921 L 94.042 350.042 95.921 349.921 L 97.800 349.800 97.921 347.921 L 98.042 346.042 99.921 345.921 L 101.800 345.800 101.921 343.921 L 102.042 342.042 103.921 341.921 L 105.800 341.800 105.922 339.900 L 106.044 338.000 156.722 337.960 C 212.566 337.916,209.253 338.058,209.757 335.682 L 210.114 334.000 214.757 333.960 C 220.919 333.907,221.312 333.779,221.757 331.682 C 222.109 330.020,222.135 330.000,223.843 330.000 C 225.162 330.000,225.673 329.811,226.000 329.200 C 226.235 328.760,226.615 328.400,226.843 328.400 C 227.365 328.400,228.171 327.596,228.488 326.757 C 228.729 326.121,230.418 325.600,232.242 325.600 C 232.926 325.600,233.242 325.325,233.392 324.600 C 233.507 324.050,233.690 323.165,233.799 322.633 C 233.924 322.031,234.546 321.391,235.453 320.933 C 237.067 320.120,237.983 318.160,237.994 315.500 C 238.000 314.060,238.054 314.000,239.371 314.000 C 241.593 314.000,242.000 313.253,242.000 309.171 L 242.000 305.600 243.138 305.600 C 246.022 305.600,245.800 310.297,245.800 249.258 L 245.800 194.600 217.700 194.497 L 189.600 194.395 189.600 193.442 C 189.600 191.075,188.551 190.612,182.861 190.469 L 177.650 190.337 177.390 189.155 C 177.021 187.475,175.607 186.722,172.387 186.492 L 169.600 186.293 169.594 185.046 C 169.583 182.929,169.176 182.676,165.453 182.481 L 162.040 182.302 161.920 180.451 L 161.800 178.600 159.921 178.479 L 158.042 178.358 157.921 176.479 L 157.800 174.600 155.921 174.479 L 154.042 174.358 153.921 172.479 L 153.800 170.600 151.954 170.480 L 150.109 170.361 149.902 166.733 C 149.677 162.796,149.454 162.416,147.356 162.406 L 146.113 162.400 145.896 158.924 C 145.658 155.110,145.223 154.400,143.124 154.400 C 142.052 154.400,141.999 154.312,141.983 152.500 C 141.958 149.819,141.386 147.163,140.745 146.757 C 140.213 146.420,42.252 146.343,40.530 146.678 M118.400 199.138 C 118.400 201.289,119.431 201.710,125.204 201.919 L 130.400 202.106 130.400 203.806 C 130.400 205.635,130.860 205.982,133.300 205.995 C 134.024 205.998,134.400 206.212,134.400 206.620 C 134.400 208.235,135.596 209.600,137.010 209.600 C 138.309 209.600,138.401 209.685,138.413 210.900 C 138.429 212.548,139.218 213.598,140.444 213.606 C 141.943 213.616,142.335 214.080,142.472 216.007 L 142.600 217.800 144.400 218.000 L 146.200 218.200 146.417 224.600 C 146.677 232.292,147.110 233.553,149.500 233.587 L 150.400 233.600 150.400 241.949 L 150.400 250.298 148.867 250.543 C 146.735 250.884,146.400 251.844,146.400 257.607 L 146.400 262.377 145.100 262.706 C 143.366 263.145,142.401 265.065,142.401 268.078 L 142.400 270.356 140.500 270.478 L 138.600 270.600 138.478 272.500 L 138.356 274.400 136.378 274.400 L 134.400 274.400 134.400 276.378 L 134.400 278.356 132.500 278.478 L 130.600 278.600 130.485 282.049 C 130.350 286.095,130.216 285.986,135.300 285.995 L 138.400 286.000 138.400 287.757 C 138.400 289.989,138.396 289.988,145.133 290.051 C 149.598 290.092,150.333 290.176,149.146 290.510 C 147.266 291.038,146.400 292.774,146.400 296.014 L 146.400 298.400 144.200 298.400 C 142.068 298.400,142.000 298.366,141.995 297.300 C 141.980 294.444,141.912 294.400,137.451 294.400 C 133.413 294.400,133.393 294.395,132.900 293.300 C 131.939 291.167,130.064 290.400,125.806 290.400 L 122.000 290.400 122.000 289.174 C 122.000 286.398,122.006 286.400,113.586 286.400 L 106.000 286.400 105.995 285.300 C 105.980 282.473,105.874 282.400,101.753 282.400 L 98.000 282.400 98.000 281.033 C 98.000 278.771,97.693 278.400,95.824 278.400 L 94.134 278.400 93.767 276.500 C 93.403 274.617,93.384 274.599,91.700 274.477 C 90.153 274.365,90.000 274.257,89.995 273.277 C 89.982 270.862,89.631 270.400,87.809 270.400 L 86.111 270.400 85.903 266.753 C 85.677 262.790,85.457 262.416,83.344 262.406 L 82.088 262.400 81.942 255.060 C 81.783 247.015,81.647 246.534,79.470 246.323 C 78.046 246.185,77.128 241.200,78.527 241.200 C 81.035 241.200,81.652 239.119,81.960 229.600 L 82.200 222.200 83.598 222.067 C 85.623 221.875,86.000 221.384,86.000 218.938 C 86.000 217.246,86.152 216.717,86.700 216.510 C 87.590 216.173,88.400 215.378,88.400 214.843 C 88.400 214.615,88.760 214.235,89.200 214.000 C 89.814 213.671,90.000 213.162,90.000 211.808 L 90.000 210.044 91.900 209.922 L 93.800 209.800 93.920 207.957 L 94.039 206.114 97.089 205.856 C 100.496 205.568,101.600 204.915,101.600 203.188 L 101.600 202.101 106.100 201.912 C 111.224 201.696,112.976 201.020,113.358 199.111 C 113.710 197.352,118.400 197.377,118.400 199.138 M102.667 210.667 C 102.520 210.813,102.400 211.713,102.400 212.667 C 102.400 214.373,102.379 214.400,101.033 214.400 C 98.465 214.400,98.400 214.506,98.400 218.643 L 98.400 222.400 97.033 222.400 C 94.190 222.400,94.400 220.843,94.399 241.943 C 94.398 263.191,94.473 263.789,97.276 264.766 C 98.263 265.111,98.369 265.348,98.479 267.472 L 98.600 269.800 100.479 269.921 L 102.358 270.042 102.479 271.921 L 102.600 273.800 104.854 273.919 C 106.978 274.030,107.121 274.103,107.337 275.183 C 107.732 277.162,111.094 278.144,116.541 277.870 C 121.462 277.622,121.242 277.717,121.568 275.704 L 121.812 274.200 125.381 273.902 C 129.215 273.583,129.390 273.474,129.757 271.178 C 129.954 269.948,130.270 269.530,131.453 268.933 C 133.345 267.979,133.986 266.106,133.994 261.505 L 134.000 258.009 135.605 257.753 C 137.814 257.400,137.800 257.500,137.800 242.000 C 137.800 227.202,137.772 227.019,135.409 226.575 L 134.028 226.316 133.914 222.458 L 133.800 218.600 131.900 218.478 L 130.000 218.356 130.000 216.378 C 130.000 215.290,129.864 214.400,129.698 214.400 C 129.531 214.400,129.172 213.905,128.900 213.300 C 127.667 210.563,126.846 210.400,114.272 210.400 C 108.036 210.400,102.813 210.520,102.667 210.667 " stroke="none" fill="#000000" fill-rule="evenodd"></path><path id="path4" d="M174.400 1.200 C 174.400 2.390,174.380 2.400,172.100 2.440 C 168.562 2.501,167.899 2.796,167.010 4.704 C 166.297 6.235,166.082 6.400,164.790 6.400 C 162.964 6.400,162.400 6.985,162.400 8.880 C 162.400 10.344,162.349 10.400,161.033 10.400 C 158.767 10.400,158.400 10.705,158.400 12.592 C 158.400 14.260,158.366 14.303,156.867 14.543 C 154.912 14.856,154.400 15.909,154.400 19.619 L 154.400 22.400 153.029 22.400 C 150.521 22.400,150.400 22.797,150.400 31.017 L 150.400 38.377 149.100 38.706 C 146.225 39.434,146.401 35.997,146.401 91.238 C 146.400 146.214,146.172 141.752,149.000 142.067 L 150.200 142.200 150.309 149.782 C 150.429 158.084,150.397 157.984,152.900 157.994 L 154.400 158.000 154.400 161.757 C 154.400 165.889,154.468 166.000,157.011 166.000 C 158.332 166.000,158.358 166.034,158.478 167.900 L 158.600 169.800 160.479 169.921 L 162.358 170.042 162.479 171.921 L 162.600 173.800 164.500 173.922 L 166.400 174.044 166.400 175.779 C 166.400 177.692,166.761 178.000,169.000 178.000 C 170.145 178.000,170.438 178.213,171.067 179.500 C 172.022 181.454,173.501 181.948,178.476 181.977 L 182.352 182.000 182.476 183.491 C 182.697 186.141,179.443 185.988,235.500 185.994 L 286.400 186.000 286.400 187.167 C 286.400 189.108,286.768 189.546,288.635 189.826 C 290.239 190.067,290.400 190.193,290.400 191.213 C 290.400 193.105,290.778 193.548,292.635 193.826 C 294.239 194.067,294.400 194.193,294.400 195.213 C 294.400 197.105,294.778 197.548,296.635 197.826 C 298.239 198.067,298.400 198.193,298.400 199.213 C 298.400 201.105,298.778 201.548,300.635 201.826 C 302.239 202.067,302.400 202.193,302.400 203.213 C 302.400 205.105,302.778 205.548,304.635 205.826 C 306.239 206.067,306.400 206.193,306.400 207.213 C 306.400 209.105,306.778 209.548,308.635 209.826 C 310.239 210.067,310.400 210.193,310.400 211.213 C 310.400 213.105,310.778 213.548,312.635 213.826 C 314.239 214.067,314.400 214.193,314.400 215.213 C 314.400 217.105,314.778 217.548,316.635 217.826 C 318.239 218.067,318.400 218.193,318.400 219.213 C 318.400 221.105,318.778 221.548,320.635 221.826 C 322.239 222.067,322.400 222.193,322.400 223.213 C 322.400 225.105,322.778 225.548,324.635 225.826 C 326.239 226.067,326.400 226.193,326.400 227.213 C 326.400 229.105,326.778 229.548,328.635 229.826 C 330.239 230.067,330.400 230.193,330.400 231.213 C 330.400 233.105,330.778 233.548,332.635 233.826 C 334.239 234.067,334.400 234.193,334.400 235.213 C 334.400 237.105,334.778 237.548,336.635 237.826 C 338.239 238.067,338.400 238.193,338.400 239.213 C 338.400 241.105,338.778 241.548,340.635 241.826 C 342.288 242.074,342.400 242.170,342.406 243.345 C 342.417 245.666,342.712 245.800,347.776 245.796 C 354.542 245.790,353.779 249.592,353.915 215.186 L 354.030 186.000 357.606 186.000 C 361.062 186.000,361.205 185.963,361.891 184.907 C 363.549 182.351,363.865 182.215,368.665 182.000 C 373.727 181.773,373.591 181.835,373.886 179.633 C 374.098 178.055,374.155 178.000,375.591 178.000 C 378.026 178.000,381.200 176.162,381.200 174.752 C 381.200 174.185,381.633 173.970,383.189 173.764 C 385.253 173.490,385.289 173.450,385.798 170.920 C 385.987 169.979,386.433 169.449,387.481 168.920 C 389.055 168.126,389.983 166.143,389.994 163.553 C 390.000 162.163,390.065 162.097,391.633 161.886 C 393.832 161.591,393.782 161.700,393.937 156.941 C 394.050 153.485,394.191 152.702,394.737 152.496 C 395.545 152.190,396.400 151.379,396.400 150.917 C 396.400 150.731,396.760 150.270,397.200 149.893 C 398.016 149.194,398.447 34.508,397.644 31.600 C 397.414 30.765,397.090 30.580,395.684 30.477 L 394.000 30.354 394.000 26.377 C 394.000 23.992,393.840 22.400,393.600 22.400 C 393.380 22.400,393.200 22.065,393.200 21.655 C 393.200 20.791,391.349 18.800,390.545 18.800 C 390.178 18.800,390.000 18.290,390.000 17.233 C 390.000 14.745,389.730 14.400,387.779 14.400 L 386.044 14.400 385.922 12.500 L 385.800 10.600 383.921 10.479 L 382.042 10.358 381.921 8.479 L 381.800 6.600 379.900 6.478 C 378.200 6.369,378.000 6.256,378.000 5.404 C 378.000 2.716,377.538 2.400,373.610 2.400 L 370.000 2.400 370.000 1.200 L 370.000 0.000 272.200 0.000 L 174.400 0.000 174.400 1.200 M282.413 51.100 C 282.429 52.507,283.259 53.600,284.311 53.600 C 286.368 53.600,286.400 53.696,286.400 59.823 C 286.400 64.036,286.535 65.645,286.910 65.880 C 287.190 66.056,287.725 66.681,288.099 67.270 C 288.473 67.858,289.143 68.455,289.589 68.597 C 290.355 68.840,290.400 69.179,290.400 74.778 C 290.400 81.327,290.449 81.464,292.964 81.872 L 294.400 82.105 294.400 88.052 C 294.400 91.324,294.558 94.000,294.750 94.000 C 294.943 94.000,295.205 94.526,295.334 95.168 C 295.510 96.050,295.915 96.462,296.984 96.849 L 298.400 97.361 298.400 103.290 L 298.400 109.220 299.426 109.610 C 299.990 109.824,300.890 110.000,301.426 110.000 L 302.400 110.000 302.400 115.940 C 302.400 123.533,303.049 125.553,305.500 125.587 C 306.378 125.600,306.400 125.707,306.400 130.000 L 306.400 134.400 300.200 134.400 L 294.000 134.400 294.000 133.174 C 294.000 131.135,293.371 130.400,291.623 130.400 L 290.075 130.400 289.937 122.785 C 289.787 114.427,289.784 114.418,287.300 114.406 C 286.007 114.400,286.000 114.388,286.000 112.400 L 286.000 110.400 272.222 110.400 L 258.444 110.400 258.322 112.300 L 258.200 114.200 256.400 114.400 L 254.600 114.600 254.400 122.400 L 254.200 130.200 252.400 130.400 L 250.600 130.600 250.478 132.500 L 250.356 134.400 244.078 134.356 C 239.376 134.323,238.241 134.226,239.555 133.968 C 241.914 133.504,241.784 133.868,241.930 127.368 C 242.032 122.795,242.173 121.600,242.611 121.600 C 245.294 121.600,246.000 119.482,246.000 111.433 L 246.000 106.105 247.633 105.886 C 249.870 105.586,249.784 105.833,249.932 99.268 L 250.064 93.400 251.306 92.800 C 251.989 92.470,252.666 91.930,252.812 91.600 C 252.957 91.270,253.284 90.597,253.538 90.105 C 253.822 89.555,254.000 87.076,254.000 83.662 L 254.000 78.114 255.682 77.757 C 257.807 77.306,257.909 76.965,257.960 70.087 C 257.995 65.418,258.085 64.743,258.700 64.510 C 259.541 64.191,260.400 63.387,260.400 62.917 C 260.400 62.731,260.760 62.270,261.200 61.893 C 261.929 61.268,262.000 60.713,262.000 55.604 L 262.000 50.000 272.200 50.000 L 282.400 50.000 282.413 51.100 M270.930 58.711 C 270.671 58.876,270.401 59.728,270.330 60.605 C 270.202 62.175,270.172 62.203,268.400 62.400 L 266.600 62.600 266.490 69.100 C 266.405 74.113,266.261 75.600,265.860 75.600 C 265.224 75.600,263.600 77.271,263.600 77.926 C 263.600 78.187,263.330 78.400,263.000 78.400 C 262.485 78.400,262.400 79.627,262.400 87.040 L 262.400 95.679 261.139 96.857 L 259.877 98.035 261.139 99.337 C 261.832 100.052,262.400 100.945,262.400 101.319 C 262.400 102.444,284.983 102.354,285.586 101.226 C 287.232 98.150,285.632 88.900,283.205 87.467 L 282.021 86.767 281.910 80.683 L 281.800 74.600 279.900 74.478 L 278.000 74.356 278.000 67.404 C 278.000 58.327,278.029 58.398,274.310 58.406 C 272.709 58.409,271.188 58.547,270.930 58.711 M40.530 146.678 C 39.948 146.792,39.417 147.437,38.930 148.622 L 38.200 150.397 30.929 150.399 C 22.827 150.400,22.400 150.530,22.400 152.986 L 22.400 154.315 19.164 154.462 C 15.652 154.622,14.991 155.027,14.525 157.300 C 14.334 158.232,14.099 158.400,12.983 158.400 C 10.756 158.400,10.400 158.709,10.400 160.643 L 10.400 162.400 8.880 162.400 C 6.967 162.400,6.400 162.964,6.400 164.869 C 6.400 166.236,6.279 166.408,5.100 166.706 C 3.361 167.146,2.401 169.064,2.401 172.100 C 2.400 174.389,2.394 174.400,1.200 174.400 L 0.000 174.400 0.000 242.200 L 0.000 310.000 1.200 310.000 L 2.400 310.000 2.400 313.351 C 2.400 317.062,2.560 317.344,4.900 317.766 C 6.362 318.029,6.400 318.080,6.400 319.775 C 6.400 321.698,6.758 322.000,9.033 322.000 C 10.382 322.000,10.400 322.024,10.400 323.757 C 10.400 325.699,10.753 326.000,13.033 326.000 C 14.363 326.000,14.400 326.044,14.400 327.610 C 14.400 329.622,15.195 330.000,19.426 330.000 L 22.400 330.000 22.400 331.757 C 22.400 333.926,22.565 334.000,27.384 334.000 C 31.091 334.000,31.104 334.004,31.573 335.134 C 32.302 336.894,35.246 338.000,39.204 338.000 L 42.400 338.000 42.406 367.300 C 42.413 398.914,42.308 397.396,44.504 397.808 C 47.801 398.427,49.525 397.776,49.821 395.799 L 50.085 394.040 51.942 393.920 L 53.800 393.800 53.921 391.921 L 54.042 390.042 55.921 389.921 L 57.800 389.800 57.921 387.921 L 58.042 386.042 59.921 385.921 L 61.800 385.800 61.921 383.921 L 62.042 382.042 63.921 381.921 L 65.800 381.800 65.921 379.921 L 66.042 378.042 67.921 377.921 L 69.800 377.800 69.921 375.921 L 70.042 374.042 71.921 373.921 L 73.800 373.800 73.921 371.921 L 74.042 370.042 75.921 369.921 L 77.800 369.800 77.921 367.921 L 78.042 366.042 79.921 365.921 L 81.800 365.800 81.921 363.921 L 82.042 362.042 83.921 361.921 L 85.800 361.800 85.921 359.921 L 86.042 358.042 87.921 357.921 L 89.800 357.800 89.921 355.921 L 90.042 354.042 91.921 353.921 L 93.800 353.800 93.921 351.921 L 94.042 350.042 95.921 349.921 L 97.800 349.800 97.921 347.921 L 98.042 346.042 99.921 345.921 L 101.800 345.800 101.921 343.921 L 102.042 342.042 103.921 341.921 L 105.800 341.800 105.922 339.900 L 106.044 338.000 156.722 337.960 C 212.566 337.916,209.253 338.058,209.757 335.682 L 210.114 334.000 214.757 333.960 C 220.919 333.907,221.312 333.779,221.757 331.682 C 222.109 330.020,222.135 330.000,223.843 330.000 C 225.162 330.000,225.673 329.811,226.000 329.200 C 226.235 328.760,226.615 328.400,226.843 328.400 C 227.365 328.400,228.171 327.596,228.488 326.757 C 228.729 326.121,230.418 325.600,232.242 325.600 C 232.926 325.600,233.242 325.325,233.392 324.600 C 233.507 324.050,233.690 323.165,233.799 322.633 C 233.924 322.031,234.546 321.391,235.453 320.933 C 237.067 320.120,237.983 318.160,237.994 315.500 C 238.000 314.060,238.054 314.000,239.371 314.000 C 241.593 314.000,242.000 313.253,242.000 309.171 L 242.000 305.600 243.138 305.600 C 246.022 305.600,245.800 310.297,245.800 249.258 L 245.800 194.600 217.700 194.497 L 189.600 194.395 189.600 193.442 C 189.600 191.075,188.551 190.612,182.861 190.469 L 177.650 190.337 177.390 189.155 C 177.021 187.475,175.607 186.722,172.387 186.492 L 169.600 186.293 169.594 185.046 C 169.583 182.929,169.176 182.676,165.453 182.481 L 162.040 182.302 161.920 180.451 L 161.800 178.600 159.921 178.479 L 158.042 178.358 157.921 176.479 L 157.800 174.600 155.921 174.479 L 154.042 174.358 153.921 172.479 L 153.800 170.600 151.954 170.480 L 150.109 170.361 149.902 166.733 C 149.677 162.796,149.454 162.416,147.356 162.406 L 146.113 162.400 145.896 158.924 C 145.658 155.110,145.223 154.400,143.124 154.400 C 142.052 154.400,141.999 154.312,141.983 152.500 C 141.958 149.819,141.386 147.163,140.745 146.757 C 140.213 146.420,42.252 146.343,40.530 146.678 M118.400 199.138 C 118.400 201.289,119.431 201.710,125.204 201.919 L 130.400 202.106 130.400 203.806 C 130.400 205.635,130.860 205.982,133.300 205.995 C 134.024 205.998,134.400 206.212,134.400 206.620 C 134.400 208.235,135.596 209.600,137.010 209.600 C 138.309 209.600,138.401 209.685,138.413 210.900 C 138.429 212.548,139.218 213.598,140.444 213.606 C 141.943 213.616,142.335 214.080,142.472 216.007 L 142.600 217.800 144.400 218.000 L 146.200 218.200 146.417 224.600 C 146.677 232.292,147.110 233.553,149.500 233.587 L 150.400 233.600 150.400 241.949 L 150.400 250.298 148.867 250.543 C 146.735 250.884,146.400 251.844,146.400 257.607 L 146.400 262.377 145.100 262.706 C 143.366 263.145,142.401 265.065,142.401 268.078 L 142.400 270.356 140.500 270.478 L 138.600 270.600 138.478 272.500 L 138.356 274.400 136.378 274.400 L 134.400 274.400 134.400 276.378 L 134.400 278.356 132.500 278.478 L 130.600 278.600 130.485 282.049 C 130.350 286.095,130.216 285.986,135.300 285.995 L 138.400 286.000 138.400 287.757 C 138.400 289.989,138.396 289.988,145.133 290.051 C 149.598 290.092,150.333 290.176,149.146 290.510 C 147.266 291.038,146.400 292.774,146.400 296.014 L 146.400 298.400 144.200 298.400 C 142.068 298.400,142.000 298.366,141.995 297.300 C 141.980 294.444,141.912 294.400,137.451 294.400 C 133.413 294.400,133.393 294.395,132.900 293.300 C 131.939 291.167,130.064 290.400,125.806 290.400 L 122.000 290.400 122.000 289.174 C 122.000 286.398,122.006 286.400,113.586 286.400 L 106.000 286.400 105.995 285.300 C 105.980 282.473,105.874 282.400,101.753 282.400 L 98.000 282.400 98.000 281.033 C 98.000 278.771,97.693 278.400,95.824 278.400 L 94.134 278.400 93.767 276.500 C 93.403 274.617,93.384 274.599,91.700 274.477 C 90.153 274.365,90.000 274.257,89.995 273.277 C 89.982 270.862,89.631 270.400,87.809 270.400 L 86.111 270.400 85.903 266.753 C 85.677 262.790,85.457 262.416,83.344 262.406 L 82.088 262.400 81.942 255.060 C 81.783 247.015,81.647 246.534,79.470 246.323 C 78.046 246.185,77.128 241.200,78.527 241.200 C 81.035 241.200,81.652 239.119,81.960 229.600 L 82.200 222.200 83.598 222.067 C 85.623 221.875,86.000 221.384,86.000 218.938 C 86.000 217.246,86.152 216.717,86.700 216.510 C 87.590 216.173,88.400 215.378,88.400 214.843 C 88.400 214.615,88.760 214.235,89.200 214.000 C 89.814 213.671,90.000 213.162,90.000 211.808 L 90.000 210.044 91.900 209.922 L 93.800 209.800 93.920 207.957 L 94.039 206.114 97.089 205.856 C 100.496 205.568,101.600 204.915,101.600 203.188 L 101.600 202.101 106.100 201.912 C 111.224 201.696,112.976 201.020,113.358 199.111 C 113.710 197.352,118.400 197.377,118.400 199.138 M102.667 210.667 C 102.520 210.813,102.400 211.713,102.400 212.667 C 102.400 214.373,102.379 214.400,101.033 214.400 C 98.465 214.400,98.400 214.506,98.400 218.643 L 98.400 222.400 97.033 222.400 C 94.190 222.400,94.400 220.843,94.399 241.943 C 94.398 263.191,94.473 263.789,97.276 264.766 C 98.263 265.111,98.369 265.348,98.479 267.472 L 98.600 269.800 100.479 269.921 L 102.358 270.042 102.479 271.921 L 102.600 273.800 104.854 273.919 C 106.978 274.030,107.121 274.103,107.337 275.183 C 107.732 277.162,111.094 278.144,116.541 277.870 C 121.462 277.622,121.242 277.717,121.568 275.704 L 121.812 274.200 125.381 273.902 C 129.215 273.583,129.390 273.474,129.757 271.178 C 129.954 269.948,130.270 269.530,131.453 268.933 C 133.345 267.979,133.986 266.106,133.994 261.505 L 134.000 258.009 135.605 257.753 C 137.814 257.400,137.800 257.500,137.800 242.000 C 137.800 227.202,137.772 227.019,135.409 226.575 L 134.028 226.316 133.914 222.458 L 133.800 218.600 131.900 218.478 L 130.000 218.356 130.000 216.378 C 130.000 215.290,129.864 214.400,129.698 214.400 C 129.531 214.400,129.172 213.905,128.900 213.300 C 127.667 210.563,126.846 210.400,114.272 210.400 C 108.036 210.400,102.813 210.520,102.667 210.667 " stroke="none" fill="#000000" fill-rule="evenodd"></path></g></svg>