<svg id="svg" version="1.1" width="400" height="383.33333333333337" viewBox="0 0 400 383.33333333333337" xmlns="http://www.w3.org/2000/svg" xmlns:xlink="http://www.w3.org/1999/xlink" ><g id="svgg"><path id="path0" d="M155.457 47.821 C 154.135 48.079,153.390 49.232,153.246 51.242 C 153.173 52.273,153.185 52.685,153.274 52.157 C 153.749 49.326,154.676 48.380,157.430 47.912 C 158.964 47.651,158.964 47.651,157.622 47.655 C 156.884 47.658,155.910 47.732,155.457 47.821 M231.831 47.880 C 234.613 48.411,235.515 49.338,235.988 52.157 C 236.077 52.685,236.088 52.262,236.013 51.218 C 235.832 48.711,235.053 47.967,232.387 47.754 C 230.624 47.613,230.537 47.633,231.831 47.880 M107.016 70.218 C 104.715 70.669,103.880 71.589,103.697 73.878 L 103.547 75.743 104.168 73.744 C 104.740 71.899,104.925 71.695,106.565 71.092 C 107.965 70.577,109.704 69.644,108.897 69.841 C 108.802 69.864,107.956 70.033,107.016 70.218 M282.245 70.185 C 284.462 70.662,285.297 71.544,285.724 73.859 L 286.072 75.743 285.902 73.653 C 285.688 71.021,284.960 70.251,282.449 70.005 L 280.537 69.818 282.245 70.185 M214.471 87.440 C 214.471 88.178,214.549 88.480,214.646 88.111 C 214.742 87.742,214.742 87.138,214.646 86.769 C 214.549 86.400,214.471 86.702,214.471 87.440 M214.771 89.982 C 214.760 90.758,215.708 91.223,217.651 91.395 C 218.700 91.489,219.214 91.490,218.792 91.399 C 217.008 91.012,215.321 90.368,215.059 89.973 C 214.855 89.666,214.775 89.669,214.771 89.982 M157.674 92.182 C 157.550 93.889,155.969 95.883,154.384 96.332 C 152.193 96.954,151.908 97.343,153.864 97.041 C 156.842 96.580,158.367 94.799,157.894 92.336 C 157.768 91.682,157.714 91.643,157.674 92.182 M135.431 103.303 C 135.301 105.083,133.722 107.011,131.946 107.558 C 130.260 108.078,130.244 108.097,131.467 108.123 C 134.125 108.179,136.128 105.945,135.650 103.458 C 135.524 102.803,135.470 102.765,135.431 103.303 M253.532 103.656 C 253.447 106.436,255.130 108.182,257.839 108.123 C 258.963 108.098,258.915 108.052,257.243 107.537 C 255.405 106.972,254.616 106.043,253.858 103.550 L 253.565 102.589 253.532 103.656 M320.770 109.484 C 322.666 110.160,323.589 111.083,324.264 112.978 C 324.719 114.254,324.801 114.329,324.815 113.480 C 324.863 110.684,323.096 108.890,320.338 108.933 C 319.366 108.949,319.405 108.998,320.770 109.484 M166.579 114.551 C 165.277 114.806,164.545 115.916,164.332 117.957 C 164.113 120.057,164.330 119.870,164.704 117.639 C 164.987 115.947,166.156 115.025,168.506 114.641 C 170.029 114.391,170.038 114.382,168.744 114.386 C 168.006 114.388,167.031 114.463,166.579 114.551 M230.336 114.733 C 230.445 114.909,230.829 115.053,231.189 115.053 C 232.695 115.053,234.513 116.475,235.166 118.164 C 235.721 119.599,235.819 119.695,235.837 118.817 C 235.868 117.284,235.239 115.926,234.247 115.389 C 233.175 114.808,230.060 114.285,230.336 114.733 M243.099 125.791 C 245.562 126.320,246.522 127.090,246.802 128.760 C 247.177 131.002,247.392 131.175,247.170 129.056 C 246.911 126.584,246.165 125.883,243.528 125.631 C 241.467 125.434,241.457 125.438,243.099 125.791 M153.428 137.401 C 154.013 140.510,155.110 141.556,157.699 141.475 L 158.965 141.436 157.529 141.054 C 155.895 140.620,154.236 138.870,153.909 137.235 C 153.788 136.627,153.561 136.051,153.405 135.955 C 153.250 135.859,153.260 136.510,153.428 137.401 M286.898 137.460 C 287.474 140.545,288.504 141.554,291.013 141.488 C 291.933 141.464,291.883 141.403,290.548 140.913 C 288.525 140.172,288.223 139.868,287.628 137.973 C 286.900 135.654,286.509 135.379,286.898 137.460 M101.887 140.524 C 101.765 140.841,101.097 141.264,100.402 141.465 C 99.511 141.721,99.380 141.839,99.958 141.864 C 100.851 141.901,102.738 140.580,102.348 140.189 C 102.216 140.056,102.009 140.207,101.887 140.524 M337.296 142.223 C 340.112 142.760,340.741 143.438,341.447 146.692 C 341.538 147.114,341.538 146.596,341.447 145.542 C 341.230 143.022,340.483 142.307,337.852 142.097 C 336.089 141.956,336.002 141.976,337.296 142.223 M96.788 147.555 C 95.827 150.545,95.211 151.268,92.930 152.081 C 91.669 152.531,91.604 152.605,92.464 152.620 C 95.226 152.666,96.431 151.600,96.989 148.615 C 97.312 146.888,97.197 146.283,96.788 147.555 M164.542 148.073 C 164.492 151.063,166.179 152.637,169.435 152.637 C 172.859 152.637,174.499 151.620,174.495 149.498 C 174.494 148.695,174.420 148.731,173.720 149.879 C 171.529 153.472,166.572 152.724,165.094 148.578 C 164.639 147.301,164.557 147.225,164.542 148.073 M297.827 160.307 C 298.079 162.944,298.780 163.690,301.252 163.949 C 303.370 164.170,303.197 163.955,300.956 163.580 C 299.285 163.301,298.515 162.341,297.986 159.877 C 297.634 158.236,297.630 158.246,297.827 160.307 M343.432 159.828 C 344.894 160.365,345.509 160.848,346.020 161.858 L 346.691 163.183 346.692 161.946 C 346.692 160.425,345.522 159.547,343.159 159.296 L 341.515 159.122 343.432 159.828 M90.765 162.767 C 90.644 163.084,89.975 163.508,89.280 163.708 C 88.389 163.965,88.258 164.083,88.836 164.107 C 89.729 164.145,91.616 162.823,91.227 162.433 C 91.095 162.300,90.887 162.451,90.765 162.767 M43.912 164.419 C 42.750 164.705,42.183 165.298,42.210 166.202 L 42.235 167.018 42.567 166.195 C 42.989 165.150,43.334 164.945,45.344 164.548 C 46.607 164.299,46.718 164.226,45.829 164.228 C 45.197 164.230,44.334 164.316,43.912 164.419 M246.980 176.134 C 246.980 178.593,245.999 179.618,243.031 180.261 C 241.534 180.586,241.569 180.596,243.526 180.404 C 246.287 180.134,248.696 176.852,247.218 175.374 C 247.087 175.243,246.980 175.585,246.980 176.134 M86.029 182.934 C 86.029 184.305,86.098 184.866,86.183 184.180 C 86.269 183.495,86.269 182.373,86.183 181.687 C 86.098 181.002,86.029 181.563,86.029 182.934 M303.373 181.508 C 303.329 184.266,305.123 186.032,307.919 185.985 C 308.768 185.971,308.693 185.889,307.417 185.434 C 305.522 184.759,304.599 183.835,303.924 181.940 C 303.437 180.574,303.388 180.536,303.373 181.508 M85.587 186.232 C 85.382 188.799,84.183 190.138,81.306 191.013 L 80.345 191.305 81.412 191.338 C 84.312 191.428,86.096 189.578,85.797 186.791 C 85.717 186.040,85.622 185.789,85.587 186.232 M82.202 204.309 C 84.813 205.179,85.285 206.082,85.554 210.721 L 85.777 214.573 85.842 210.667 C 85.933 205.143,84.949 203.589,81.412 203.667 C 80.544 203.686,80.692 203.806,82.202 204.309 M305.657 214.715 C 303.805 215.183,303.414 215.656,303.237 217.642 C 303.143 218.696,303.141 219.214,303.232 218.792 C 303.920 215.620,304.090 215.476,308.150 214.630 C 308.591 214.538,308.429 214.471,307.766 214.471 C 307.133 214.472,306.184 214.581,305.657 214.715 M213.659 222.339 C 213.635 222.814,213.269 223.547,212.848 223.969 C 212.426 224.391,212.249 224.736,212.455 224.736 C 213.064 224.736,214.077 222.914,213.883 222.167 C 213.742 221.624,213.694 221.661,213.659 222.339 M181.175 224.736 C 181.268 225.264,181.466 226.533,181.614 227.557 C 181.907 229.587,183.160 230.521,185.510 230.462 C 186.479 230.437,186.437 230.385,185.043 229.885 C 183.170 229.214,181.793 227.730,181.756 226.345 C 181.742 225.777,181.566 224.966,181.367 224.545 C 181.048 223.869,181.025 223.892,181.175 224.736 M42.317 233.327 C 42.395 234.750,43.753 235.734,46.021 236.012 L 47.747 236.223 45.895 235.689 C 43.797 235.084,42.694 234.239,42.434 233.038 C 42.322 232.519,42.279 232.626,42.317 233.327 M177.514 254.079 C 176.366 254.703,176.039 255.324,175.659 257.606 C 175.345 259.493,175.829 259.486,176.184 257.598 C 176.477 256.032,178.068 254.456,179.866 253.948 L 181.208 253.569 179.866 253.549 C 179.128 253.539,178.069 253.777,177.514 254.079 M214.957 259.129 C 215.379 259.220,216.275 259.468,216.948 259.679 C 218.136 260.053,218.562 260.761,219.107 263.279 C 219.199 263.701,219.199 263.205,219.109 262.178 C 218.903 259.836,218.400 259.333,216.058 259.127 C 215.031 259.036,214.535 259.037,214.957 259.129 M53.334 264.928 C 53.279 267.544,55.128 269.281,57.871 269.190 L 58.869 269.157 57.850 268.850 C 55.595 268.168,54.439 267.158,53.895 265.393 C 53.377 263.714,53.360 263.700,53.334 264.928 M103.739 264.498 C 105.958 264.979,107.060 265.548,107.563 266.474 C 108.061 267.391,108.120 267.414,108.134 266.694 C 108.158 265.469,107.005 264.691,104.888 264.502 C 103.834 264.408,103.317 264.406,103.739 264.498 M59.048 276.204 C 59.512 279.208,60.701 280.384,63.208 280.318 C 64.128 280.294,64.079 280.233,62.744 279.744 C 60.693 278.992,60.284 278.582,59.765 276.752 C 59.135 274.536,58.744 274.237,59.048 276.204 M330.077 274.880 C 329.984 275.038,329.791 275.714,329.648 276.383 C 329.281 278.095,328.208 279.180,326.292 279.778 C 324.653 280.290,324.650 280.294,325.906 280.320 C 328.519 280.372,329.687 279.255,330.192 276.222 C 330.456 274.638,330.426 274.288,330.077 274.880 M219.014 275.908 C 218.936 278.807,218.055 279.797,214.957 280.469 C 214.535 280.560,215.041 280.560,216.082 280.467 C 218.499 280.254,220.151 277.550,219.246 275.288 C 219.135 275.011,219.031 275.290,219.014 275.908 M125.983 286.741 C 128.201 287.222,129.304 287.792,129.807 288.718 C 130.304 289.634,130.364 289.657,130.378 288.938 C 130.401 287.712,129.249 286.934,127.131 286.746 C 126.078 286.652,125.561 286.650,125.983 286.741 M260.969 287.400 C 259.636 287.981,258.851 289.427,258.908 291.197 L 258.948 292.426 259.320 291.027 C 259.773 289.330,260.987 288.126,262.955 287.424 C 264.393 286.912,264.401 286.898,263.279 286.897 C 262.646 286.896,261.607 287.122,260.969 287.400 M318.190 293.760 C 317.649 295.299,317.219 295.868,316.273 296.292 L 315.053 296.840 316.395 296.742 C 317.926 296.631,319.237 294.645,319.010 292.782 C 318.907 291.928,318.781 292.078,318.190 293.760 M243.230 298.200 C 242.761 298.528,242.378 298.993,242.378 299.232 C 242.378 299.471,242.602 299.361,242.876 298.986 C 243.150 298.611,243.970 298.165,244.698 297.993 C 245.788 297.736,245.851 297.675,245.052 297.642 C 244.519 297.621,243.699 297.872,243.230 298.200 M183.797 308.989 C 184.166 309.086,184.770 309.086,185.139 308.989 C 185.508 308.893,185.206 308.814,184.468 308.814 C 183.730 308.814,183.428 308.893,183.797 308.989 M205.081 309.002 C 205.767 309.087,206.889 309.087,207.574 309.002 C 208.260 308.917,207.699 308.848,206.328 308.848 C 204.957 308.848,204.396 308.917,205.081 309.002 M190.316 309.395 C 192.795 309.462,196.850 309.462,199.329 309.395 C 201.807 309.328,199.779 309.273,194.823 309.273 C 189.866 309.273,187.838 309.328,190.316 309.395 M274.104 331.749 C 273.700 333.690,272.879 334.679,271.236 335.204 C 269.070 335.896,268.921 336.295,270.971 335.912 C 273.622 335.417,274.814 333.930,274.519 331.489 C 274.388 330.414,274.380 330.419,274.104 331.749 M262.745 337.984 C 262.156 340.011,261.160 340.940,259.573 340.940 C 259.000 340.940,258.439 341.088,258.326 341.270 C 258.213 341.453,258.842 341.460,259.742 341.286 C 260.633 341.114,261.586 340.965,261.860 340.956 C 262.529 340.934,263.543 338.429,263.397 337.161 C 263.298 336.312,263.191 336.447,262.745 337.984 M164.549 350.336 C 164.536 351.148,165.142 352.355,165.409 352.050 C 165.496 351.951,165.341 351.352,165.064 350.719 C 164.682 349.847,164.557 349.754,164.549 350.336 M224.081 350.925 C 223.845 351.550,223.807 352.061,223.995 352.061 C 224.356 352.061,224.943 350.223,224.669 349.949 C 224.582 349.861,224.317 350.301,224.081 350.925 M168.265 352.716 C 168.739 352.807,169.516 352.807,169.990 352.716 C 170.465 352.624,170.077 352.549,169.128 352.549 C 168.178 352.549,167.790 352.624,168.265 352.716 M219.085 352.720 C 219.668 352.808,220.531 352.806,221.002 352.715 C 221.474 352.624,220.997 352.552,219.942 352.555 C 218.888 352.557,218.502 352.632,219.085 352.720 " stroke="none" fill="#000000" fill-rule="evenodd"></path><path id="path1" d="M157.814 47.931 C 154.572 48.384,153.404 49.498,153.404 52.138 L 153.404 53.308 156.088 53.308 L 158.773 53.308 158.779 51.103 C 158.783 49.537,158.892 49.064,159.156 49.473 C 159.514 50.026,159.611 49.897,159.696 48.749 C 159.719 48.438,160.281 48.158,161.048 48.074 C 161.770 47.995,162.445 47.846,162.548 47.743 C 162.797 47.494,160.207 47.597,157.814 47.931 M228.646 47.968 C 229.365 48.249,229.607 48.558,229.443 48.985 C 229.290 49.385,229.360 49.505,229.646 49.328 C 230.060 49.072,230.629 50.385,230.467 51.223 C 230.109 53.085,230.398 53.308,233.174 53.308 L 235.858 53.308 235.858 52.138 C 235.858 49.267,234.364 48.133,230.105 47.775 C 228.118 47.608,227.822 47.647,228.646 47.968 M138.217 53.601 C 137.060 54.373,136.095 58.677,137.077 58.677 C 137.384 58.677,137.758 58.478,137.908 58.234 C 138.094 57.934,138.009 57.896,137.643 58.116 C 137.184 58.392,137.183 58.344,137.631 57.792 C 137.920 57.435,138.447 57.143,138.801 57.143 C 139.642 57.143,140.364 56.399,140.364 55.532 C 140.364 55.152,140.617 54.842,140.926 54.842 C 141.235 54.842,141.673 54.497,141.898 54.075 C 142.329 53.271,139.296 52.881,138.217 53.601 M247.363 53.926 C 247.363 54.289,247.470 54.479,247.601 54.349 C 247.922 54.027,248.897 55.041,248.897 55.696 C 248.897 56.416,249.683 57.143,250.461 57.143 C 250.815 57.143,251.341 57.435,251.631 57.792 C 251.989 58.233,252.004 58.348,251.678 58.153 C 251.414 57.994,251.198 58.047,251.198 58.271 C 251.198 58.494,251.546 58.677,251.970 58.677 C 252.931 58.677,252.699 56.023,251.602 54.458 C 250.740 53.230,247.363 52.806,247.363 53.926 M139.896 55.956 C 139.833 56.288,139.494 56.614,139.144 56.681 C 138.648 56.777,138.396 55.826,138.801 55.385 C 139.102 55.057,139.981 55.515,139.896 55.956 M250.657 56.142 C 250.784 57.012,249.528 56.799,249.359 55.923 C 249.278 55.503,249.462 55.320,249.898 55.384 C 250.262 55.437,250.603 55.778,250.657 56.142 M127.709 58.994 C 127.709 59.168,128.226 59.235,128.859 59.142 C 129.492 59.049,130.010 58.907,130.010 58.825 C 130.010 58.744,129.492 58.677,128.859 58.677 C 128.226 58.677,127.709 58.820,127.709 58.994 M126.187 59.621 C 125.931 59.929,125.648 60.921,125.558 61.826 L 125.395 63.471 125.928 61.606 C 126.222 60.580,126.699 59.590,126.989 59.406 C 127.295 59.213,127.335 59.070,127.084 59.066 C 126.847 59.063,126.443 59.313,126.187 59.621 M115.129 64.890 C 114.876 65.143,114.674 65.617,114.681 65.944 C 114.690 66.385,114.805 66.341,115.127 65.772 C 115.367 65.350,115.750 64.878,115.979 64.723 C 116.257 64.535,116.262 64.439,115.992 64.435 C 115.771 64.432,115.383 64.637,115.129 64.890 M273.058 64.563 C 273.058 64.636,273.404 65.094,273.826 65.580 C 274.346 66.180,274.593 66.285,274.593 65.907 C 274.593 65.306,273.864 64.430,273.365 64.430 C 273.197 64.430,273.058 64.489,273.058 64.563 M114.286 67.689 C 114.286 68.217,114.352 68.648,114.433 68.648 C 114.514 68.648,114.662 68.217,114.763 67.689 C 114.864 67.162,114.798 66.731,114.616 66.731 C 114.434 66.731,114.286 67.162,114.286 67.689 M274.499 67.689 C 274.599 68.217,274.748 68.648,274.829 68.648 C 274.910 68.648,274.976 68.217,274.976 67.689 C 274.976 67.162,274.827 66.731,274.646 66.731 C 274.464 66.731,274.398 67.162,274.499 67.689 M280.334 70.360 C 280.573 70.648,280.773 71.934,280.780 73.218 L 280.791 75.551 283.252 75.551 L 285.714 75.551 285.709 74.305 C 285.697 71.750,284.436 70.516,281.369 70.057 C 280.156 69.875,279.975 69.928,280.334 70.360 M107.958 70.578 C 107.536 70.743,106.647 71.080,105.982 71.328 C 104.902 71.730,103.931 73.629,103.931 75.338 C 103.931 75.455,104.952 75.551,106.199 75.551 L 108.468 75.551 108.608 72.963 C 108.686 71.539,108.743 70.352,108.737 70.326 C 108.730 70.299,108.380 70.413,107.958 70.578 M98.189 76.114 C 97.372 77.098,97.950 77.388,98.863 76.451 C 99.464 75.834,99.569 75.551,99.198 75.551 C 98.900 75.551,98.446 75.804,98.189 76.114 M97.411 78.811 C 97.411 79.338,97.477 79.770,97.558 79.770 C 97.639 79.770,97.788 79.338,97.889 78.811 C 97.989 78.284,97.923 77.852,97.742 77.852 C 97.560 77.852,97.411 78.284,97.411 78.811 M173.346 86.796 C 173.346 86.984,173.648 87.023,174.017 86.882 C 174.576 86.669,174.560 86.745,173.921 87.340 C 173.500 87.733,172.836 88.176,172.447 88.324 C 172.058 88.473,171.649 88.939,171.539 89.360 C 171.429 89.780,171.090 90.125,170.786 90.125 C 170.445 90.125,170.344 90.309,170.521 90.604 C 170.716 90.930,170.601 90.915,170.160 90.557 C 169.702 90.186,169.511 90.164,169.511 90.484 C 169.511 90.733,169.382 90.859,169.223 90.763 C 169.065 90.667,168.689 90.855,168.388 91.181 C 167.896 91.712,168.087 91.745,170.241 91.502 C 173.635 91.118,174.495 90.653,174.502 89.200 C 174.505 88.549,174.609 87.636,174.733 87.173 C 174.916 86.491,174.805 86.343,174.152 86.392 C 173.709 86.425,173.346 86.607,173.346 86.796 M214.771 87.919 C 214.778 89.949,215.005 90.293,216.683 90.815 C 218.019 91.230,222.801 91.889,222.435 91.607 C 222.330 91.525,221.815 91.115,221.291 90.696 C 220.675 90.202,220.472 90.142,220.716 90.526 C 220.923 90.853,220.781 90.778,220.400 90.361 C 220.019 89.944,219.735 89.159,219.770 88.617 C 219.918 86.274,219.934 86.290,217.258 86.290 L 214.765 86.290 214.771 87.919 M172.675 89.294 C 171.910 90.095,171.612 90.049,171.944 89.182 C 172.069 88.857,172.436 88.591,172.759 88.591 C 173.256 88.591,173.243 88.699,172.675 89.294 M152.613 92.713 C 152.600 93.293,152.503 94.518,152.398 95.435 C 152.293 96.351,152.347 97.016,152.518 96.912 C 152.689 96.807,153.548 96.529,154.427 96.293 C 155.969 95.880,157.622 93.716,157.622 92.113 C 157.622 90.968,152.639 91.566,152.613 92.713 M130.393 105.273 C 130.393 106.644,130.523 107.765,130.681 107.764 C 132.402 107.751,133.848 106.851,134.582 105.334 C 135.769 102.882,135.702 102.780,132.886 102.780 L 130.393 102.780 130.393 105.273 M253.891 103.260 C 253.931 105.523,256.247 107.747,258.581 107.764 C 258.739 107.765,258.869 106.644,258.869 105.273 L 258.869 102.780 256.376 102.780 C 254.633 102.780,253.886 102.925,253.891 103.260 M72.953 103.613 C 73.163 104.244,74.711 104.291,74.948 103.674 C 75.084 103.318,74.790 103.164,73.973 103.164 C 73.249 103.164,72.860 103.335,72.953 103.613 M314.861 103.312 C 314.861 103.394,315.379 103.536,316.012 103.629 C 316.644 103.722,317.162 103.655,317.162 103.481 C 317.162 103.307,316.644 103.164,316.012 103.164 C 315.379 103.164,314.861 103.231,314.861 103.312 M70.817 104.249 C 69.513 105.690,70.341 106.457,71.716 105.081 C 72.138 104.660,72.483 104.142,72.483 103.931 C 72.483 103.306,71.500 103.493,70.817 104.249 M317.779 104.093 C 318.007 104.688,319.080 105.240,319.080 104.763 C 319.080 104.381,318.246 103.547,317.864 103.547 C 317.702 103.547,317.664 103.793,317.779 104.093 M318.998 106.616 C 319.091 107.248,319.233 107.766,319.315 107.766 C 319.396 107.766,319.463 107.248,319.463 106.616 C 319.463 105.983,319.320 105.465,319.146 105.465 C 318.972 105.465,318.905 105.983,318.998 106.616 M69.799 107.557 C 69.799 108.691,69.892 108.860,70.304 108.474 C 70.912 107.907,70.876 106.527,70.248 106.318 C 69.960 106.222,69.799 106.666,69.799 107.557 M181.822 109.611 C 181.180 110.810,180.819 114.453,181.376 114.109 C 181.637 113.947,181.765 113.490,181.661 113.091 C 181.549 112.663,181.731 112.215,182.107 111.995 C 182.630 111.690,182.641 111.620,182.167 111.601 C 181.724 111.583,181.751 111.485,182.287 111.173 C 182.670 110.951,183.133 110.395,183.318 109.938 C 183.623 109.182,183.654 109.174,183.677 109.853 C 183.701 110.590,183.707 110.590,184.305 109.853 C 184.637 109.443,184.776 109.367,184.614 109.684 C 184.372 110.159,184.423 110.176,184.909 109.783 C 185.232 109.521,185.611 109.420,185.750 109.559 C 185.888 109.698,186.002 109.637,186.002 109.425 C 186.002 108.666,182.238 108.834,181.822 109.611 M217.674 109.210 C 217.903 109.365,218.286 109.837,218.525 110.259 C 218.848 110.828,218.963 110.872,218.972 110.431 C 218.985 109.752,218.257 108.914,217.661 108.922 C 217.391 108.926,217.396 109.022,217.674 109.210 M319.463 111.751 L 319.463 114.286 321.541 114.286 C 322.684 114.286,323.896 114.392,324.235 114.522 C 324.787 114.734,324.780 114.567,324.171 112.932 C 323.453 111.007,322.268 109.884,320.518 109.468 L 319.463 109.217 319.463 111.751 M218.890 112.176 C 218.991 112.704,219.139 113.135,219.220 113.135 C 219.301 113.135,219.367 112.704,219.367 112.176 C 219.367 111.649,219.219 111.218,219.037 111.218 C 218.855 111.218,218.789 111.649,218.890 112.176 M168.552 114.642 C 165.704 115.126,164.525 116.317,164.525 118.711 C 164.525 119.602,164.622 119.635,167.210 119.610 L 169.895 119.585 169.895 117.677 C 169.895 116.628,170.073 115.436,170.292 115.028 C 170.510 114.620,170.553 114.307,170.387 114.334 C 170.222 114.360,169.396 114.499,168.552 114.642 M230.259 115.282 C 230.385 115.612,230.489 116.731,230.489 117.769 L 230.489 119.655 232.989 119.655 L 235.489 119.655 235.237 118.600 C 234.728 116.470,234.218 116.015,231.313 115.091 C 230.205 114.738,230.060 114.765,230.259 115.282 M61.831 120.104 C 62.041 120.734,63.590 120.782,63.826 120.165 C 63.963 119.809,63.668 119.655,62.851 119.655 C 62.128 119.655,61.738 119.826,61.831 120.104 M236.461 120.165 C 236.698 120.782,238.247 120.734,238.457 120.104 C 238.549 119.826,238.160 119.655,237.436 119.655 C 236.620 119.655,236.325 119.809,236.461 120.165 M327.285 120.051 C 328.107 120.261,329.099 120.802,329.490 121.253 C 330.027 121.872,330.201 121.929,330.201 121.486 C 330.201 120.569,329.229 119.983,327.436 119.819 L 325.791 119.668 327.285 120.051 M59.695 120.740 C 59.035 121.469,58.830 122.723,59.371 122.723 C 59.959 122.723,60.901 121.762,61.157 120.901 C 61.478 119.821,60.613 119.725,59.695 120.740 M239.131 120.901 C 239.579 122.410,241.238 123.326,241.215 122.052 C 241.198 121.106,240.304 120.038,239.529 120.038 C 239.030 120.038,238.935 120.243,239.131 120.901 M330.107 123.298 C 330.208 123.826,330.357 124.257,330.438 124.257 C 330.519 124.257,330.585 123.826,330.585 123.298 C 330.585 122.771,330.436 122.339,330.255 122.339 C 330.073 122.339,330.007 122.771,330.107 123.298 M58.677 124.272 C 58.677 125.233,58.768 125.353,59.194 124.955 C 59.479 124.689,59.631 124.164,59.533 123.789 C 59.245 122.686,58.677 123.007,58.677 124.272 M240.737 123.855 C 240.630 124.267,240.734 124.668,240.969 124.746 C 241.216 124.828,241.460 126.125,241.544 127.802 L 241.691 130.715 243.985 130.726 C 245.246 130.732,246.514 130.932,246.802 131.171 C 247.371 131.644,247.215 129.612,246.542 127.786 C 246.189 126.828,244.131 125.791,242.582 125.791 C 241.728 125.791,241.611 125.629,241.611 124.449 C 241.611 123.005,241.058 122.629,240.737 123.855 M56.002 131.169 C 53.648 131.722,51.804 136.595,54.011 136.429 C 54.398 136.399,54.714 136.144,54.714 135.861 C 54.714 135.577,54.484 135.434,54.203 135.542 C 53.046 135.986,53.795 135.296,55.030 134.780 C 55.936 134.401,56.549 133.789,56.928 132.882 C 57.444 131.647,58.133 130.898,57.690 132.055 C 57.582 132.336,57.724 132.566,58.007 132.566 C 58.289 132.566,58.554 132.164,58.594 131.671 C 58.675 130.693,58.317 130.624,56.002 131.169 M331.735 130.924 C 331.735 131.005,332.167 131.153,332.694 131.254 C 333.221 131.355,333.653 131.289,333.653 131.107 C 333.653 130.925,333.221 130.777,332.694 130.777 C 332.167 130.777,331.735 130.843,331.735 130.924 M334.886 132.060 C 335.368 132.555,335.822 132.808,335.894 132.622 C 336.085 132.136,335.188 131.160,334.551 131.160 C 334.180 131.160,334.285 131.443,334.886 132.060 M56.243 133.636 C 56.119 133.962,55.752 134.228,55.429 134.228 C 54.932 134.228,54.945 134.120,55.513 133.525 C 56.278 132.724,56.576 132.769,56.243 133.636 M102.021 136.141 C 101.720 136.327,101.366 136.411,101.233 136.329 C 101.100 136.247,100.991 136.438,100.991 136.754 C 100.991 137.111,101.221 137.250,101.598 137.120 C 102.077 136.955,102.063 137.022,101.534 137.433 C 101.165 137.721,100.857 138.110,100.851 138.297 C 100.844 138.485,100.564 138.984,100.228 139.406 C 99.625 140.162,99.619 140.161,99.820 139.309 C 99.933 138.834,99.868 138.542,99.677 138.661 C 99.485 138.779,99.329 139.045,99.329 139.252 C 99.329 139.460,98.973 140.010,98.538 140.476 C 97.851 141.212,97.784 141.227,98.028 140.589 C 98.224 140.076,98.173 139.939,97.860 140.132 C 96.613 140.903,97.386 141.911,99.041 141.673 C 101.122 141.374,102.221 140.190,102.569 137.872 C 102.870 135.863,102.805 135.657,102.021 136.141 M154.035 137.479 C 154.706 139.448,155.845 140.573,157.526 140.929 L 158.773 141.192 158.773 138.669 L 158.773 136.146 156.759 136.116 C 155.652 136.100,154.460 136.032,154.111 135.964 C 153.531 135.851,153.525 135.981,154.035 137.479 M287.554 137.698 C 288.209 139.745,288.944 140.472,290.796 140.901 L 291.850 141.146 291.850 138.646 L 291.850 136.146 289.964 136.146 C 288.927 136.146,287.816 136.045,287.497 135.923 C 286.989 135.728,286.996 135.952,287.554 137.698 M184.660 142.282 C 184.529 142.493,184.618 142.665,184.856 142.665 C 185.434 142.665,184.508 143.579,183.569 143.935 C 183.179 144.083,182.771 144.548,182.661 144.968 C 182.551 145.389,182.170 145.733,181.815 145.733 C 181.128 145.733,180.249 146.435,180.249 146.984 C 180.249 147.963,185.074 146.513,185.367 145.446 C 186.156 142.572,185.711 140.581,184.660 142.282 M335.954 144.929 L 335.954 147.577 337.776 147.762 C 339.863 147.974,340.562 148.132,341.205 148.533 C 341.715 148.852,341.546 146.890,340.873 144.672 C 340.441 143.252,338.920 142.282,337.124 142.282 L 335.954 142.282 335.954 144.929 M183.797 144.903 C 183.032 145.704,182.734 145.658,183.066 144.791 C 183.191 144.466,183.558 144.199,183.881 144.199 C 184.377 144.199,184.365 144.308,183.797 144.903 M94.247 147.168 L 91.659 147.303 91.659 149.819 L 91.659 152.336 92.713 152.086 C 94.454 151.672,95.648 150.549,96.350 148.666 C 96.715 147.686,96.974 146.918,96.925 146.959 C 96.876 147.000,95.671 147.095,94.247 147.168 M164.909 147.626 C 164.909 153.074,173.005 153.673,174.320 148.322 L 174.580 147.267 169.744 147.267 C 167.001 147.267,164.909 147.423,164.909 147.626 M214.513 155.896 C 214.514 157.584,214.582 158.227,214.663 157.324 C 214.744 156.422,214.743 155.042,214.660 154.256 C 214.578 153.471,214.512 154.209,214.513 155.896 M297.876 158.389 C 298.267 162.325,299.378 163.758,302.038 163.758 C 302.937 163.758,302.972 163.660,302.972 161.123 L 302.972 158.488 300.661 158.227 C 299.126 158.053,298.437 157.824,298.611 157.543 C 298.762 157.299,298.697 157.228,298.458 157.376 C 298.231 157.517,297.960 157.328,297.856 156.956 C 297.752 156.584,297.761 157.229,297.876 158.389 M90.965 158.245 C 90.688 158.544,90.329 158.707,90.166 158.606 C 90.002 158.505,89.869 158.682,89.869 158.998 C 89.869 159.319,90.094 159.486,90.380 159.377 C 91.322 159.015,90.905 159.456,89.549 160.256 C 88.811 160.692,88.207 161.234,88.207 161.460 C 88.207 161.687,87.851 162.254,87.416 162.720 C 86.729 163.455,86.663 163.470,86.906 162.833 C 87.102 162.320,87.052 162.182,86.738 162.376 C 85.492 163.146,86.265 164.155,87.919 163.917 C 90.072 163.608,91.123 162.425,91.467 159.923 C 91.770 157.721,91.691 157.457,90.965 158.245 M341.783 161.855 C 341.905 164.408,341.774 164.255,344.199 164.675 C 345.731 164.940,346.416 165.372,345.861 165.723 C 345.466 165.974,345.496 166.049,345.997 166.054 C 346.406 166.057,346.703 166.447,346.804 167.114 C 346.892 167.694,346.883 167.133,346.783 165.868 C 346.439 161.501,345.757 160.462,342.742 159.714 L 341.668 159.447 341.783 161.855 M89.280 161.440 C 88.750 162.287,88.378 162.182,88.723 161.282 C 88.848 160.957,89.129 160.690,89.349 160.690 C 89.601 160.690,89.576 160.965,89.280 161.440 M46.213 164.445 C 44.351 164.625,43.082 165.278,42.619 166.295 C 42.058 167.527,42.038 173.730,42.595 173.730 C 42.838 173.730,42.899 173.398,42.746 172.915 C 42.573 172.370,42.627 172.186,42.908 172.359 C 43.180 172.527,43.239 172.387,43.075 171.961 C 42.890 171.479,42.959 171.387,43.331 171.617 C 43.658 171.819,43.747 171.782,43.579 171.511 C 43.437 171.281,43.626 170.914,44.000 170.697 C 44.513 170.398,44.541 170.299,44.114 170.290 C 43.737 170.282,43.835 170.078,44.412 169.674 C 44.886 169.342,45.485 169.156,45.743 169.260 C 46.017 169.371,45.937 169.463,45.554 169.481 C 45.115 169.501,44.973 169.714,45.128 170.118 C 45.256 170.453,45.466 170.559,45.595 170.355 C 45.724 170.150,46.174 169.919,46.596 169.840 C 47.162 169.734,47.392 169.345,47.472 168.357 C 47.553 167.350,47.483 167.161,47.190 167.593 C 46.975 167.910,46.797 167.988,46.794 167.766 C 46.791 167.545,46.973 167.178,47.200 166.952 C 48.123 166.028,47.453 164.325,46.213 164.445 M211.783 164.591 C 211.992 165.219,213.372 165.255,213.939 164.648 C 214.325 164.235,214.156 164.142,213.022 164.142 C 212.131 164.142,211.687 164.303,211.783 164.591 M209.647 165.227 C 208.815 166.146,208.796 167.375,209.619 167.059 C 209.953 166.931,210.427 166.824,210.674 166.821 C 210.977 166.817,210.961 166.712,210.624 166.499 C 210.227 166.247,210.246 166.084,210.720 165.691 C 211.046 165.420,211.314 165.047,211.314 164.862 C 211.314 164.277,210.307 164.497,209.647 165.227 M46.181 168.114 C 46.048 168.460,45.699 168.744,45.405 168.744 C 44.998 168.744,45.031 168.576,45.542 168.041 C 46.328 167.218,46.516 167.239,46.181 168.114 M208.629 168.763 C 208.629 169.834,207.909 170.261,206.083 170.273 C 204.709 170.282,203.745 171.464,203.500 173.442 C 203.276 175.253,203.905 176.009,204.642 174.815 C 204.836 174.502,204.698 174.451,204.186 174.647 C 203.490 174.913,203.492 174.890,204.219 174.213 C 204.640 173.821,205.304 173.378,205.693 173.229 C 206.082 173.080,206.491 172.614,206.601 172.194 C 206.714 171.762,207.124 171.429,207.543 171.429 C 208.023 171.429,208.427 171.022,208.686 170.278 C 208.907 169.645,209.206 169.128,209.351 169.128 C 209.496 169.128,209.615 168.811,209.615 168.424 C 209.615 168.038,209.393 167.721,209.122 167.721 C 208.841 167.721,208.629 168.170,208.629 168.763 M206.196 172.371 C 206.071 172.696,205.704 172.963,205.381 172.963 C 204.884 172.963,204.897 172.854,205.465 172.260 C 206.230 171.458,206.528 171.504,206.196 172.371 M246.730 174.900 C 246.508 175.122,245.266 175.308,243.969 175.314 L 241.611 175.326 241.611 177.787 C 241.611 182.338,246.343 180.738,247.091 175.935 C 247.337 174.359,247.320 174.310,246.730 174.900 M303.098 177.515 C 303.605 182.360,305.023 184.822,307.670 185.451 L 308.725 185.702 308.725 182.998 C 308.725 180.432,308.329 179.338,307.745 180.284 C 307.556 180.589,307.382 180.563,307.149 180.194 C 306.879 179.769,306.811 179.779,306.775 180.249 C 306.751 180.566,306.612 180.399,306.467 179.880 C 306.308 179.308,305.831 178.847,305.259 178.712 C 304.740 178.589,304.314 178.295,304.314 178.059 C 304.314 177.822,304.157 177.485,303.965 177.309 C 303.758 177.119,303.744 177.223,303.931 177.565 C 304.115 177.901,304.103 178.009,303.901 177.825 C 303.467 177.428,303.446 176.297,303.867 175.988 C 304.043 175.859,303.889 175.639,303.524 175.499 C 302.926 175.270,302.884 175.469,303.098 177.515 M85.906 177.479 C 85.906 177.924,85.522 178.557,85.054 178.885 C 84.585 179.214,84.378 179.482,84.593 179.482 C 84.809 179.482,85.228 179.267,85.523 179.003 C 85.981 178.595,85.985 178.624,85.553 179.195 C 85.274 179.564,84.678 179.878,84.229 179.893 C 83.433 179.919,83.432 179.928,84.180 180.249 C 84.732 180.486,84.329 180.586,82.742 180.606 L 80.537 180.633 80.537 185.810 C 80.537 191.554,80.469 191.437,83.099 190.243 C 84.391 189.656,84.785 189.229,85.126 188.046 C 85.624 186.318,86.438 177.202,86.123 176.887 C 86.004 176.767,85.906 177.034,85.906 177.479 M229.296 192.279 C 229.768 192.848,229.380 193.333,228.083 193.796 C 227.709 193.929,227.287 194.344,227.144 194.718 C 227.001 195.092,226.563 195.743,226.170 196.165 C 225.576 196.803,225.499 196.820,225.712 196.261 C 225.854 195.892,225.815 195.590,225.626 195.590 C 225.437 195.590,225.257 195.935,225.225 196.357 C 225.165 197.157,227.792 197.505,228.802 196.830 C 230.214 195.887,230.952 191.755,229.709 191.755 C 229.035 191.755,228.950 191.862,229.296 192.279 M228.284 194.759 C 227.519 195.560,227.221 195.514,227.553 194.647 C 227.678 194.322,228.045 194.056,228.368 194.056 C 228.865 194.056,228.852 194.164,228.284 194.759 M80.537 209.290 C 80.537 214.712,80.669 215.451,81.511 214.752 C 81.845 214.475,82.051 214.544,82.221 214.987 C 82.363 215.357,82.702 215.519,83.053 215.385 C 83.392 215.255,83.545 215.320,83.411 215.537 C 83.282 215.745,83.532 215.916,83.966 215.916 C 84.400 215.916,84.777 216.088,84.803 216.299 C 84.830 216.510,84.873 216.841,84.899 217.034 C 84.926 217.228,85.104 217.530,85.296 217.705 C 85.504 217.895,85.518 217.791,85.331 217.450 C 85.147 217.114,85.159 217.005,85.360 217.189 C 85.823 217.612,85.806 218.725,85.331 219.074 C 85.097 219.246,85.143 219.358,85.449 219.361 C 85.725 219.365,85.845 219.540,85.714 219.751 C 85.584 219.962,85.681 220.134,85.931 220.134 C 86.256 220.134,86.315 219.508,86.141 217.929 C 86.007 216.716,85.756 213.739,85.583 211.313 C 85.173 205.557,84.870 205.031,81.479 204.180 L 80.537 203.944 80.537 209.290 M181.150 217.066 C 181.150 218.859,181.216 219.593,181.297 218.696 C 181.378 217.800,181.378 216.333,181.297 215.436 C 181.216 214.540,181.150 215.273,181.150 217.066 M305.382 215.240 C 304.500 215.523,304.040 215.976,303.770 216.830 C 303.301 218.311,302.775 223.868,303.136 223.532 C 303.281 223.397,303.443 222.872,303.497 222.365 C 303.639 221.036,304.054 220.521,305.008 220.491 C 305.818 220.465,305.821 220.452,305.081 220.134 C 304.530 219.897,304.933 219.797,306.520 219.778 L 308.725 219.751 308.725 217.258 C 308.725 214.481,308.384 214.275,305.382 215.240 M213.457 216.874 C 213.612 217.490,213.536 217.833,213.247 217.833 C 212.977 217.833,212.890 218.128,213.029 218.568 C 213.157 218.972,213.056 219.430,212.804 219.586 C 212.490 219.780,212.444 219.700,212.658 219.331 C 212.830 219.034,212.823 218.926,212.642 219.091 C 212.002 219.674,212.104 220.591,212.781 220.332 C 213.226 220.162,213.163 220.330,212.576 220.878 C 212.110 221.312,211.506 221.680,211.234 221.695 C 210.961 221.710,211.083 221.870,211.505 222.052 C 212.150 222.329,211.943 222.507,211.092 222.410 C 210.971 222.396,210.446 222.871,209.927 223.465 C 209.408 224.059,209.084 224.271,209.206 223.937 C 209.349 223.550,209.215 223.330,208.837 223.330 C 208.512 223.330,208.321 223.405,208.413 223.497 C 208.505 223.589,208.433 224.052,208.252 224.526 L 207.925 225.388 210.069 224.890 C 213.230 224.155,213.613 223.606,213.884 219.432 C 214.049 216.878,213.989 215.916,213.664 215.916 C 213.378 215.916,213.303 216.262,213.457 216.874 M181.017 221.508 C 181.018 223.295,182.145 227.911,182.740 228.569 C 184.200 230.183,188.771 231.087,188.406 229.690 C 188.269 229.167,188.101 229.045,187.920 229.338 C 187.622 229.819,187.163 229.028,186.918 227.613 C 186.498 225.184,186.412 225.044,185.227 224.856 C 182.582 224.438,181.536 223.978,182.231 223.538 C 182.638 223.280,182.623 223.213,182.155 223.208 C 181.797 223.205,181.534 222.802,181.482 222.179 C 181.382 220.971,181.016 220.444,181.017 221.508 M207.768 227.229 C 207.667 227.756,207.733 228.188,207.915 228.188 C 208.097 228.188,208.245 227.756,208.245 227.229 C 208.245 226.702,208.179 226.270,208.098 226.270 C 208.018 226.270,207.869 226.702,207.768 227.229 M42.241 228.903 C 42.144 232.793,42.698 234.245,44.605 235.112 C 47.355 236.360,47.556 236.234,47.549 233.269 C 47.542 230.124,47.404 229.887,45.385 229.549 C 44.508 229.403,43.473 229.027,43.084 228.714 C 42.434 228.191,42.454 228.180,43.337 228.571 C 44.221 228.964,44.240 228.953,43.586 228.426 C 43.172 228.093,42.997 227.660,43.166 227.387 C 43.342 227.101,43.295 227.018,43.045 227.172 C 42.820 227.312,42.560 227.209,42.468 226.944 C 42.377 226.679,42.274 227.561,42.241 228.903 M346.676 227.804 C 346.618 228.332,346.598 229.075,346.631 229.457 C 346.670 229.911,346.526 230.055,346.212 229.875 C 345.949 229.723,345.861 229.740,346.018 229.913 C 346.174 230.085,346.088 230.491,345.826 230.813 C 345.421 231.312,345.464 231.357,346.117 231.112 C 346.855 230.836,346.853 230.854,346.079 231.576 C 345.637 231.990,344.947 232.391,344.546 232.468 C 344.145 232.545,343.513 233.253,343.142 234.042 C 342.471 235.467,341.891 236.055,342.359 234.836 C 342.524 234.407,342.457 234.289,342.155 234.476 C 340.906 235.248,341.682 236.254,343.337 236.009 C 346.251 235.577,346.586 235.153,346.889 231.525 C 347.134 228.574,346.948 225.322,346.676 227.804 M207.478 228.864 C 207.478 229.095,207.207 229.555,206.876 229.886 C 206.351 230.411,206.347 230.489,206.850 230.489 C 207.444 230.489,208.109 229.074,207.705 228.670 C 207.580 228.546,207.478 228.633,207.478 228.864 M345.005 233.369 C 344.959 233.688,344.734 234.134,344.507 234.361 C 343.986 234.883,343.459 234.158,343.770 233.347 C 344.053 232.609,345.114 232.628,345.005 233.369 M87.057 236.773 C 87.057 236.855,87.574 236.998,88.207 237.090 C 88.840 237.183,89.358 237.117,89.358 236.942 C 89.358 236.768,88.840 236.625,88.207 236.625 C 87.574 236.625,87.057 236.692,87.057 236.773 M300.757 237.074 C 300.967 237.705,302.516 237.752,302.752 237.135 C 302.889 236.779,302.594 236.625,301.778 236.625 C 301.054 236.625,300.664 236.796,300.757 237.074 M90.345 237.726 C 90.751 238.121,91.151 238.384,91.234 238.311 C 91.476 238.097,90.453 237.009,90.011 237.009 C 89.789 237.009,89.939 237.332,90.345 237.726 M298.658 237.542 C 297.937 238.090,297.738 239.310,298.370 239.310 C 298.581 239.310,299.099 238.965,299.521 238.543 C 300.858 237.206,300.163 236.400,298.658 237.542 M91.193 240.077 C 91.286 240.709,91.429 241.227,91.510 241.227 C 91.592 241.227,91.659 240.709,91.659 240.077 C 91.659 239.444,91.516 238.926,91.342 238.926 C 91.167 238.926,91.100 239.444,91.193 240.077 M297.603 240.800 C 297.603 241.616,297.757 241.911,298.113 241.774 C 298.730 241.538,298.683 239.989,298.052 239.779 C 297.774 239.686,297.603 240.076,297.603 240.800 M47.555 248.499 C 47.555 249.677,48.048 250.035,48.551 249.222 C 48.736 248.921,48.651 248.883,48.286 249.104 C 47.858 249.361,47.837 249.315,48.188 248.875 C 48.525 248.452,48.503 248.206,48.092 247.828 C 47.641 247.412,47.555 247.520,47.555 248.499 M91.659 248.518 C 91.659 249.199,91.766 249.286,92.183 248.940 C 92.752 248.468,93.237 248.855,93.700 250.153 C 93.833 250.526,94.248 250.949,94.622 251.092 C 94.996 251.235,95.647 251.673,96.069 252.066 C 96.708 252.660,96.724 252.737,96.165 252.523 C 95.743 252.362,95.494 252.448,95.494 252.755 C 95.494 253.024,95.603 253.135,95.736 253.002 C 95.869 252.868,96.318 252.942,96.734 253.164 C 97.491 253.569,97.515 252.178,96.795 249.610 C 96.400 248.200,91.659 247.192,91.659 248.518 M202.493 248.100 C 202.493 248.353,202.665 248.453,202.876 248.322 C 203.087 248.192,203.260 248.302,203.260 248.568 C 203.260 248.940,203.364 248.947,203.715 248.596 C 204.066 248.245,204.329 248.285,204.865 248.770 C 205.259 249.127,205.561 249.214,205.561 248.971 C 205.561 248.734,205.951 248.923,206.429 249.391 C 206.964 249.914,207.148 250.348,206.908 250.521 C 206.667 250.696,206.711 250.805,207.022 250.809 C 207.298 250.812,207.417 250.988,207.287 251.198 C 207.156 251.409,207.227 251.582,207.444 251.582 C 207.661 251.582,207.745 251.823,207.632 252.118 C 207.519 252.414,207.636 252.785,207.893 252.943 C 208.513 253.327,208.016 249.290,207.361 248.624 C 206.704 247.957,202.493 247.504,202.493 248.100 M295.494 248.005 C 292.766 248.605,292.498 248.907,292.031 251.904 C 291.786 253.476,291.814 253.546,292.527 253.164 C 292.943 252.942,293.393 252.868,293.526 253.002 C 293.659 253.135,293.768 253.024,293.768 252.755 C 293.768 252.448,293.519 252.362,293.097 252.523 C 292.591 252.717,292.634 252.586,293.273 251.989 C 293.738 251.554,294.289 251.198,294.496 251.198 C 294.704 251.198,294.970 251.042,295.088 250.851 C 295.206 250.659,294.930 250.600,294.475 250.720 C 293.649 250.935,293.649 250.934,294.411 250.204 C 295.744 248.928,296.686 248.517,297.170 249.002 C 297.492 249.323,297.603 249.217,297.603 248.591 C 297.603 247.740,297.201 247.629,295.494 248.005 M95.255 250.766 C 94.986 251.112,93.960 250.400,93.960 249.868 C 93.960 249.371,94.068 249.384,94.663 249.952 C 95.050 250.321,95.316 250.688,95.255 250.766 M47.939 250.756 C 47.939 251.538,49.074 252.733,49.816 252.733 C 50.444 252.733,49.986 251.169,49.169 250.527 C 48.318 249.859,47.939 249.929,47.939 250.756 M50.814 252.350 C 50.740 252.471,51.098 252.604,51.610 252.647 C 52.122 252.689,52.541 252.590,52.541 252.427 C 52.541 252.086,51.020 252.018,50.814 252.350 M179.291 254.157 C 178.142 254.433,176.525 256.112,176.291 257.271 C 176.177 257.833,175.954 258.639,175.794 259.060 C 175.543 259.724,175.586 259.761,176.110 259.335 C 176.444 259.064,176.865 258.868,177.045 258.901 C 177.225 258.933,178.193 258.939,179.195 258.914 L 181.016 258.869 181.016 256.376 C 181.016 253.803,180.976 253.751,179.291 254.157 M288.782 259.186 C 288.782 259.360,289.300 259.427,289.933 259.334 C 290.566 259.241,291.083 259.098,291.083 259.017 C 291.083 258.935,290.566 258.869,289.933 258.869 C 289.300 258.869,288.782 259.011,288.782 259.186 M213.998 261.745 L 213.998 264.238 216.203 264.282 C 217.416 264.307,218.085 264.410,217.690 264.511 C 217.032 264.680,217.045 264.732,217.843 265.138 C 218.383 265.412,218.756 265.997,218.827 266.677 C 218.889 267.280,219.059 267.884,219.204 268.019 C 219.567 268.358,219.036 262.792,218.563 261.296 C 218.164 260.038,216.756 259.252,214.900 259.252 C 214.046 259.252,213.998 259.384,213.998 261.745 M287.241 259.837 C 286.523 260.701,286.940 260.801,287.795 259.970 C 288.201 259.575,288.351 259.252,288.129 259.252 C 287.907 259.252,287.507 259.515,287.241 259.837 M286.481 262.320 C 286.481 262.953,286.548 263.471,286.630 263.471 C 286.711 263.471,286.854 262.953,286.947 262.320 C 287.039 261.687,286.973 261.170,286.798 261.170 C 286.624 261.170,286.481 261.687,286.481 262.320 M53.496 263.854 C 53.561 263.960,53.807 264.765,54.042 265.645 C 54.400 266.979,54.744 267.376,56.120 268.042 C 58.572 269.229,58.677 269.160,58.677 266.379 L 58.677 263.917 56.028 263.790 C 54.571 263.720,53.431 263.749,53.496 263.854 M335.448 263.765 C 335.275 264.032,335.002 264.169,334.841 264.069 C 334.680 263.970,334.548 264.147,334.548 264.463 C 334.548 264.829,334.768 264.954,335.155 264.806 C 335.528 264.663,335.435 264.879,334.915 265.365 C 334.450 265.800,333.883 266.155,333.656 266.155 C 333.429 266.155,332.887 266.759,332.452 267.498 C 331.652 268.853,331.211 269.270,331.572 268.329 C 331.680 268.047,331.537 267.817,331.255 267.817 C 330.973 267.817,330.707 268.235,330.665 268.746 C 330.516 270.546,335.306 269.070,335.783 267.169 C 336.105 265.884,335.838 263.162,335.448 263.765 M102.780 267.274 L 102.780 269.927 105.466 270.055 L 108.151 270.182 108.150 268.917 C 108.149 266.321,106.380 264.621,103.682 264.621 C 102.822 264.621,102.780 264.745,102.780 267.274 M334.130 266.794 C 333.865 266.900,333.728 267.117,333.825 267.275 C 333.923 267.432,333.751 267.562,333.444 267.562 C 333.137 267.562,332.886 267.446,332.886 267.306 C 332.886 266.861,333.376 266.538,334.004 266.569 C 334.404 266.589,334.447 266.666,334.130 266.794 M218.925 272.004 C 218.815 273.628,218.782 273.772,218.438 274.086 C 218.237 274.269,218.224 274.176,218.406 273.862 C 218.612 273.508,218.573 273.414,218.293 273.587 C 218.058 273.732,217.964 274.103,218.083 274.413 C 218.257 274.867,217.881 274.976,216.148 274.976 L 213.998 274.976 213.998 277.661 C 213.998 280.637,214.296 280.870,216.936 279.949 C 218.406 279.437,220.565 271.141,219.228 271.141 C 219.094 271.141,218.957 271.529,218.925 272.004 M58.689 274.091 C 58.682 274.342,58.828 274.641,59.013 274.755 C 59.198 274.869,59.545 275.740,59.784 276.689 C 60.236 278.484,61.085 279.289,62.991 279.732 L 64.046 279.976 64.046 277.476 L 64.046 274.976 61.764 274.976 C 59.995 274.976,59.394 274.825,59.091 274.305 C 58.876 273.936,58.695 273.839,58.689 274.091 M329.818 274.593 C 329.501 274.797,328.250 274.967,327.037 274.970 L 324.832 274.976 324.832 277.514 C 324.832 279.958,324.864 280.043,325.695 279.820 C 326.170 279.693,326.766 279.586,327.020 279.583 C 327.715 279.575,329.434 277.718,329.437 276.972 C 329.438 276.612,329.687 275.844,329.989 275.264 C 330.292 274.684,330.506 274.212,330.466 274.215 C 330.426 274.218,330.134 274.388,329.818 274.593 M206.839 286.750 C 206.839 287.024,206.995 287.248,207.186 287.248 C 207.377 287.248,207.274 287.507,206.958 287.824 C 206.642 288.140,206.217 288.399,206.015 288.399 C 205.813 288.399,205.244 288.906,204.751 289.525 C 204.025 290.437,203.748 290.564,203.292 290.196 C 202.862 289.848,202.793 289.848,203.001 290.194 C 203.156 290.454,202.901 290.920,202.403 291.285 C 201.568 291.898,201.625 291.913,203.835 291.656 C 206.961 291.294,207.347 291.014,207.829 288.767 C 208.375 286.222,208.366 286.136,207.542 286.198 C 207.156 286.228,206.839 286.476,206.839 286.750 M124.557 286.934 C 124.825 287.203,125.024 288.429,125.024 289.818 L 125.024 292.234 127.709 292.234 L 130.393 292.234 130.393 291.064 C 130.393 288.438,129.167 287.362,125.419 286.701 C 124.373 286.517,124.189 286.567,124.557 286.934 M186.550 288.702 C 186.713 290.494,187.300 291.467,188.217 291.467 C 188.660 291.467,188.603 291.293,187.984 290.756 C 187.533 290.364,186.992 289.372,186.781 288.550 L 186.399 287.057 186.550 288.702 M262.128 287.786 C 260.619 288.452,259.782 289.456,259.456 290.988 L 259.191 292.234 261.714 292.234 L 264.238 292.234 264.238 289.741 C 264.238 287.033,264.108 286.912,262.128 287.786 M206.421 289.037 C 206.156 289.144,206.019 289.360,206.117 289.518 C 206.214 289.676,206.043 289.805,205.736 289.805 C 205.429 289.805,205.177 289.690,205.177 289.549 C 205.177 289.104,205.668 288.781,206.296 288.813 C 206.696 288.833,206.738 288.909,206.421 289.037 M313.710 294.296 C 313.710 296.505,313.114 298.029,312.493 297.408 C 312.389 297.304,312.304 297.486,312.304 297.811 C 312.304 298.193,312.520 298.321,312.911 298.171 C 313.284 298.029,313.192 298.245,312.672 298.730 C 312.206 299.165,311.639 299.521,311.412 299.521 C 311.186 299.521,310.644 300.125,310.208 300.863 C 309.408 302.219,308.967 302.635,309.329 301.694 C 309.437 301.413,309.294 301.182,309.011 301.182 C 308.729 301.182,308.465 301.585,308.424 302.077 C 308.342 303.067,308.585 303.120,310.834 302.598 C 312.895 302.121,313.710 301.032,313.710 298.757 L 313.710 296.927 315.460 296.487 C 316.983 296.103,317.305 295.836,317.945 294.428 C 319.073 291.943,319.010 291.850,316.203 291.850 L 313.710 291.850 313.710 294.296 M75.177 297.494 C 75.220 300.705,76.468 302.352,79.167 302.756 C 80.800 303.001,80.906 303.092,81.113 304.432 C 81.400 306.280,82.147 307.742,82.851 307.834 C 86.257 308.276,86.230 308.260,86.514 310.152 C 86.857 312.441,87.942 313.526,90.231 313.869 C 91.929 314.124,92.026 314.206,92.235 315.554 C 92.651 318.236,93.200 318.851,95.469 319.177 C 97.861 319.522,97.993 319.468,97.184 318.476 C 96.592 317.750,96.586 317.751,96.828 318.504 L 97.075 319.271 96.361 318.504 C 95.968 318.082,95.525 317.419,95.377 317.030 C 95.228 316.641,94.762 316.232,94.341 316.122 C 93.921 316.012,93.576 315.660,93.576 315.340 C 93.576 315.019,93.135 314.348,92.596 313.849 C 92.057 313.349,91.704 312.797,91.812 312.622 C 91.920 312.447,91.750 312.304,91.434 312.304 C 91.077 312.304,90.938 312.535,91.068 312.911 C 91.233 313.390,91.166 313.376,90.754 312.848 C 90.467 312.478,90.017 312.176,89.754 312.176 C 89.481 312.176,89.373 311.923,89.502 311.587 C 89.639 311.230,89.465 310.896,89.064 310.743 C 88.698 310.604,88.054 310.168,87.632 309.775 C 87.101 309.281,87.052 309.133,87.472 309.293 C 87.859 309.441,88.079 309.316,88.079 308.950 C 88.079 308.634,87.936 308.463,87.761 308.572 C 87.587 308.680,86.983 308.284,86.421 307.692 C 85.625 306.854,85.460 306.786,85.676 307.383 L 85.953 308.150 85.239 307.383 C 84.846 306.961,84.403 306.297,84.255 305.908 C 84.106 305.519,83.640 305.110,83.220 305.000 C 82.799 304.890,82.454 304.538,82.454 304.218 C 82.454 303.898,82.013 303.227,81.474 302.727 C 80.935 302.227,80.582 301.675,80.690 301.500 C 80.798 301.326,80.628 301.182,80.312 301.182 C 79.990 301.182,79.823 301.408,79.933 301.694 C 80.294 302.635,79.854 302.219,79.054 300.863 C 78.618 300.125,78.076 299.521,77.849 299.521 C 77.622 299.521,77.056 299.165,76.590 298.730 C 76.070 298.245,75.978 298.029,76.350 298.171 C 76.742 298.321,76.957 298.193,76.957 297.811 C 76.957 297.486,76.877 297.300,76.779 297.398 C 76.681 297.496,76.279 297.404,75.884 297.193 C 75.308 296.884,75.170 296.943,75.177 297.494 M143.968 297.999 C 144.789 298.209,145.782 298.750,146.173 299.201 C 146.710 299.821,146.884 299.878,146.884 299.434 C 146.884 298.518,145.911 297.931,144.119 297.767 L 142.474 297.617 143.968 297.999 M245.293 297.945 C 243.500 298.225,242.554 299.388,242.219 301.726 C 241.982 303.381,242.990 304.154,243.760 302.907 C 243.954 302.594,243.816 302.543,243.304 302.739 C 242.608 303.005,242.610 302.982,243.337 302.305 C 243.758 301.913,244.409 301.474,244.783 301.332 C 245.157 301.189,245.580 300.766,245.723 300.392 C 245.866 300.018,246.304 299.367,246.697 298.945 C 247.373 298.219,247.396 298.217,247.130 298.912 C 246.934 299.425,246.985 299.563,247.298 299.369 C 247.899 298.998,247.874 297.589,247.267 297.657 C 247.004 297.687,246.115 297.817,245.293 297.945 M78.502 300.511 C 78.578 300.740,78.385 300.927,78.072 300.927 C 77.759 300.927,77.582 300.798,77.680 300.640 C 77.777 300.482,77.640 300.255,77.375 300.135 C 77.110 300.016,77.224 299.958,77.629 300.007 C 78.033 300.056,78.426 300.283,78.502 300.511 M245.446 300.364 C 245.446 300.775,244.340 301.227,244.049 300.936 C 243.931 300.818,243.931 300.567,244.048 300.377 C 244.321 299.936,245.446 299.925,245.446 300.364 M311.886 300.159 C 311.621 300.266,311.484 300.482,311.582 300.640 C 311.679 300.798,311.508 300.927,311.201 300.927 C 310.894 300.927,310.642 300.812,310.642 300.671 C 310.642 300.226,311.133 299.903,311.761 299.934 C 312.161 299.954,312.203 300.031,311.886 300.159 M146.790 301.246 C 146.891 301.774,147.040 302.205,147.120 302.205 C 147.201 302.205,147.267 301.774,147.267 301.246 C 147.267 300.719,147.119 300.288,146.937 300.288 C 146.755 300.288,146.689 300.719,146.790 301.246 M83.856 305.865 C 84.189 306.732,83.890 306.777,83.126 305.976 C 82.558 305.381,82.545 305.273,83.042 305.273 C 83.365 305.273,83.731 305.540,83.856 305.865 M177.181 309.040 C 177.181 309.275,177.440 309.368,177.756 309.247 C 178.073 309.126,178.332 309.229,178.332 309.477 C 178.332 309.761,178.632 309.832,179.147 309.668 C 179.691 309.496,179.875 309.549,179.702 309.830 C 179.546 310.083,179.655 310.169,179.976 310.045 C 180.270 309.933,180.730 310.105,180.998 310.429 C 181.267 310.753,181.640 310.923,181.827 310.807 C 182.014 310.692,182.173 310.823,182.180 311.099 C 182.188 311.375,182.441 311.170,182.742 310.642 C 183.207 309.829,183.292 309.795,183.304 310.417 C 183.311 310.820,183.756 311.899,184.292 312.814 L 185.267 314.477 196.948 314.477 L 208.629 314.477 208.656 312.272 C 208.675 310.686,208.775 310.282,209.012 310.834 C 209.334 311.582,209.343 311.581,209.369 310.785 C 209.384 310.336,209.698 309.741,210.067 309.461 C 210.638 309.029,210.667 309.034,210.259 309.491 C 209.995 309.787,209.779 310.205,209.779 310.421 C 209.779 310.637,210.040 310.441,210.358 309.987 C 210.676 309.533,211.324 309.082,211.796 308.986 C 212.269 308.890,210.757 308.921,208.437 309.056 C 202.264 309.413,186.072 309.354,181.304 308.956 C 178.320 308.707,177.181 308.730,177.181 309.040 M184.624 311.985 C 184.970 312.512,185.104 312.943,184.922 312.943 C 184.740 312.943,184.394 312.512,184.154 311.985 C 183.914 311.457,183.780 311.026,183.857 311.026 C 183.933 311.026,184.279 311.457,184.624 311.985 M301.521 312.811 C 300.919 313.428,300.814 313.710,301.186 313.710 C 301.823 313.710,302.719 312.734,302.529 312.248 C 302.456 312.063,302.003 312.316,301.521 312.811 M299.137 313.710 L 298.178 314.018 299.233 314.056 C 299.813 314.077,300.288 313.921,300.288 313.710 C 300.288 313.500,300.244 313.344,300.192 313.365 C 300.139 313.386,299.664 313.542,299.137 313.710 M296.644 314.073 C 296.222 314.243,295.784 314.329,295.669 314.264 C 295.555 314.200,295.435 314.501,295.402 314.933 C 295.369 315.365,294.988 315.967,294.555 316.270 C 294.122 316.574,293.768 316.992,293.768 317.200 C 293.768 317.408,293.412 317.959,292.977 318.424 C 292.240 319.214,292.203 319.219,292.433 318.504 C 292.676 317.751,292.670 317.750,292.077 318.476 C 291.269 319.468,291.400 319.522,293.792 319.177 C 295.456 318.938,295.939 318.698,296.306 317.926 C 296.663 317.174,297.637 313.622,297.454 313.737 C 297.430 313.752,297.066 313.903,296.644 314.073 M94.978 316.987 C 95.311 317.854,95.012 317.899,94.247 317.098 C 93.680 316.503,93.667 316.395,94.164 316.395 C 94.487 316.395,94.853 316.661,94.978 316.987 M294.840 317.145 C 294.311 317.992,293.939 317.886,294.284 316.987 C 294.409 316.661,294.690 316.395,294.910 316.395 C 295.162 316.395,295.137 316.670,294.840 317.145 M108.533 327.325 C 108.533 327.852,108.682 328.284,108.863 328.284 C 109.045 328.284,109.111 327.852,109.010 327.325 C 108.910 326.798,108.761 326.366,108.680 326.366 C 108.599 326.366,108.533 326.798,108.533 327.325 M108.917 329.193 C 108.917 329.824,109.605 330.408,109.947 330.066 C 110.063 329.950,109.879 329.575,109.538 329.233 C 109.001 328.697,108.917 328.692,108.917 329.193 M269.542 333.186 L 269.415 335.788 271.072 335.241 C 272.859 334.652,273.602 333.790,274.010 331.831 L 274.270 330.585 271.970 330.585 L 269.670 330.585 269.542 333.186 M258.440 338.159 C 258.415 339.161,258.424 340.138,258.460 340.329 C 258.496 340.521,258.301 340.818,258.026 340.989 C 257.357 341.407,260.406 340.930,261.284 340.479 C 261.960 340.133,262.462 339.158,262.934 337.279 C 263.166 336.356,263.124 336.337,260.828 336.337 L 258.485 336.337 258.440 338.159 M142.101 343.338 C 142.606 346.386,143.237 346.924,146.748 347.301 C 148.914 347.533,148.963 347.519,148.124 346.899 C 147.646 346.545,147.336 346.124,147.436 345.963 C 147.536 345.802,147.359 345.670,147.042 345.670 C 146.680 345.670,146.550 345.894,146.690 346.277 C 146.813 346.611,146.498 346.409,145.991 345.829 C 145.095 344.805,143.878 344.328,144.428 345.217 C 144.597 345.492,144.533 345.556,144.259 345.387 C 143.596 344.977,143.725 344.395,144.487 344.361 C 145.002 344.338,145.029 344.280,144.600 344.111 C 144.294 343.990,143.690 343.562,143.258 343.159 C 142.729 342.665,142.672 342.502,143.081 342.658 C 143.448 342.798,143.688 342.687,143.688 342.377 C 143.688 342.094,143.270 341.829,142.760 341.786 C 141.874 341.713,141.844 341.784,142.101 343.338 M246.788 342.201 C 246.253 342.849,246.312 344.105,246.886 344.296 C 247.208 344.403,247.363 344.007,247.363 343.081 C 247.363 341.565,247.341 341.531,246.788 342.201 M244.669 345.758 C 244.176 347.056,244.181 347.076,245.003 347.076 C 245.773 347.076,246.980 345.945,246.980 345.224 C 246.980 344.294,245.057 344.739,244.669 345.758 M242.041 346.966 C 241.673 347.360,241.801 347.459,242.682 347.459 C 243.324 347.459,243.784 347.254,243.784 346.966 C 243.784 346.695,243.495 346.473,243.143 346.473 C 242.790 346.473,242.294 346.695,242.041 346.966 M164.526 348.322 C 164.527 349.871,165.784 351.809,166.991 352.123 C 168.778 352.588,177.565 352.982,177.565 352.597 C 177.565 352.408,177.176 352.226,176.702 352.194 C 174.730 352.059,173.668 351.742,172.898 351.059 C 172.091 350.342,172.088 350.343,172.537 351.198 C 172.786 351.673,172.839 352.061,172.654 352.061 C 172.261 352.061,171.429 350.357,171.429 349.551 C 171.429 349.244,171.149 348.993,170.806 348.993 C 170.329 348.993,170.284 348.873,170.611 348.479 C 171.298 347.651,170.718 347.459,167.530 347.459 C 164.670 347.459,164.525 347.501,164.526 348.322 M218.044 348.836 C 217.722 350.552,217.050 352.061,216.608 352.061 C 216.423 352.061,216.476 351.673,216.725 351.198 C 217.174 350.343,217.171 350.342,216.363 351.059 C 215.915 351.456,215.128 351.828,214.614 351.884 C 211.103 352.270,212.694 352.851,216.667 352.634 C 223.538 352.258,224.102 351.989,224.612 348.842 L 224.837 347.459 221.569 347.459 L 218.302 347.459 218.044 348.836 " stroke="none" fill="#555555" fill-rule="evenodd"></path><path id="path2" d="M170.245 47.918 C 170.657 48.173,170.654 48.273,170.226 48.469 C 169.938 48.601,170.172 48.647,170.746 48.571 C 171.319 48.495,171.698 48.581,171.586 48.761 C 171.475 48.942,171.168 49.089,170.905 49.089 C 170.421 49.089,170.356 50.969,170.814 51.711 C 171.238 52.397,170.594 53.308,169.686 53.308 C 169.194 53.308,167.702 53.557,166.371 53.862 C 162.802 54.679,158.186 54.717,155.979 53.948 C 153.813 53.192,148.232 53.062,147.802 53.756 C 147.611 54.067,147.752 54.126,148.259 53.947 C 148.971 53.697,148.971 53.707,148.249 54.266 C 147.576 54.786,147.691 55.026,148.542 54.878 C 148.716 54.848,148.592 55.204,148.266 55.669 C 147.864 56.243,147.795 56.662,148.052 56.972 C 149.921 59.224,141.554 61.425,137.970 59.625 C 134.339 57.801,133.497 58.294,133.691 62.128 C 133.819 64.676,131.530 66.986,129.603 66.254 C 129.088 66.059,128.342 65.833,127.944 65.752 C 127.546 65.670,126.928 65.340,126.571 65.017 C 124.568 63.204,122.442 64.584,122.591 67.599 C 122.739 70.590,120.913 72.172,117.855 71.700 C 116.841 71.544,115.950 71.473,115.875 71.542 C 115.801 71.612,115.349 71.248,114.873 70.734 C 113.776 69.551,111.545 69.565,111.370 70.757 C 111.309 71.172,111.086 71.568,110.874 71.639 C 110.637 71.718,110.614 72.097,110.815 72.625 C 111.004 73.123,110.988 73.757,110.775 74.136 C 110.574 74.496,110.503 74.943,110.618 75.129 C 110.733 75.315,110.225 75.580,109.488 75.718 C 108.752 75.857,108.150 76.129,108.150 76.324 C 108.150 76.518,107.891 76.578,107.574 76.457 C 107.258 76.336,106.999 76.427,106.999 76.661 C 106.999 76.894,106.816 77.042,106.593 76.989 C 106.131 76.880,105.056 79.635,105.303 80.295 C 105.393 80.533,105.077 81.212,104.603 81.804 C 103.833 82.762,103.153 83.097,101.784 83.192 C 101.069 83.242,99.731 84.603,99.608 85.407 C 99.489 86.189,96.644 88.967,96.644 88.301 C 96.644 88.097,95.960 87.980,95.124 88.039 C 94.079 88.114,93.311 87.917,92.667 87.410 C 91.714 86.661,88.974 86.374,88.974 87.023 C 88.974 87.215,88.569 87.328,88.075 87.274 C 87.329 87.192,87.192 87.334,87.277 88.104 C 87.345 88.722,87.217 88.971,86.895 88.847 C 86.386 88.652,86.272 95.685,86.771 96.493 C 87.115 97.049,86.469 97.908,85.654 97.980 C 83.397 98.180,82.454 99.354,82.454 101.965 C 82.454 103.537,81.241 105.081,80.005 105.081 C 79.100 105.081,78.294 105.944,77.776 107.467 C 77.056 109.586,75.297 110.878,73.259 110.785 C 70.817 110.674,69.872 111.277,69.726 113.040 C 69.609 114.455,69.582 114.477,68.018 114.456 C 66.913 114.441,66.483 114.578,66.609 114.905 C 66.727 115.212,66.464 115.339,65.852 115.272 C 65.107 115.191,64.953 115.315,65.101 115.878 C 65.306 116.663,64.598 116.870,64.317 116.107 C 64.219 115.844,64.180 116.423,64.228 117.395 C 64.329 119.399,64.615 120.038,65.411 120.038 C 65.715 120.038,65.971 120.081,65.981 120.134 C 66.979 125.689,65.731 127.986,61.686 128.043 C 60.428 128.061,59.272 128.153,59.118 128.248 C 58.673 128.523,58.610 131.160,59.048 131.160 C 59.266 131.160,59.444 131.399,59.444 131.692 C 59.444 131.984,59.702 132.717,60.017 133.321 C 61.634 136.423,59.662 139.889,56.525 139.459 C 55.212 139.279,54.870 139.336,55.087 139.698 C 55.249 139.966,55.058 139.922,54.650 139.597 C 54.229 139.262,54.048 139.222,54.216 139.501 C 54.397 139.803,54.282 139.981,53.906 139.981 C 53.399 139.981,53.308 140.651,53.308 144.373 C 53.308 148.418,53.474 149.400,54.551 151.737 C 54.846 152.377,54.729 152.939,54.032 154.230 C 53.537 155.146,53.125 155.929,53.115 155.969 C 53.046 156.272,50.969 156.338,50.787 156.043 C 50.641 155.807,50.354 155.834,50.014 156.117 C 49.716 156.364,49.470 156.415,49.467 156.231 C 49.464 156.047,49.294 156.155,49.089 156.472 C 48.885 156.788,48.715 156.860,48.712 156.632 C 48.708 156.403,48.477 156.216,48.197 156.216 C 47.614 156.216,47.266 164.470,47.832 164.873 C 48.694 165.488,49.497 169.556,49.293 172.277 C 48.785 179.054,48.708 180.380,48.504 186.002 C 48.288 191.933,47.759 195.377,47.124 194.985 C 46.939 194.871,46.788 194.960,46.788 195.184 C 46.788 195.743,45.520 195.695,44.891 195.110 C 44.478 194.727,44.429 194.727,44.645 195.110 C 44.900 195.562,44.007 195.792,42.670 195.619 C 42.331 195.576,42.205 196.281,42.233 198.085 C 42.258 199.794,42.412 200.562,42.708 200.460 C 42.948 200.378,43.619 200.444,44.199 200.608 C 44.922 200.811,45.256 200.763,45.260 200.453 C 45.264 200.167,45.370 200.142,45.548 200.384 C 45.703 200.594,46.045 200.784,46.309 200.805 C 47.351 200.889,47.474 200.995,47.706 202.013 C 48.443 205.246,49.242 230.605,48.671 232.598 C 48.550 233.020,48.243 234.099,47.988 234.996 C 47.734 235.892,47.575 238.013,47.635 239.709 L 47.744 242.792 49.088 242.709 C 52.159 242.521,53.308 242.730,53.308 243.477 C 53.308 243.870,53.653 244.631,54.075 245.167 C 54.497 245.703,54.842 246.407,54.842 246.730 C 54.842 247.054,55.005 247.419,55.204 247.542 C 55.408 247.668,55.072 248.813,54.438 250.154 C 53.214 252.741,52.797 257.741,53.756 258.334 C 54.067 258.525,54.126 258.384,53.947 257.877 C 53.697 257.165,53.707 257.166,54.266 257.887 C 54.786 258.560,55.026 258.445,54.878 257.594 C 54.848 257.420,55.204 257.545,55.669 257.871 C 56.243 258.272,56.662 258.341,56.972 258.084 C 57.827 257.375,58.592 258.121,58.887 259.949 C 59.046 260.937,59.248 262.090,59.336 262.512 C 59.423 262.934,59.554 264.349,59.627 265.657 C 59.791 268.625,59.928 268.839,61.672 268.846 C 63.588 268.854,63.903 269.133,64.255 271.141 C 64.422 272.090,64.606 273.126,64.664 273.442 C 64.723 273.758,64.883 274.682,65.020 275.494 C 65.381 277.632,66.213 278.428,68.086 278.428 C 70.515 278.428,71.877 280.027,71.571 282.518 C 71.446 283.538,71.329 284.657,71.312 285.005 C 71.294 285.354,70.971 285.720,70.593 285.818 C 70.007 285.972,69.913 286.411,69.949 288.828 L 69.990 291.659 72.366 291.669 C 75.147 291.682,75.105 291.655,75.229 293.495 C 75.316 294.796,75.445 294.984,76.180 294.886 C 76.314 294.868,76.560 295.072,76.726 295.340 C 76.968 295.733,77.144 295.731,77.631 295.326 C 77.964 295.050,78.236 294.984,78.236 295.178 C 78.236 295.372,78.799 295.466,79.488 295.385 C 80.988 295.210,82.663 296.547,83.066 298.242 C 83.415 299.709,84.313 300.671,85.334 300.671 C 86.480 300.671,88.002 302.160,88.977 304.235 C 89.574 305.505,90.057 306.008,90.829 306.162 C 92.214 306.439,93.866 308.013,94.189 309.363 C 94.541 310.837,95.049 311.407,96.020 311.421 C 97.691 311.444,100.195 314.156,100.287 316.041 C 100.461 319.611,100.366 319.407,101.918 319.536 C 103.346 319.654,103.355 319.666,103.298 321.285 C 103.231 323.177,103.251 323.192,104.348 322.052 C 104.835 321.545,105.103 321.426,104.996 321.764 C 104.896 322.081,105.229 322.728,105.735 323.202 C 106.241 323.677,106.506 324.065,106.324 324.065 C 106.142 324.065,105.615 323.713,105.154 323.283 C 104.692 322.853,104.300 322.551,104.283 322.612 C 103.953 323.754,104.147 324.363,104.800 324.237 C 105.265 324.148,105.468 324.270,105.353 324.570 C 105.031 325.410,108.372 325.178,108.906 324.323 C 109.268 323.743,109.257 323.659,108.849 323.895 C 108.551 324.067,108.473 324.044,108.661 323.839 C 108.837 323.647,109.139 323.468,109.332 323.442 C 109.525 323.416,109.727 323.358,109.779 323.314 C 109.832 323.269,110.652 323.160,111.601 323.070 C 112.550 322.980,113.535 322.830,113.789 322.737 C 114.848 322.351,116.441 325.287,116.382 327.517 C 116.299 330.712,116.103 330.590,121.057 330.451 C 125.790 330.319,126.778 330.725,125.834 332.411 C 125.565 332.893,125.636 333.270,126.095 333.777 C 126.443 334.162,126.561 334.443,126.355 334.403 C 125.457 334.225,125.316 334.463,126.005 334.996 C 126.504 335.382,126.549 335.503,126.143 335.363 C 125.789 335.241,125.535 335.366,125.535 335.662 C 125.535 336.904,131.210 336.428,134.513 334.908 C 136.799 333.856,138.043 335.280,138.172 339.095 L 138.255 341.565 139.629 341.648 C 140.958 341.727,144.068 341.054,146.187 340.229 C 146.898 339.952,147.609 339.950,148.488 340.224 C 149.188 340.442,150.451 340.702,151.294 340.802 C 154.184 341.144,156.758 343.337,154.970 343.933 C 154.686 344.028,154.681 344.295,154.954 344.806 C 155.171 345.210,155.204 345.542,155.028 345.542 C 154.852 345.542,154.708 345.946,154.708 346.439 C 154.708 347.443,164.493 348.058,165.091 347.092 C 165.231 346.865,165.489 346.768,165.664 346.876 C 165.839 346.985,166.715 346.745,167.611 346.344 C 168.915 345.760,169.745 345.662,171.772 345.852 C 174.680 346.124,212.546 346.189,217.450 345.929 C 220.012 345.794,220.986 345.897,222.002 346.410 C 222.714 346.769,223.435 346.977,223.606 346.872 C 223.777 346.766,224.031 346.865,224.170 347.091 C 224.589 347.768,236.114 347.503,236.114 346.816 C 236.114 346.491,235.872 346.359,235.507 346.485 C 235.100 346.625,235.145 346.504,235.644 346.118 C 236.333 345.585,236.192 345.347,235.294 345.525 C 235.089 345.565,235.206 345.284,235.554 344.899 C 235.999 344.407,236.081 344.009,235.830 343.561 C 235.191 342.418,235.889 341.730,238.486 340.945 C 239.888 340.521,241.284 340.014,241.587 339.819 C 241.957 339.580,242.612 339.705,243.585 340.201 C 244.381 340.607,245.374 340.940,245.791 340.940 C 246.209 340.940,246.658 341.112,246.788 341.323 C 246.918 341.534,248.007 341.707,249.208 341.707 L 251.390 341.708 251.320 339.206 C 251.226 335.867,251.521 335.690,257.718 335.363 C 263.415 335.062,262.944 335.276,263.174 332.885 C 263.407 330.456,263.057 330.677,267.447 330.188 C 271.470 329.739,272.675 329.145,272.675 327.611 C 272.675 324.681,274.611 322.726,276.939 323.308 C 277.863 323.539,278.878 323.745,279.195 323.766 C 279.511 323.787,279.987 324.109,280.252 324.483 C 280.883 325.371,283.476 325.241,284.552 324.267 C 284.980 323.880,285.331 323.700,285.331 323.868 C 285.331 324.035,285.029 324.412,284.660 324.705 C 284.044 325.195,284.067 325.229,284.947 325.131 C 285.685 325.049,285.935 324.771,286.031 323.929 C 286.122 323.138,286.025 322.914,285.684 323.125 C 285.377 323.315,285.310 323.258,285.494 322.961 C 285.649 322.711,285.854 321.873,285.950 321.099 C 286.160 319.401,286.004 319.559,287.635 319.401 C 288.374 319.330,289.007 319.118,289.040 318.931 C 289.073 318.743,289.320 318.454,289.588 318.289 C 289.981 318.046,289.978 317.870,289.574 317.383 C 289.298 317.051,289.231 316.779,289.425 316.779 C 289.620 316.779,289.712 316.203,289.630 315.500 C 289.456 314.017,291.155 311.981,292.935 311.537 C 294.140 311.237,294.889 310.380,294.906 309.279 C 294.921 308.344,297.366 305.848,297.928 306.196 C 298.336 306.448,300.658 304.215,300.681 303.547 C 300.709 302.711,302.990 300.671,303.898 300.671 C 305.134 300.671,305.953 299.801,306.261 298.161 C 306.574 296.492,307.951 295.465,310.362 295.103 C 312.007 294.857,312.249 294.694,312.144 293.907 C 312.126 293.772,312.255 293.556,312.431 293.427 C 312.608 293.298,313.039 292.570,313.391 291.809 C 313.975 290.543,314.154 290.432,315.500 290.506 C 316.309 290.551,317.304 290.358,317.711 290.079 C 318.155 289.775,318.616 289.707,318.862 289.910 C 319.432 290.383,319.603 285.770,319.041 285.092 C 318.806 284.809,318.528 283.927,318.423 283.133 C 318.318 282.338,318.162 281.613,318.075 281.522 C 317.639 281.064,320.155 279.154,321.473 278.944 C 322.983 278.702,324.554 277.251,324.240 276.390 C 323.979 275.676,324.991 273.264,325.610 273.124 C 325.917 273.054,326.514 272.991,326.938 272.983 C 328.329 272.958,329.869 272.210,329.658 271.661 C 329.546 271.369,329.705 271.141,330.022 271.141 C 330.697 271.141,330.795 269.398,330.142 268.995 C 329.851 268.815,329.795 268.906,329.979 269.260 C 330.132 269.556,329.983 269.458,329.646 269.043 C 329.309 268.627,329.114 268.077,329.213 267.821 C 329.311 267.565,329.221 267.299,329.013 267.229 C 328.532 267.069,328.176 263.471,328.642 263.471 C 328.832 263.471,329.349 262.886,329.791 262.172 C 330.649 260.784,332.188 260.207,333.361 260.835 C 333.804 261.072,334.036 261.060,334.036 260.800 C 334.036 260.581,334.166 260.423,334.324 260.448 C 335.874 260.693,335.954 260.503,335.954 256.572 C 335.954 253.334,335.799 252.352,334.950 250.233 L 333.947 247.726 334.950 246.278 C 335.502 245.481,335.954 244.632,335.954 244.392 C 335.954 244.103,336.499 244.020,337.556 244.148 C 339.869 244.426,339.953 244.449,340.263 244.871 C 340.435 245.105,340.547 245.059,340.550 244.752 C 340.553 244.476,340.717 244.349,340.913 244.471 C 341.109 244.592,341.373 244.525,341.499 244.322 C 341.624 244.118,341.406 244.014,341.013 244.089 C 340.620 244.165,340.055 244.072,339.756 243.883 C 339.369 243.638,339.558 243.538,340.416 243.534 L 341.618 243.528 341.673 240.107 C 341.718 237.289,341.560 236.257,340.777 234.258 C 339.407 230.756,339.442 228.529,340.967 222.287 C 341.374 220.623,341.707 217.993,341.707 216.442 L 341.707 213.622 343.720 213.714 C 347.236 213.875,347.060 214.718,347.052 197.707 C 347.048 187.932,346.913 182.934,346.654 182.934 C 346.439 182.934,346.348 182.797,346.451 182.630 C 346.555 182.463,346.302 182.301,345.890 182.270 C 345.411 182.234,345.236 182.378,345.404 182.669 C 345.548 182.920,345.249 182.759,344.741 182.312 C 343.862 181.538,342.609 181.454,343.069 182.200 C 343.188 182.392,343.177 182.550,343.044 182.550 C 340.793 182.550,339.459 168.452,341.122 162.224 C 341.263 161.697,341.449 159.711,341.536 157.810 L 341.695 154.354 339.003 154.445 C 336.392 154.533,336.299 154.504,335.908 153.490 C 334.780 150.567,334.492 147.072,335.189 144.775 C 336.611 140.093,336.122 138.917,332.823 139.080 C 329.596 139.240,326.930 136.119,328.744 134.305 C 328.997 134.052,329.076 133.845,328.920 133.845 C 328.763 133.845,329.074 133.096,329.610 132.181 C 330.709 130.305,330.907 128.476,330.010 128.476 C 329.693 128.476,329.434 128.323,329.434 128.136 C 329.434 127.949,328.475 127.864,327.302 127.948 C 325.866 128.050,325.020 127.937,324.713 127.599 C 322.366 125.022,322.471 125.290,323.098 123.514 C 323.416 122.612,323.581 121.720,323.465 121.532 C 323.348 121.343,323.408 121.189,323.597 121.189 C 324.591 121.189,325.326 116.775,324.353 116.656 C 322.472 116.427,320.710 116.245,320.178 116.226 C 319.556 116.203,318.175 113.853,318.139 112.756 C 318.117 112.060,315.692 110.795,314.767 110.998 C 313.665 111.240,311.409 108.687,311.409 107.199 C 311.409 105.842,310.987 105.334,309.492 104.893 C 306.990 104.155,305.944 100.334,307.673 98.251 C 307.906 97.970,308.126 96.760,308.161 95.562 C 308.196 94.365,308.151 93.600,308.060 93.864 C 307.793 94.635,307.083 94.414,307.289 93.625 C 307.434 93.072,307.311 92.950,306.759 93.094 C 305.968 93.301,305.750 92.593,306.520 92.319 C 306.783 92.226,306.050 92.168,304.890 92.192 L 302.780 92.234 302.663 90.604 C 302.598 89.708,302.397 88.974,302.217 88.974 C 302.037 88.974,301.934 88.569,301.988 88.075 C 302.069 87.336,301.926 87.193,301.187 87.274 C 300.692 87.328,300.288 87.207,300.288 87.005 C 300.288 86.788,298.534 86.663,296.024 86.700 C 291.476 86.768,291.217 86.667,291.295 84.871 C 291.353 83.540,290.426 83.014,287.824 82.902 C 285.757 82.813,284.180 81.624,284.180 80.155 C 284.180 79.757,284.005 79.323,283.790 79.191 C 283.576 79.058,283.516 78.763,283.658 78.534 C 283.800 78.305,283.739 78.226,283.524 78.359 C 283.308 78.492,282.854 78.294,282.514 77.918 C 282.174 77.542,281.288 76.997,280.545 76.705 C 279.802 76.414,279.195 76.035,279.195 75.863 C 279.195 75.692,278.852 75.551,278.434 75.551 C 277.751 75.551,277.677 75.303,277.714 73.154 C 277.736 71.836,277.733 70.585,277.707 70.374 C 277.649 69.908,274.976 69.664,274.976 70.124 C 274.976 70.303,274.329 70.733,273.538 71.079 C 269.580 72.814,267.019 71.419,267.134 67.592 C 267.217 64.828,266.897 64.430,264.592 64.430 C 262.873 64.430,261.928 64.674,259.744 65.686 C 258.682 66.178,256.215 64.661,256.142 63.471 C 256.117 63.049,256.068 62.445,256.034 62.128 C 256.000 61.812,256.113 61.251,256.284 60.882 C 256.517 60.378,256.424 60.209,255.910 60.205 C 255.525 60.202,255.393 60.076,255.609 59.917 C 257.467 58.552,253.928 58.301,251.316 59.613 C 250.265 60.141,248.902 60.608,248.288 60.651 C 246.979 60.743,242.662 58.727,242.886 58.128 C 242.970 57.903,242.911 57.373,242.756 56.951 C 242.600 56.529,242.645 55.968,242.856 55.705 C 243.118 55.377,243.073 55.020,242.712 54.576 C 242.423 54.220,242.373 54.039,242.601 54.176 C 242.830 54.313,243.017 54.193,243.017 53.911 C 243.017 53.081,235.727 53.096,233.334 53.931 C 231.088 54.715,226.871 54.687,223.274 53.862 C 221.943 53.557,220.367 53.308,219.772 53.308 C 218.694 53.308,217.827 51.677,218.637 51.176 C 218.812 51.067,218.612 50.368,218.193 49.622 C 217.774 48.876,217.608 48.375,217.824 48.508 C 218.040 48.642,218.217 48.587,218.217 48.386 C 218.217 48.185,217.941 47.915,217.603 47.785 C 216.674 47.429,169.666 47.560,170.245 47.918 M295.494 81.304 C 295.363 81.515,295.526 81.687,295.855 81.687 C 296.183 81.687,296.453 81.981,296.453 82.339 C 296.453 82.833,296.560 82.884,296.896 82.547 C 297.233 82.211,297.221 81.960,296.850 81.512 C 296.282 80.828,295.831 80.759,295.494 81.304 M172.579 85.139 L 175.369 86.290 194.779 86.280 C 213.526 86.271,214.269 86.243,216.491 85.462 C 221.730 83.621,228.967 85.014,228.688 87.809 C 228.606 88.625,228.719 89.404,228.939 89.540 C 229.159 89.675,229.338 90.185,229.338 90.672 C 229.338 91.976,234.384 92.066,238.642 90.838 L 241.617 89.980 242.669 90.766 C 243.601 91.463,243.726 91.816,243.769 93.892 C 243.838 97.123,244.000 97.411,245.749 97.411 C 247.245 97.411,250.702 96.437,251.371 95.826 C 252.019 95.234,252.962 95.472,253.891 96.461 C 254.800 97.428,254.933 97.800,255.109 99.850 C 255.203 100.947,256.582 101.903,257.369 101.417 C 257.564 101.296,258.223 101.554,258.835 101.989 C 259.446 102.424,260.164 102.780,260.430 102.780 C 260.696 102.780,260.810 102.884,260.683 103.012 C 260.556 103.139,260.598 103.628,260.777 104.098 C 260.956 104.569,260.962 105.181,260.790 105.458 C 260.477 105.966,260.711 106.381,262.105 107.784 C 263.045 108.731,263.854 108.727,265.965 107.765 C 268.408 106.652,271.345 107.808,271.325 109.875 C 271.316 110.862,272.646 111.925,274.274 112.232 C 275.931 112.545,276.788 113.315,277.110 114.781 C 277.388 116.048,278.625 117.320,279.599 117.341 C 280.484 117.360,282.554 119.678,282.863 120.997 C 283.223 122.532,284.107 123.490,285.164 123.490 C 287.434 123.490,288.474 126.773,287.061 129.482 C 286.328 130.888,286.325 131.891,287.054 132.171 C 287.370 132.292,287.536 132.539,287.424 132.720 C 287.056 133.316,288.595 134.496,289.380 134.220 C 290.968 133.663,292.642 134.935,292.789 136.812 C 292.929 138.584,294.030 139.892,295.614 140.166 C 297.427 140.480,299.308 142.060,298.947 142.966 C 298.803 143.328,298.604 144.052,298.504 144.575 C 298.405 145.098,298.182 145.615,298.009 145.725 C 297.836 145.835,297.691 147.053,297.686 148.430 L 297.678 150.936 299.270 150.977 C 302.870 151.070,302.829 151.057,303.456 152.349 C 304.905 155.338,304.856 160.626,303.354 163.431 C 302.800 164.465,302.947 168.091,303.524 167.613 C 303.787 167.395,304.118 167.333,304.260 167.475 C 304.402 167.617,305.439 167.690,306.564 167.638 C 308.946 167.528,309.126 167.780,309.854 172.257 C 310.351 175.311,310.156 178.588,309.140 184.276 C 308.337 188.774,308.618 213.814,309.501 216.455 C 311.395 222.116,309.704 232.092,306.966 231.405 C 306.431 231.271,305.777 231.381,305.438 231.662 C 305.113 231.932,304.877 231.994,304.914 231.800 C 305.081 230.919,304.842 230.787,304.314 231.470 C 303.928 231.969,303.807 232.014,303.947 231.608 C 304.069 231.253,303.943 231.000,303.645 231.000 C 302.477 231.000,302.801 235.992,304.147 238.725 C 306.004 242.497,304.561 245.325,300.804 245.278 C 299.716 245.265,298.907 245.384,299.005 245.542 C 299.102 245.700,298.839 245.829,298.418 245.829 C 297.589 245.829,297.333 247.918,298.105 248.395 C 298.339 248.540,298.369 248.423,298.181 248.094 C 297.953 247.693,297.990 247.662,298.328 247.972 C 299.242 248.811,299.632 252.924,298.928 254.294 C 298.135 255.838,297.542 256.142,294.969 256.321 C 293.649 256.413,292.461 256.597,292.328 256.729 C 291.698 257.359,291.912 258.646,292.781 259.451 C 293.298 259.930,293.638 260.405,293.538 260.505 C 293.437 260.606,293.614 261.442,293.932 262.364 L 294.509 264.040 293.161 265.421 C 291.900 266.712,291.679 266.794,289.731 266.692 C 288.587 266.632,287.548 266.748,287.423 266.951 C 287.298 267.153,287.035 267.219,286.838 267.098 C 286.640 266.975,286.481 267.571,286.481 268.434 C 286.481 270.090,286.316 270.180,283.509 270.063 C 283.035 270.043,282.646 270.191,282.646 270.392 C 282.646 270.593,282.463 270.757,282.240 270.757 C 282.017 270.757,281.941 270.585,282.071 270.374 C 282.201 270.163,282.049 269.990,281.733 269.990 C 280.914 269.990,280.532 270.781,281.159 271.178 C 281.505 271.397,281.530 271.515,281.232 271.519 C 280.981 271.522,280.794 271.999,280.817 272.579 C 280.935 275.571,280.871 275.677,279.036 275.569 C 277.765 275.494,277.392 275.595,277.537 275.974 C 277.666 276.310,277.480 276.431,276.985 276.336 C 276.388 276.221,276.260 276.383,276.344 277.148 C 276.414 277.785,276.289 278.041,275.968 277.918 C 275.625 277.787,275.514 278.157,275.582 279.212 C 275.696 281.005,275.224 281.455,273.365 281.329 C 272.125 281.244,271.990 281.316,272.300 281.894 C 272.564 282.388,272.412 282.818,271.706 283.580 C 271.184 284.143,270.757 284.456,270.757 284.277 C 270.757 284.097,270.966 283.742,271.220 283.487 C 271.582 283.126,271.542 282.883,271.036 282.377 C 270.429 281.770,270.400 281.784,270.558 282.607 C 270.675 283.214,270.574 283.425,270.228 283.292 C 269.863 283.152,269.749 283.512,269.802 284.633 C 269.875 286.164,269.709 286.374,268.265 286.584 C 267.843 286.645,267.282 286.830,267.018 286.994 C 266.748 287.163,266.539 287.116,266.539 286.887 C 266.539 286.664,266.356 286.481,266.133 286.481 C 265.909 286.481,265.831 286.650,265.959 286.857 C 266.086 287.063,265.993 287.602,265.751 288.054 C 265.404 288.703,265.414 288.812,265.799 288.574 C 266.162 288.349,266.204 288.459,265.965 289.007 C 265.788 289.411,265.672 290.296,265.707 290.975 C 265.774 292.290,265.000 293.001,263.500 293.001 C 262.369 293.001,261.174 294.162,261.143 295.291 C 261.064 298.110,258.956 300.136,256.745 299.517 C 255.804 299.253,255.032 298.930,255.031 298.800 C 255.017 297.707,251.210 297.283,250.933 298.344 C 250.827 298.751,250.478 299.184,250.159 299.307 C 249.750 299.464,249.693 299.671,249.965 300.005 C 250.698 300.906,249.950 303.492,248.795 304.046 C 248.219 304.322,247.747 304.688,247.747 304.859 C 247.747 305.247,245.426 304.808,243.145 303.987 C 242.196 303.646,240.944 303.364,240.364 303.361 C 239.420 303.356,239.232 303.542,239.342 304.367 C 239.360 304.502,239.145 304.758,238.863 304.937 C 238.534 305.145,238.510 305.264,238.795 305.267 C 239.891 305.282,239.098 308.380,237.648 309.748 C 236.088 311.219,235.200 311.167,232.086 309.419 C 231.025 308.823,230.060 308.710,226.429 308.752 L 222.052 308.803 222.052 309.937 C 222.052 310.561,221.922 310.991,221.764 310.893 C 221.606 310.795,221.535 311.543,221.607 312.555 C 221.793 315.189,220.982 315.398,211.328 315.215 C 202.726 315.052,188.795 315.069,177.948 315.255 C 168.305 315.421,167.468 315.201,167.655 312.555 C 167.727 311.543,167.656 310.795,167.498 310.893 C 167.339 310.991,167.190 310.845,167.166 310.569 C 167.141 310.293,167.098 309.808,167.070 309.492 C 166.939 308.032,156.279 308.742,154.382 310.336 C 152.615 311.820,149.845 308.001,150.778 305.369 C 151.013 304.707,150.941 304.506,150.471 304.506 C 150.010 304.506,149.961 304.382,150.274 304.005 C 150.928 303.217,148.096 303.205,146.286 303.988 C 145.455 304.347,144.602 304.686,144.391 304.741 C 144.180 304.795,143.448 305.011,142.765 305.220 C 141.775 305.524,141.456 305.484,141.200 305.026 C 141.023 304.709,140.460 304.240,139.950 303.984 C 139.112 303.564,139.025 303.286,139.051 301.136 C 139.067 299.826,138.938 298.754,138.764 298.754 C 138.589 298.754,138.447 298.495,138.447 298.178 C 138.447 297.424,136.223 297.424,135.226 298.178 C 134.826 298.481,134.352 298.638,134.172 298.527 C 133.992 298.416,133.845 298.508,133.845 298.731 C 133.845 298.954,133.715 299.104,133.557 299.064 C 133.399 299.024,132.702 299.125,132.009 299.289 C 130.906 299.550,130.642 299.453,129.899 298.512 C 128.899 297.243,128.047 295.686,128.353 295.686 C 129.104 295.686,127.175 294.282,125.320 293.477 L 123.106 292.517 123.057 290.746 C 122.935 286.416,123.067 286.710,121.175 286.553 C 119.073 286.379,119.294 286.706,119.228 283.675 C 119.186 281.734,119.039 281.112,118.624 281.112 C 118.322 281.112,118.182 281.285,118.313 281.496 C 118.443 281.707,118.367 281.879,118.143 281.879 C 117.920 281.879,117.737 281.743,117.737 281.577 C 117.737 281.411,116.956 281.263,116.002 281.248 C 113.869 281.214,113.862 281.207,113.778 279.039 C 113.741 278.070,113.581 277.277,113.423 277.277 C 113.265 277.277,113.135 277.094,113.135 276.871 C 113.135 276.648,113.324 276.582,113.556 276.725 C 113.816 276.886,113.924 276.714,113.839 276.272 C 113.763 275.881,113.381 275.498,112.989 275.423 C 112.548 275.338,112.376 275.445,112.537 275.706 C 112.680 275.937,112.614 276.127,112.391 276.127 C 112.167 276.127,111.985 275.978,111.985 275.797 C 111.985 275.617,111.596 275.472,111.122 275.477 C 108.206 275.505,108.150 275.472,108.149 273.730 L 108.148 272.100 105.574 272.009 C 102.605 271.905,101.617 271.214,100.784 268.660 C 100.371 267.392,100.051 267.071,98.874 266.741 C 95.422 265.775,94.668 264.095,96.258 260.913 C 97.731 257.966,97.810 254.536,96.389 255.205 C 95.933 255.420,95.614 255.685,95.681 255.794 C 96.239 256.698,91.939 255.845,90.895 254.845 C 89.720 253.719,89.186 249.664,90.213 249.664 C 90.400 249.664,90.462 249.517,90.351 249.337 C 90.240 249.158,90.415 248.683,90.741 248.283 C 91.066 247.883,91.206 247.798,91.053 248.094 C 90.878 248.431,90.927 248.537,91.184 248.378 C 91.502 248.182,91.585 246.088,91.315 245.111 C 91.293 245.033,90.983 245.205,90.626 245.495 C 90.269 245.784,90.098 245.820,90.245 245.574 C 90.436 245.256,90.043 245.158,88.881 245.234 C 86.527 245.390,82.572 242.294,83.998 241.413 C 84.204 241.286,84.372 240.771,84.372 240.268 C 84.372 239.766,84.547 239.247,84.762 239.114 C 84.976 238.982,85.066 238.736,84.963 238.567 C 84.859 238.399,85.125 237.944,85.555 237.555 C 86.527 236.675,86.615 228.316,85.652 228.316 C 85.370 228.316,85.139 228.493,85.139 228.709 C 85.139 228.925,84.867 228.767,84.535 228.357 C 84.203 227.948,84.041 227.828,84.174 228.092 C 84.463 228.661,83.758 228.745,83.410 228.183 C 83.264 227.947,82.934 227.927,82.566 228.133 C 80.092 229.518,78.321 222.825,79.536 216.683 C 79.872 214.986,79.933 213.387,79.808 209.588 C 79.773 208.533,79.880 206.894,80.045 205.944 C 80.456 203.582,80.425 191.196,80.002 189.070 C 79.814 188.121,79.617 185.791,79.565 183.893 C 79.512 181.994,79.416 178.974,79.351 177.181 C 79.166 172.083,80.691 167.824,82.242 169.110 C 82.551 169.367,82.971 169.298,83.545 168.896 C 84.010 168.570,84.366 168.446,84.336 168.620 C 84.188 169.471,84.428 169.586,84.948 168.913 C 85.334 168.415,85.455 168.370,85.315 168.776 C 85.193 169.129,85.318 169.383,85.614 169.383 C 86.721 169.383,86.445 164.849,85.139 161.588 L 83.941 158.596 84.730 157.016 C 85.164 156.148,85.629 154.887,85.763 154.215 C 86.048 152.791,86.862 152.253,88.735 152.253 C 90.419 152.253,90.535 152.053,90.685 148.890 C 90.752 147.470,90.892 145.964,90.996 145.542 C 91.100 145.120,91.307 144.041,91.455 143.145 C 91.618 142.165,91.942 141.496,92.268 141.467 C 92.566 141.441,92.939 141.374,93.097 141.319 C 93.255 141.265,93.731 141.104,94.155 140.963 C 94.783 140.754,94.947 140.310,95.043 138.561 C 95.214 135.438,96.717 133.757,99.448 133.636 C 102.700 133.492,102.612 133.529,102.709 132.258 C 102.838 130.560,102.997 130.422,104.673 130.549 C 105.755 130.631,106.113 130.528,105.977 130.175 C 105.852 129.849,106.097 129.721,106.719 129.789 C 107.489 129.874,107.631 129.737,107.549 128.992 C 107.495 128.497,107.607 128.092,107.800 128.092 C 108.444 128.092,108.162 125.353,107.422 124.412 C 106.953 123.816,106.722 122.976,106.772 122.050 C 106.815 121.260,106.720 120.523,106.561 120.411 C 106.128 120.109,108.863 117.356,109.612 117.341 C 110.618 117.321,111.985 115.982,111.985 115.016 C 111.985 113.600,113.435 112.368,115.102 112.368 C 117.566 112.368,118.780 111.493,119.094 109.492 C 119.127 109.281,119.181 108.922,119.213 108.695 C 119.252 108.418,120.933 108.310,124.295 108.369 C 127.798 108.429,129.197 108.334,128.917 108.054 C 128.637 107.774,128.671 107.349,129.032 106.653 C 129.316 106.103,129.501 105.103,129.444 104.430 C 129.371 103.576,129.586 102.985,130.154 102.475 C 131.111 101.616,132.480 101.046,132.097 101.666 C 131.957 101.892,132.356 101.811,132.984 101.487 C 133.854 101.037,134.181 100.547,134.360 99.425 C 134.654 97.586,136.524 95.630,137.561 96.077 C 137.943 96.241,138.587 96.440,138.992 96.518 C 139.397 96.596,139.915 96.803,140.142 96.979 C 141.389 97.942,145.232 97.489,145.221 96.381 C 145.161 90.667,145.594 90.303,151.996 90.684 C 157.536 91.013,157.239 90.980,157.239 91.271 C 157.239 91.410,158.066 91.513,159.077 91.501 L 160.915 91.479 160.850 89.061 C 160.772 86.170,161.191 85.830,165.965 84.917 C 167.572 84.609,168.969 84.275,169.071 84.173 C 169.381 83.863,169.691 83.948,172.579 85.139 M301.061 88.011 C 301.264 87.886,301.333 88.034,301.216 88.340 C 301.098 88.646,301.187 89.010,301.412 89.150 C 301.637 89.289,301.822 89.583,301.822 89.803 C 301.822 90.023,301.352 89.668,300.777 89.014 C 299.744 87.836,298.835 87.378,299.368 88.303 C 299.519 88.567,299.496 88.648,299.315 88.484 C 298.444 87.690,298.797 86.997,299.754 87.624 C 300.270 87.962,300.859 88.137,301.061 88.011 M89.309 88.095 C 88.290 89.362,87.440 90.121,87.440 89.764 C 87.440 89.565,87.624 89.289,87.850 89.150 C 88.075 89.010,88.170 88.664,88.061 88.380 C 87.938 88.060,88.060 87.938,88.380 88.061 C 88.664 88.170,89.010 88.075,89.150 87.850 C 89.289 87.624,89.500 87.440,89.619 87.440 C 89.738 87.440,89.598 87.735,89.309 88.095 M228.372 90.500 C 228.456 91.637,228.780 91.755,228.869 90.682 C 228.911 90.164,228.805 89.741,228.631 89.741 C 228.458 89.741,228.341 90.083,228.372 90.500 M81.290 92.634 C 80.919 93.082,80.907 93.333,81.243 93.669 C 81.580 94.005,81.687 93.989,81.687 93.599 C 81.687 93.317,81.989 92.856,82.359 92.576 C 82.954 92.124,82.960 92.065,82.406 92.054 C 82.062 92.048,81.560 92.308,81.290 92.634 M305.852 93.582 C 305.985 93.797,306.297 93.855,306.546 93.713 C 306.795 93.570,306.871 93.594,306.715 93.767 C 306.558 93.940,306.626 94.317,306.865 94.605 C 307.683 95.591,307.001 95.327,305.969 94.259 C 305.402 93.673,305.090 93.193,305.275 93.193 C 305.460 93.193,305.720 93.368,305.852 93.582 M124.452 112.464 C 124.300 112.833,123.900 113.135,123.564 113.135 C 123.087 113.135,123.054 113.237,123.416 113.598 C 123.991 114.173,125.222 113.120,124.921 112.310 C 124.778 111.923,124.660 111.962,124.452 112.464 M172.963 115.222 C 172.963 115.737,173.104 116.245,173.277 116.352 C 173.449 116.459,173.516 116.038,173.425 115.416 C 173.224 114.045,172.963 113.936,172.963 115.222 M174.610 114.796 C 174.335 115.241,174.110 116.709,174.067 118.332 C 174.043 119.269,173.797 119.601,172.828 120.000 C 172.164 120.275,171.101 120.729,170.465 121.010 C 169.506 121.435,168.494 121.687,166.792 121.924 C 166.419 121.976,165.651 123.906,165.865 124.253 C 165.975 124.430,165.606 125.121,165.045 125.788 C 163.987 127.044,160.204 127.249,159.487 126.089 C 159.117 125.490,155.356 125.435,155.585 126.032 C 155.700 126.333,155.433 126.461,154.826 126.394 C 154.081 126.312,153.927 126.436,154.075 127.000 C 154.280 127.785,153.574 127.991,153.287 127.229 C 153.188 126.965,153.161 127.681,153.228 128.819 C 153.294 129.957,153.530 131.001,153.752 131.139 C 153.975 131.276,154.082 131.773,153.992 132.243 C 153.900 132.721,153.988 132.999,154.191 132.874 C 154.391 132.750,154.560 132.875,154.568 133.151 C 154.576 133.427,154.999 133.142,155.510 132.517 C 156.020 131.893,156.560 131.505,156.710 131.654 C 156.860 131.804,156.818 131.927,156.617 131.927 C 156.416 131.927,156.222 132.313,156.187 132.785 C 156.151 133.257,156.244 133.456,156.393 133.227 C 156.542 132.998,157.052 132.842,157.526 132.880 C 158.075 132.924,158.402 132.729,158.424 132.342 C 158.476 131.422,159.477 135.305,159.593 136.878 C 159.742 138.885,160.498 139.849,162.142 140.131 C 163.984 140.447,165.522 141.831,165.854 143.473 C 166.294 145.650,166.435 145.987,166.928 146.032 C 168.969 146.218,173.245 146.582,173.634 146.603 C 173.897 146.617,174.113 146.784,174.113 146.974 C 174.113 147.798,176.988 147.052,177.112 146.196 C 177.179 145.731,177.401 145.350,177.605 145.350 C 177.831 145.350,177.817 145.054,177.569 144.591 C 176.939 143.413,177.507 142.008,179.136 140.718 L 180.624 139.540 182.815 140.177 C 184.021 140.528,185.192 141.068,185.419 141.377 C 186.264 142.533,190.799 141.920,190.781 140.652 C 190.772 140.072,190.931 139.597,191.132 139.597 C 191.334 139.597,191.390 139.488,191.257 139.355 C 191.124 139.222,191.180 138.804,191.381 138.427 C 191.624 137.974,191.612 137.696,191.346 137.608 C 191.125 137.534,191.058 137.175,191.198 136.810 C 191.425 136.219,192.121 136.146,197.524 136.146 L 203.595 136.146 203.629 137.584 C 203.648 138.375,203.673 139.281,203.684 139.597 C 203.696 139.914,203.621 140.527,203.519 140.961 C 203.346 141.691,203.521 141.755,205.862 141.822 C 208.168 141.889,210.930 141.306,210.930 140.753 C 210.930 140.630,211.232 140.503,211.601 140.471 C 211.970 140.440,212.704 140.308,213.231 140.179 C 214.013 139.987,214.388 140.195,215.261 141.304 C 215.850 142.053,216.176 142.665,215.986 142.665 C 215.795 142.665,215.688 143.349,215.748 144.185 C 215.824 145.247,215.626 145.999,215.091 146.678 C 214.670 147.213,214.382 147.664,214.450 147.680 C 214.518 147.696,214.919 147.793,215.340 147.895 C 215.762 147.997,216.539 148.139,217.066 148.211 C 217.593 148.283,218.111 148.379,218.217 148.424 C 218.322 148.469,218.701 148.477,219.058 148.442 C 219.963 148.352,221.285 152.761,221.285 155.872 C 221.285 158.934,219.932 163.435,219.038 163.348 C 218.692 163.314,218.322 163.324,218.217 163.369 C 218.049 163.441,216.715 163.647,215.244 163.827 C 214.563 163.911,214.648 164.525,215.340 164.525 C 215.657 164.525,215.923 164.569,215.933 164.621 C 216.755 169.198,215.782 171.652,212.928 172.197 C 212.293 172.318,211.710 172.817,211.361 173.539 C 211.055 174.171,210.588 175.120,210.321 175.647 C 210.052 176.181,208.903 177.071,207.731 177.653 C 206.093 178.468,205.571 178.946,205.383 179.805 C 204.754 182.665,198.582 184.280,197.578 181.846 C 197.251 181.052,194.012 180.840,194.316 181.633 C 194.450 181.980,194.138 182.081,193.225 181.985 C 192.522 181.911,192.163 181.937,192.428 182.042 C 192.693 182.146,192.782 182.433,192.626 182.679 C 192.205 183.340,192.247 184.619,192.700 184.941 C 192.944 185.115,192.884 185.225,192.544 185.229 C 192.134 185.233,192.172 185.367,192.691 185.746 C 193.500 186.338,193.313 186.396,190.351 186.465 C 188.935 186.499,188.167 187.536,189.558 187.536 C 189.782 187.536,189.861 187.640,189.735 187.766 C 189.608 187.893,189.280 187.858,189.006 187.688 C 187.959 187.041,187.270 187.261,187.374 188.209 C 187.440 188.810,187.311 189.066,187.000 188.946 C 186.665 188.818,186.533 189.260,186.551 190.451 C 186.568 191.572,186.746 192.138,187.079 192.138 C 187.379 192.138,187.465 192.331,187.293 192.617 C 187.066 192.995,187.127 192.999,187.577 192.634 C 188.050 192.252,188.162 192.319,188.220 193.018 C 188.259 193.483,188.396 194.485,188.524 195.243 C 188.751 196.587,188.342 198.236,186.990 201.426 C 186.206 203.276,186.209 207.565,186.996 210.432 C 187.332 211.655,187.734 214.640,187.891 217.066 C 188.300 223.424,188.482 223.585,195.206 223.570 C 204.762 223.547,206.266 222.658,206.882 216.665 C 207.069 214.845,207.387 212.373,207.705 210.271 C 207.955 208.619,208.822 207.799,210.004 208.096 C 210.554 208.234,211.206 208.116,211.584 207.809 C 212.028 207.449,212.138 207.436,211.940 207.766 C 211.781 208.030,211.800 208.245,211.981 208.245 C 212.162 208.245,212.543 208.030,212.827 207.766 C 213.240 207.383,213.289 207.383,213.073 207.766 C 212.924 208.030,212.967 208.245,213.167 208.245 C 213.738 208.245,213.998 207.213,213.998 204.954 C 213.998 202.653,213.680 202.857,217.450 202.739 L 219.175 202.685 219.230 200.959 C 219.360 196.814,219.241 197.124,220.709 197.124 C 221.831 197.124,222.060 196.982,222.101 196.261 C 222.346 191.988,222.354 191.963,223.636 190.892 C 224.331 190.312,225.271 189.837,225.725 189.837 C 226.922 189.837,228.450 188.490,228.942 187.001 C 229.450 185.460,230.403 184.527,231.870 184.135 C 232.631 183.931,233.201 183.342,233.800 182.142 C 234.885 179.966,236.192 178.742,237.551 178.630 C 238.859 178.522,239.901 177.277,240.253 175.403 C 240.682 173.115,241.487 172.205,243.090 172.198 C 243.858 172.194,244.746 172.170,245.062 172.144 C 245.379 172.119,245.810 172.140,246.021 172.192 C 247.340 172.516,247.341 172.499,247.341 153.020 C 247.341 138.199,247.235 133.834,246.873 133.799 C 246.615 133.774,245.336 133.768,244.029 133.786 C 241.989 133.815,241.621 133.713,241.415 133.065 C 241.283 132.650,241.030 132.311,240.852 132.311 C 240.673 132.311,240.416 131.663,240.279 130.872 C 240.006 129.291,239.271 128.090,238.479 127.931 C 236.205 127.475,234.045 126.119,233.911 125.064 C 233.539 122.124,232.807 121.039,230.919 120.624 C 229.325 120.274,228.090 118.430,228.582 117.135 C 228.791 116.585,228.772 116.206,228.531 116.126 C 228.319 116.055,228.096 115.656,228.035 115.238 C 227.850 113.977,219.689 113.850,218.372 115.087 C 217.865 115.563,217.450 115.816,217.450 115.648 C 217.450 115.480,217.209 115.542,216.915 115.786 C 215.986 116.557,213.148 116.362,211.108 115.388 C 208.268 114.031,200.207 113.891,193.606 115.085 C 186.237 116.417,185.234 116.435,182.698 115.274 C 180.422 114.232,175.151 113.920,174.610 114.796 M68.137 115.591 C 68.137 115.888,67.939 116.054,67.696 115.961 C 67.454 115.868,66.793 116.222,66.226 116.746 C 65.660 117.271,65.197 117.547,65.197 117.358 C 65.197 117.170,65.372 116.907,65.586 116.775 C 65.801 116.642,65.860 116.346,65.719 116.118 C 65.565 115.869,65.640 115.812,65.904 115.974 C 66.147 116.125,66.730 115.979,67.199 115.650 C 68.225 114.931,68.137 114.937,68.137 115.591 M155.507 127.632 C 154.351 128.717,153.694 128.937,154.496 127.970 C 154.735 127.682,154.808 127.324,154.658 127.174 C 154.508 127.024,154.665 127.008,155.006 127.139 C 155.348 127.270,155.741 127.193,155.880 126.968 C 156.020 126.742,156.250 126.558,156.393 126.558 C 156.535 126.558,156.137 127.041,155.507 127.632 M107.013 127.883 C 106.758 128.191,106.677 128.649,106.834 128.902 C 107.011 129.188,106.955 129.261,106.686 129.094 C 106.448 128.947,105.831 129.104,105.314 129.443 C 104.358 130.069,104.005 129.376,104.876 128.583 C 105.057 128.418,105.080 128.500,104.929 128.763 C 104.460 129.578,105.226 129.280,106.176 128.277 C 107.144 127.257,107.782 126.956,107.013 127.883 M194.439 182.742 C 194.439 182.848,194.094 183.279,193.672 183.701 C 192.798 184.575,192.686 184.425,193.381 183.312 C 193.816 182.615,194.439 182.279,194.439 182.742 M189.070 188.635 C 189.070 188.773,188.682 189.127,188.207 189.423 C 187.425 189.910,187.392 189.902,187.857 189.340 C 188.138 188.999,188.259 188.542,188.124 188.324 C 187.978 188.088,188.120 188.020,188.475 188.157 C 188.802 188.282,189.070 188.498,189.070 188.635 M182.049 254.201 C 181.950 254.718,181.843 257.231,181.810 259.785 C 181.736 265.679,181.312 267.041,179.612 266.842 C 178.938 266.764,178.470 266.835,178.572 267.001 C 178.675 267.168,178.318 267.136,177.778 266.931 C 177.058 266.657,176.796 266.682,176.792 267.028 C 176.788 267.328,176.652 267.290,176.414 266.922 C 176.210 266.606,176.037 266.520,176.031 266.731 C 176.024 266.942,175.871 266.881,175.690 266.596 C 175.496 266.288,175.372 267.577,175.387 269.758 C 175.400 271.783,175.548 273.224,175.715 272.961 C 175.882 272.698,176.034 272.656,176.052 272.867 C 176.070 273.078,176.233 272.905,176.414 272.483 C 176.691 271.840,176.748 271.823,176.771 272.378 C 176.793 272.927,176.964 272.976,177.778 272.667 C 178.318 272.462,178.675 272.430,178.572 272.596 C 178.470 272.762,178.975 272.829,179.695 272.745 C 181.556 272.528,182.868 277.618,181.404 279.381 C 181.209 279.616,181.085 281.180,181.129 282.857 L 181.208 285.906 184.145 285.894 C 185.760 285.887,187.485 285.676,187.980 285.425 C 189.677 284.562,192.091 283.903,192.405 284.218 C 193.251 285.063,197.482 285.751,199.122 285.309 C 200.025 285.066,201.024 284.813,201.341 284.747 C 201.658 284.682,202.608 284.483,203.452 284.305 C 204.295 284.128,205.547 283.990,206.232 283.998 C 207.269 284.012,207.478 283.871,207.478 283.164 C 207.478 281.369,208.184 280.283,209.302 280.357 C 211.256 280.486,211.942 280.367,211.363 280.001 C 210.939 279.732,210.974 279.592,211.546 279.272 C 212.202 278.904,212.254 278.216,212.263 269.735 C 212.270 262.924,212.395 260.464,212.755 260.084 C 213.021 259.803,213.137 259.411,213.014 259.212 C 212.891 259.013,213.003 258.897,213.262 258.955 C 213.578 259.026,213.749 258.473,213.779 257.284 C 213.810 256.051,213.684 255.562,213.366 255.684 C 213.075 255.795,212.946 255.522,213.011 254.930 C 213.096 254.153,212.961 254.018,212.184 254.103 C 211.602 254.167,211.319 254.038,211.427 253.757 C 211.543 253.456,211.044 253.308,209.918 253.308 C 208.653 253.308,208.183 253.474,208.023 253.979 C 207.906 254.348,207.639 254.650,207.430 254.650 C 207.221 254.650,207.146 254.806,207.264 254.997 C 207.539 255.442,202.522 255.431,201.739 254.985 C 198.468 253.122,194.546 252.995,192.733 254.693 C 192.265 255.130,190.865 255.133,190.393 254.697 C 188.621 253.061,182.338 252.687,182.049 254.201 M212.123 254.816 C 212.420 254.632,212.482 254.694,212.299 254.991 C 212.142 255.244,212.245 255.735,212.527 256.083 C 212.960 256.617,212.955 256.664,212.495 256.387 C 212.083 256.138,212.012 256.219,212.203 256.716 C 212.360 257.125,212.304 257.281,212.056 257.128 C 211.836 256.992,211.722 256.685,211.802 256.445 C 211.996 255.862,211.238 255.087,210.683 255.300 C 210.440 255.393,210.128 255.287,209.990 255.064 C 209.833 254.809,209.984 254.752,210.398 254.911 C 210.895 255.102,210.976 255.031,210.728 254.619 C 210.450 254.159,210.497 254.154,211.031 254.587 C 211.379 254.869,211.870 254.972,212.123 254.816 M278.012 277.309 C 277.573 277.748,277.111 278.006,276.985 277.880 C 276.860 277.755,277.090 277.401,277.497 277.094 C 278.599 276.259,278.925 276.396,278.012 277.309 M213.343 284.851 C 213.207 285.221,212.910 285.649,212.684 285.804 C 212.437 285.973,212.426 286.086,212.656 286.086 C 213.340 286.086,213.882 285.538,213.876 284.851 C 213.873 284.482,213.807 284.180,213.730 284.180 C 213.653 284.180,213.479 284.482,213.343 284.851 M119.771 334.724 C 119.754 335.656,120.355 336.295,121.188 336.232 C 122.006 336.170,121.813 335.570,120.974 335.570 C 120.671 335.570,120.422 335.322,120.422 335.018 C 120.422 334.226,119.785 333.939,119.771 334.724 " stroke="none" fill="#fdfdfe" fill-rule="evenodd"></path></g></svg>